<svg xlink="http://www.w3.org/1999/xlink" viewBox="0 0 5000 5000" xmlns="http://www.w3.org/2000/svg" style="transform: scale(1);"><defs><filter id="goo"><feGaussianBlur in="SourceGraphic" stdDeviation="0" result="blur"></feGaussianBlur><feColorMatrix in="blur" type="matrix" values="1 0 0 0 0 0 1 0 0 0 0 0 1 0 0 0 0 0 19 -9" result="good"></feColorMatrix><feComposite in="SourceGraphic" in2="goo" operator="atop"></feComposite></filter><path d="M345,311C320,347 260,290 248,289C235,288 174,341 151,304C131,265 210,240 217,229C226,217 220,134 257,137C294,140 276,219 284,231C291,245 366,280 345,311z" id="P0"></path><path d="M315,171C336,188 285,236 286,248C287,257 346,295 329,315C312,336 264,285 255,286C245,288 211,349 185,329C164,312 215,264 214,252C213,243 154,205 171,185C188,164 236,215 248,214C257,213 295,154 315,171z" id="P1"></path><path d="M234,164C250,159 256,216 264,220C270,222 316,188 327,208C336,222 284,246 283,254C283,261 329,294 314,310C303,323 265,281 256,283C250,285 233,339 213,330C197,323 225,274 221,266C217,261 160,261 163,239C164,222 220,233 226,227C230,222 211,168 234,164z" id="P2"></path><path d="M220,286C206,274 223,253 225,245C227,237 216,214 233,206C250,200 260,225 266,230C274,237 299,244 296,259C293,274 268,269 259,274C250,277 232,296 220,286z" id="P3"></path><path d="M185,250C185,233 224,235 229,230C234,225 229,186 250,185C267,185 265,224 270,229C275,234 314,229 315,250C315,267 276,265 270,271C265,276 267,315 250,315C233,315 235,276 229,270C224,265 185,267 185,250z" id="P4"></path><path d="M231,291C223,287 231,268 228,262C226,258 204,256 205,244C206,236 227,238 232,233C235,229 230,208 242,206C250,204 255,225 261,227C265,229 284,218 289,228C294,236 276,247 275,253C274,258 291,272 283,281C277,287 261,273 255,275C250,276 241,296 231,291z" id="P5"></path><path d="M234,166C267,160 269,220 276,229C282,237 340,244 332,277C320,308 267,281 256,283C243,285 201,327 184,305C166,283 215,252 218,240C223,228 206,170 234,166z" id="P6"></path><path d="M333,303C320,325 261,270 255,271C250,272 224,349 197,333C175,320 230,261 229,254C228,249 152,218 167,197C180,175 239,230 246,229C251,228 282,152 303,167C325,180 270,239 271,246C272,251 348,282 333,303z" id="P7"></path><path d="M334,303C325,320 262,267 258,269C254,271 250,352 225,346C206,343 238,267 234,263C231,260 153,282 151,256C148,237 230,243 233,239C235,235 190,167 213,158C231,149 250,229 255,230C259,231 310,167 327,187C340,201 270,243 271,249C271,253 347,282 334,303z" id="P8"></path><path d="M354,223C363,264 285,269 276,277C267,286 264,361 223,354C183,342 217,271 214,259C211,245 151,195 177,172C202,148 245,211 259,214C273,218 346,189 354,223z" id="P9"></path><path d="M189,216C197,200 233,224 243,221C250,219 268,179 284,189C300,197 276,233 279,243C281,250 321,268 311,284C303,300 267,276 259,279C252,281 236,322 216,311C200,303 224,267 221,259C219,252 178,236 189,216z" id="P10"></path><path d="M203,276C197,267 223,253 223,247C224,241 201,223 211,213C217,205 238,225 245,224C250,222 260,195 273,201C283,205 270,231 273,237C276,241 305,243 304,257C303,267 274,263 270,268C266,272 274,300 260,303C250,306 245,277 239,274C234,272 209,288 203,276z" id="P11"></path></defs><rect id="RECT" width="5000" height="5000" fill="#000000"></rect><g id="group" fill="#0B72B6" filter="" opacity="0.74"><use x="-759" y="-798" href="#P11"></use><use x="-1117" y="-141" href="#P2"></use><use x="-901" y="-162" href="#P6"></use><use x="-1099" y="375" href="#P8"></use><use x="-1165" y="777" href="#P3"></use><use x="-1356" y="1597" href="#P10"></use><use x="-1356" y="2102" href="#P10"></use><use x="-1331" y="2583" href="#P10"></use><use x="-1229" y="3078" href="#P5"></use><use x="-1345" y="3660" href="#P3"></use><use x="-1089" y="4402" href="#P5"></use><use x="-1257" y="4495" href="#P7"></use><use x="-742" y="5432" href="#P1"></use><use x="-792" y="5599" href="#P5"></use><use x="-720" y="6009" href="#P11"></use><use x="-310" y="-1010" href="#P10"></use><use x="-635" y="-500" href="#P0"></use><use x="-605" y="-49" href="#P1"></use><use x="-675" y="341" href="#P1"></use><use x="-982" y="1023" href="#P6"></use><use x="-1011" y="1567" href="#P6"></use><use x="-987" y="2069" href="#P3"></use><use x="-1023" y="2368" href="#P0"></use><use x="-662" y="3404" href="#P4"></use><use x="-819" y="3941" href="#P2"></use><use x="-694" y="4268" href="#P9"></use><use x="-470" y="4911" href="#P9"></use><use x="-672" y="5330" href="#P7"></use><use x="-230" y="5902" href="#P11"></use><use x="-417" y="6024" href="#P1"></use><use x="-70" y="-1091" href="#P8"></use><use x="94" y="-597" href="#P7"></use><use x="-203" y="-94" href="#P3"></use><use x="-36" y="216" href="#P10"></use><use x="-547" y="977" href="#P0"></use><use x="-252" y="1449" href="#P2"></use><use x="-463" y="2029" href="#P10"></use><use x="-141" y="2858" href="#P7"></use><use x="-533" y="3166" href="#P6"></use><use x="-482" y="3729" href="#P0"></use><use x="-79" y="4630" href="#P7"></use><use x="-29" y="4777" href="#P8"></use><use x="-177" y="5477" href="#P0"></use><use x="-94" y="5683" href="#P10"></use><use x="18" y="6236" href="#P9"></use><use x="732" y="-1238" href="#P0"></use><use x="544" y="-921" href="#P5"></use><use x="458" y="-388" href="#P0"></use><use x="295" y="146" href="#P0"></use><use x="31" y="741" href="#P8"></use><use x="117" y="1201" href="#P4"></use><use x="181" y="1821" href="#P11"></use><use x="-30" y="2964" href="#P5"></use><use x="274" y="3308" href="#P1"></use><use x="139" y="4024" href="#P0"></use><use x="447" y="4506" href="#P10"></use><use x="448" y="5131" href="#P10"></use><use x="354" y="5556" href="#P10"></use><use x="732" y="6068" href="#P6"></use><use x="402" y="6362" href="#P7"></use><use x="1103" y="-1113" href="#P5"></use><use x="1321" y="-1025" href="#P2"></use><use x="738" y="-339" href="#P8"></use><use x="611" y="133" href="#P1"></use><use x="561" y="676" href="#P5"></use><use x="457" y="1595" href="#P8"></use><use x="926" y="2312" href="#P8"></use><use x="698" y="2511" href="#P7"></use><use x="971" y="3519" href="#P7"></use><use x="537" y="3836" href="#P5"></use><use x="692" y="4680" href="#P2"></use><use x="1172" y="5248" href="#P9"></use><use x="959" y="5762" href="#P7"></use><use x="895" y="6154" href="#P7"></use><use x="1002" y="6393" href="#P8"></use><use x="1686" y="-1187" href="#P0"></use><use x="1702" y="-696" href="#P1"></use><use x="1302" y="-281" href="#P6"></use><use x="1332" y="-110" href="#P6"></use><use x="1569" y="750" href="#P8"></use><use x="1553" y="999" href="#P11"></use><use x="1131" y="1896" href="#P5"></use><use x="1569" y="2508" href="#P0"></use><use x="1648" y="3648" href="#P3"></use><use x="1501" y="3867" href="#P10"></use><use x="1433" y="4452" href="#P1"></use><use x="1358" y="5330" href="#P11"></use><use x="1614" y="5714" href="#P7"></use><use x="1387" y="6219" href="#P4"></use><use x="1738" y="6296" href="#P3"></use><use x="2173" y="-1229" href="#P0"></use><use x="1887" y="-723" href="#P6"></use><use x="1965" y="-518" href="#P1"></use><use x="2170" y="177" href="#P7"></use><use x="1950" y="672" href="#P5"></use><use x="1834" y="1470" href="#P8"></use><use x="1803" y="2158" href="#P0"></use><use x="2472" y="2391" href="#P6"></use><use x="2398" y="3574" href="#P7"></use><use x="2410" y="4227" href="#P11"></use><use x="2273" y="4917" href="#P7"></use><use x="2276" y="5001" href="#P9"></use><use x="1923" y="5720" href="#P8"></use><use x="2213" y="5898" href="#P2"></use><use x="2419" y="6317" href="#P9"></use><use x="3030" y="-1153" href="#P11"></use><use x="2840" y="-924" href="#P2"></use><use x="2684" y="-302" href="#P8"></use><use x="3038" y="161" href="#P10"></use><use x="3180" y="699" href="#P8"></use><use x="2999" y="1072" href="#P0"></use><use x="2567" y="2276" href="#P1"></use><use x="2772" y="2827" href="#P9"></use><use x="2783" y="3312" href="#P6"></use><use x="2708" y="4189" href="#P2"></use><use x="2577" y="4488" href="#P10"></use><use x="2797" y="5305" href="#P2"></use><use x="2819" y="5855" href="#P4"></use><use x="2946" y="6277" href="#P10"></use><use x="2534" y="6577" href="#P6"></use><use x="3661" y="-1061" href="#P2"></use><use x="3457" y="-1041" href="#P7"></use><use x="3392" y="-632" href="#P0"></use><use x="3746" y="195" href="#P5"></use><use x="3789" y="877" href="#P4"></use><use x="3447" y="1523" href="#P9"></use><use x="3335" y="1825" href="#P7"></use><use x="3378" y="2779" href="#P10"></use><use x="3740" y="3251" href="#P10"></use><use x="3360" y="4055" href="#P5"></use><use x="3783" y="4805" href="#P1"></use><use x="3691" y="4936" href="#P4"></use><use x="3417" y="5770" href="#P2"></use><use x="3655" y="6098" href="#P2"></use><use x="3106" y="6425" href="#P6"></use><use x="3859" y="-1064" href="#P6"></use><use x="4159" y="-991" href="#P6"></use><use x="3896" y="-402" href="#P10"></use><use x="3923" y="268" href="#P3"></use><use x="4457" y="526" href="#P2"></use><use x="4224" y="1210" href="#P2"></use><use x="4215" y="1730" href="#P4"></use><use x="3966" y="2996" href="#P9"></use><use x="4287" y="3308" href="#P8"></use><use x="4423" y="4110" href="#P6"></use><use x="4266" y="4487" href="#P2"></use><use x="4221" y="4968" href="#P10"></use><use x="4018" y="5703" href="#P2"></use><use x="3694" y="6170" href="#P7"></use><use x="3908" y="6263" href="#P0"></use><use x="4373" y="-965" href="#P9"></use><use x="4766" y="-636" href="#P0"></use><use x="4545" y="-288" href="#P7"></use><use x="4665" y="376" href="#P7"></use><use x="4607" y="647" href="#P6"></use><use x="4793" y="1297" href="#P10"></use><use x="5009" y="2323" href="#P6"></use><use x="4774" y="2646" href="#P0"></use><use x="5032" y="3448" href="#P9"></use><use x="4572" y="4168" href="#P2"></use><use x="4642" y="4476" href="#P2"></use><use x="4776" y="5193" href="#P8"></use><use x="4809" y="5599" href="#P3"></use><use x="4378" y="5900" href="#P0"></use><use x="4421" y="6336" href="#P10"></use><use x="4935" y="-1142" href="#P1"></use><use x="5134" y="-534" href="#P8"></use><use x="5356" y="-103" href="#P5"></use><use x="5061" y="163" href="#P9"></use><use x="5262" y="1094" href="#P11"></use><use x="5108" y="1188" href="#P8"></use><use x="5339" y="2289" href="#P11"></use><use x="5604" y="2455" href="#P8"></use><use x="5594" y="3120" href="#P3"></use><use x="5428" y="3780" href="#P7"></use><use x="5006" y="4733" href="#P1"></use><use x="5059" y="4946" href="#P6"></use><use x="5190" y="5286" href="#P5"></use><use x="4896" y="5868" href="#P1"></use><use x="4949" y="6192" href="#P4"></use><use x="5173" y="-1075" href="#P11"></use><use x="5605" y="-542" href="#P4"></use><use x="5453" y="-240" href="#P3"></use><use x="5555" y="457" href="#P7"></use><use x="5625" y="1034" href="#P8"></use><use x="5946" y="1457" href="#P1"></use><use x="5712" y="1816" href="#P6"></use><use x="5883" y="2831" href="#P5"></use><use x="5977" y="3028" href="#P6"></use><use x="5811" y="3975" href="#P9"></use><use x="5834" y="4393" href="#P1"></use><use x="5780" y="4934" href="#P4"></use><use x="5571" y="5383" href="#P2"></use><use x="5532" y="5548" href="#P6"></use><use x="5168" y="6068" href="#P6"></use><use x="5713" y="-726" href="#P9"></use><use x="5818" y="-284" href="#P8"></use><use x="5829" y="-99" href="#P3"></use><use x="6257" y="544" href="#P1"></use><use x="6309" y="1115" href="#P0"></use><use x="6095" y="1638" href="#P10"></use><use x="6153" y="2334" href="#P8"></use><use x="6150" y="2562" href="#P6"></use><use x="6370" y="3383" href="#P3"></use><use x="6218" y="3570" href="#P3"></use><use x="6160" y="4117" href="#P9"></use><use x="6222" y="4559" href="#P2"></use><use x="5774" y="5302" href="#P10"></use><use x="5931" y="5398" href="#P7"></use><use x="5679" y="5893" href="#P4"></use></g></svg>