<svg xlink="http://www.w3.org/1999/xlink" viewBox="0 0 5000 5000" xmlns="http://www.w3.org/2000/svg" style="transform: scale(1);"><defs><filter id="goo"><feGaussianBlur in="SourceGraphic" stdDeviation="0" result="blur"></feGaussianBlur><feColorMatrix in="blur" type="matrix" values="1 0 0 0 0 0 1 0 0 0 0 0 1 0 0 0 0 0 19 -9" result="good"></feColorMatrix><feComposite in="SourceGraphic" in2="goo" operator="atop"></feComposite></filter><path d="M400,332C366,390 306,422 250,421C195,421 144,395 106,342C72,284 72,216 100,168C134,110 194,78 250,79C305,79 356,105 394,158C428,216 428,284 400,332z" id="P0"></path><path d="M379,225L210,375L166,149L379,225z" id="P1"></path><path d="M163,195L305,163L337,305L195,337L163,195z" id="P2"></path><path d="M426,228L325,410L121,371L95,165L283,76L426,228z" id="P3"></path><path d="M346,170L366,296L273,373L154,330L134,204L227,127L346,170z" id="P4"></path><path d="M346,238C350,276 333,310 307,328C281,347 250,352 214,340C180,325 157,294 154,262C150,224 167,190 193,172C219,153 250,148 286,160C320,175 343,206 346,238z" id="P5"></path><path d="M103,157L402,166L239,424L103,157z" id="P6"></path><path d="M242,126L374,242L258,374L126,258L242,126z" id="P7"></path><path d="M238,53L433,177L376,402L144,416L59,201L238,53z" id="P8"></path><path d="M163,187L263,144L347,204L337,313L237,356L153,296L163,187z" id="P9"></path><path d="M208,122C259,107 311,121 342,152C374,182 389,223 383,275C371,327 334,366 292,378C241,393 189,379 158,348C126,318 111,277 117,225C129,173 166,134 208,122z" id="P10"></path><path d="M218,419L117,140L414,197L218,419z" id="P11"></path><path d="M137,272L228,137L363,228L272,363L137,272z" id="P12"></path><path d="M227,70L414,173L374,382L163,409L72,216L227,70z" id="P13"></path><path d="M108,317L123,158L260,93L392,183L377,342L240,407L108,317z" id="P14"></path><path d="M391,232C396,287 372,338 333,365C296,392 250,399 198,382C147,360 114,314 109,268C104,213 128,162 167,135C204,108 250,101 302,118C353,140 386,186 391,232z" id="P15"></path><path d="M141,100L434,227L171,417L141,100z" id="P16"></path><path d="M169,123L377,169L331,377L123,331L169,123z" id="P17"></path><path d="M408,230L318,394L134,359L111,173L280,94L408,230z" id="P18"></path><path d="M134,373L86,208L198,89L366,127L414,292L302,411L134,373z" id="P19"></path></defs><rect id="RECT" width="5000" height="5000" fill="#FFFFFF"></rect><g id="group" fill="#1D6187" filter=""><use x="-842" y="-721" href="#P3"></use><use x="-1016" y="-351" href="#P9"></use><use x="-1127" y="262" href="#P5"></use><use x="-1218" y="668" href="#P13"></use><use x="-1111" y="980" href="#P12"></use><use x="-1207" y="1405" href="#P7"></use><use x="-1352" y="2254" href="#P4"></use><use x="-1153" y="2816" href="#P5"></use><use x="-1392" y="3258" href="#P13"></use><use x="-1227" y="3770" href="#P1"></use><use x="-1165" y="4247" href="#P16"></use><use x="-1214" y="4703" href="#P19"></use><use x="-906" y="5317" href="#P4"></use><use x="-679" y="5801" href="#P1"></use><use x="-640" y="5809" href="#P4"></use><use x="-386" y="-874" href="#P5"></use><use x="-448" y="-678" href="#P15"></use><use x="-381" y="-299" href="#P9"></use><use x="-553" y="151" href="#P16"></use><use x="-757" y="1156" href="#P1"></use><use x="-870" y="1731" href="#P0"></use><use x="-725" y="2071" href="#P17"></use><use x="-850" y="2635" href="#P3"></use><use x="-812" y="3494" href="#P10"></use><use x="-1015" y="3548" href="#P5"></use><use x="-977" y="4079" href="#P5"></use><use x="-518" y="4665" href="#P11"></use><use x="-629" y="5271" href="#P14"></use><use x="-643" y="5525" href="#P11"></use><use x="-370" y="6013" href="#P6"></use><use x="65" y="-885" href="#P4"></use><use x="7" y="-474" href="#P18"></use><use x="-374" y="-174" href="#P14"></use><use x="-98" y="327" href="#P14"></use><use x="-515" y="1108" href="#P7"></use><use x="-489" y="1612" href="#P4"></use><use x="-204" y="1723" href="#P9"></use><use x="-459" y="2685" href="#P9"></use><use x="-561" y="3460" href="#P16"></use><use x="-531" y="3675" href="#P4"></use><use x="-509" y="4168" href="#P11"></use><use x="-148" y="4899" href="#P18"></use><use x="33" y="5554" href="#P0"></use><use x="43" y="5917" href="#P15"></use><use x="12" y="6088" href="#P9"></use><use x="462" y="-1206" href="#P11"></use><use x="693" y="-669" href="#P9"></use><use x="296" y="-51" href="#P11"></use><use x="264" y="251" href="#P1"></use><use x="343" y="869" href="#P8"></use><use x="208" y="1075" href="#P11"></use><use x="73" y="2290" href="#P16"></use><use x="365" y="2833" href="#P18"></use><use x="116" y="3056" href="#P17"></use><use x="437" y="4244" href="#P17"></use><use x="111" y="4288" href="#P12"></use><use x="138" y="5016" href="#P4"></use><use x="249" y="5690" href="#P17"></use><use x="795" y="6150" href="#P14"></use><use x="630" y="6237" href="#P0"></use><use x="1226" y="-1347" href="#P10"></use><use x="900" y="-990" href="#P0"></use><use x="998" y="-295" href="#P3"></use><use x="674" y="106" href="#P15"></use><use x="853" y="653" href="#P5"></use><use x="717" y="1293" href="#P3"></use><use x="480" y="2024" href="#P17"></use><use x="674" y="2876" href="#P2"></use><use x="803" y="3338" href="#P16"></use><use x="934" y="3868" href="#P5"></use><use x="654" y="4665" href="#P2"></use><use x="894" y="5278" href="#P3"></use><use x="725" y="5409" href="#P5"></use><use x="1072" y="5908" href="#P4"></use><use x="948" y="6310" href="#P13"></use><use x="1352" y="-1209" href="#P3"></use><use x="1366" y="-921" href="#P1"></use><use x="1445" y="-376" href="#P1"></use><use x="1513" y="264" href="#P8"></use><use x="1136" y="879" href="#P13"></use><use x="1627" y="1412" href="#P12"></use><use x="1698" y="2038" href="#P9"></use><use x="1213" y="2400" href="#P17"></use><use x="1652" y="3303" href="#P1"></use><use x="1442" y="4224" href="#P7"></use><use x="1346" y="4895" href="#P10"></use><use x="1398" y="5125" href="#P1"></use><use x="1844" y="5649" href="#P15"></use><use x="1812" y="5905" href="#P10"></use><use x="1389" y="6363" href="#P9"></use><use x="2262" y="-1318" href="#P0"></use><use x="2032" y="-997" href="#P1"></use><use x="2439" y="-444" href="#P7"></use><use x="1868" y="299" href="#P16"></use><use x="2500" y="535" href="#P0"></use><use x="1899" y="1304" href="#P1"></use><use x="2377" y="2032" href="#P19"></use><use x="2468" y="2652" href="#P15"></use><use x="1984" y="3053" href="#P15"></use><use x="2297" y="4305" href="#P7"></use><use x="2073" y="4637" href="#P16"></use><use x="2171" y="5297" href="#P1"></use><use x="1911" y="5570" href="#P10"></use><use x="1943" y="5910" href="#P5"></use><use x="2499" y="6552" href="#P7"></use><use x="2639" y="-1325" href="#P7"></use><use x="2711" y="-1039" href="#P5"></use><use x="2854" y="-398" href="#P9"></use><use x="2745" y="-171" href="#P5"></use><use x="2676" y="402" href="#P0"></use><use x="2850" y="1563" href="#P13"></use><use x="2929" y="2182" href="#P8"></use><use x="3034" y="2655" href="#P6"></use><use x="3216" y="3680" href="#P13"></use><use x="3193" y="3949" href="#P0"></use><use x="2888" y="4729" href="#P14"></use><use x="2705" y="5361" href="#P7"></use><use x="2999" y="5449" href="#P19"></use><use x="2975" y="6255" href="#P1"></use><use x="2820" y="6312" href="#P10"></use><use x="3409" y="-1173" href="#P5"></use><use x="3290" y="-674" href="#P12"></use><use x="3469" y="-507" href="#P16"></use><use x="3436" y="276" href="#P0"></use><use x="3225" y="423" href="#P9"></use><use x="3669" y="1204" href="#P12"></use><use x="3761" y="2063" href="#P10"></use><use x="3583" y="2844" href="#P6"></use><use x="3239" y="3397" href="#P7"></use><use x="3810" y="3767" href="#P9"></use><use x="3787" y="4446" href="#P2"></use><use x="3456" y="5146" href="#P19"></use><use x="3648" y="5398" href="#P11"></use><use x="3390" y="5876" href="#P17"></use><use x="3256" y="6478" href="#P19"></use><use x="3716" y="-1119" href="#P0"></use><use x="3950" y="-1024" href="#P8"></use><use x="3807" y="-260" href="#P16"></use><use x="4321" y="314" href="#P16"></use><use x="4234" y="467" href="#P16"></use><use x="4315" y="1074" href="#P0"></use><use x="4365" y="1795" href="#P7"></use><use x="4140" y="2877" href="#P18"></use><use x="4436" y="3012" href="#P0"></use><use x="4371" y="3727" href="#P17"></use><use x="3941" y="4372" href="#P7"></use><use x="4165" y="4893" href="#P16"></use><use x="3979" y="5510" href="#P6"></use><use x="3996" y="6056" href="#P2"></use><use x="3669" y="6361" href="#P12"></use><use x="4191" y="-1320" href="#P1"></use><use x="4411" y="-694" href="#P19"></use><use x="4644" y="-82" href="#P2"></use><use x="4889" y="149" href="#P8"></use><use x="4894" y="842" href="#P7"></use><use x="4609" y="1647" href="#P2"></use><use x="4625" y="1785" href="#P19"></use><use x="4610" y="2412" href="#P1"></use><use x="4967" y="3470" href="#P2"></use><use x="4753" y="3744" href="#P10"></use><use x="4859" y="4497" href="#P14"></use><use x="4693" y="5179" href="#P4"></use><use x="4591" y="5577" href="#P13"></use><use x="4581" y="6006" href="#P1"></use><use x="4582" y="6261" href="#P11"></use><use x="4773" y="-1154" href="#P12"></use><use x="4873" y="-777" href="#P15"></use><use x="4972" y="-424" href="#P8"></use><use x="5467" y="476" href="#P9"></use><use x="5157" y="552" href="#P4"></use><use x="5393" y="1413" href="#P7"></use><use x="5547" y="1928" href="#P2"></use><use x="5593" y="2733" href="#P17"></use><use x="5202" y="3026" href="#P16"></use><use x="5414" y="3804" href="#P19"></use><use x="5193" y="4625" href="#P5"></use><use x="4994" y="4837" href="#P1"></use><use x="4805" y="5665" href="#P19"></use><use x="4740" y="6043" href="#P13"></use><use x="4907" y="6198" href="#P6"></use><use x="5269" y="-1062" href="#P2"></use><use x="5355" y="-693" href="#P11"></use><use x="5664" y="-227" href="#P17"></use><use x="5639" y="426" href="#P6"></use><use x="5641" y="681" href="#P11"></use><use x="6000" y="1411" href="#P6"></use><use x="6080" y="2017" href="#P9"></use><use x="6063" y="2818" href="#P11"></use><use x="5658" y="3516" href="#P7"></use><use x="5842" y="3727" href="#P8"></use><use x="5720" y="4553" href="#P6"></use><use x="5738" y="4704" href="#P17"></use><use x="5670" y="5094" href="#P12"></use><use x="5523" y="5694" href="#P15"></use><use x="5217" y="6157" href="#P13"></use><use x="5729" y="-683" href="#P1"></use><use x="5880" y="-257" href="#P5"></use><use x="6146" y="-43" href="#P7"></use><use x="6036" y="268" href="#P16"></use><use x="6337" y="949" href="#P18"></use><use x="6247" y="1749" href="#P4"></use><use x="6153" y="2280" href="#P4"></use><use x="6443" y="2443" href="#P10"></use><use x="6101" y="3216" href="#P3"></use><use x="6353" y="3678" href="#P18"></use><use x="6221" y="4206" href="#P11"></use><use x="6213" y="4487" href="#P5"></use><use x="5908" y="5285" href="#P15"></use><use x="5635" y="5677" href="#P1"></use><use x="5872" y="5832" href="#P4"></use></g></svg>