<svg xlink="http://www.w3.org/1999/xlink" viewBox="0 0 5000 5000" xmlns="http://www.w3.org/2000/svg" style="transform: scale(1);">
    <defs>
        <filter id="goo">
            <feGaussianBlur in="SourceGraphic" stdDeviation="0" result="blur"></feGaussianBlur>
            <feColorMatrix in="blur" type="matrix" values="1 0 0 0 0 0 1 0 0 0 0 0 1 0 0 0 0 0 19 -9" result="good"></feColorMatrix>
            <feComposite in="SourceGraphic" in2="goo" operator="atop"></feComposite>
        </filter>
        <path d="M379,189C324,241 300,259 334,296C286,284 267,277 269,308C254,281 242,373 176,477C169,348 214,270 173,255C211,245 194,232 150,195C207,209 184,146 177,26C250,126 278,163 352,109C315,189 312,211 379,189z" id="P0"></path>
        <path d="M86,340C154,268 217,246 195,220C227,226 211,167 239,76C278,162 315,171 413,147C335,203 307,223 368,212C316,254 347,296 379,406C295,346 265,328 231,401C231,325 224,314 177,365C202,301 172,307 86,340z" id="P1"></path>
        <path d="M285,142C278,199 313,174 397,128C340,208 306,239 359,257C305,260 304,267 353,291C297,284 270,274 275,303C250,282 238,275 213,285C229,265 157,301 61,339C139,257 161,221 114,138C205,168 242,190 285,142z" id="P2"></path>
        <path d="M309,313C267,292 250,376 149,465C178,349 207,290 154,311C197,275 148,283 41,276C141,229 206,226 184,180C229,204 239,164 271,86C282,170 277,213 313,190C290,228 313,234 375,250C313,266 289,272 309,313z" id="P3"></path>
    </defs>
    <rect id="RECT" width="5000" height="5000" fill="#0B72B6"></rect>
    <g id="group" fill="#FFFF78" filter="" opacity=".9">
        <use x="-878" y="-809" href="#P0"></use>
        <use x="-870" y="-436" href="#P1"></use>
        <use x="-837" y="35" href="#P3"></use>
        <use x="-1281" y="614" href="#P3"></use>
        <use x="-1307" y="937" href="#P3"></use>
        <use x="-1247" y="1333" href="#P0"></use>
        <use x="-1454" y="1895" href="#P3"></use>
        <use x="-1258" y="2898" href="#P1"></use>
        <use x="-1180" y="3454" href="#P2"></use>
        <use x="-1167" y="3539" href="#P2"></use>
        <use x="-1313" y="4181" href="#P0"></use>
        <use x="-1200" y="4853" href="#P1"></use>
        <use x="-1006" y="5126" href="#P3"></use>
        <use x="-906" y="5595" href="#P0"></use>
        <use x="-523" y="6045" href="#P3"></use>
        <use x="-242" y="-1088" href="#P2"></use>
        <use x="-316" y="-665" href="#P2"></use>
        <use x="-572" y="-144" href="#P0"></use>
        <use x="-829" y="369" href="#P0"></use>
        <use x="-827" y="854" href="#P2"></use>
        <use x="-961" y="1463" href="#P1"></use>
        <use x="-744" y="1902" href="#P0"></use>
        <use x="-707" y="2880" href="#P2"></use>
        <use x="-635" y="3472" href="#P2"></use>
        <use x="-1015" y="3664" href="#P2"></use>
        <use x="-918" y="4392" href="#P3"></use>
        <use x="-447" y="5092" href="#P0"></use>
        <use x="-541" y="5409" href="#P1"></use>
        <use x="-599" y="5762" href="#P0"></use>
        <use x="-173" y="6047" href="#P0"></use>
        <use x="53" y="-1181" href="#P0"></use>
        <use x="-39" y="-599" href="#P2"></use>
        <use x="-23" y="-442" href="#P0"></use>
        <use x="-68" y="150" href="#P1"></use>
        <use x="-300" y="999" href="#P3"></use>
        <use x="-268" y="1403" href="#P0"></use>
        <use x="-462" y="2239" href="#P1"></use>
        <use x="-478" y="2619" href="#P1"></use>
        <use x="-431" y="3451" href="#P1"></use>
        <use x="-338" y="3626" href="#P3"></use>
        <use x="-540" y="4176" href="#P1"></use>
        <use x="-82" y="5100" href="#P2"></use>
        <use x="31" y="5299" href="#P0"></use>
        <use x="185" y="5865" href="#P3"></use>
        <use x="12" y="6153" href="#P0"></use>
        <use x="463" y="-1124" href="#P2"></use>
        <use x="693" y="-578" href="#P0"></use>
        <use x="141" y="-304" href="#P1"></use>
        <use x="369" y="89" href="#P2"></use>
        <use x="4" y="668" href="#P0"></use>
        <use x="438" y="1477" href="#P3"></use>
        <use x="-40" y="2041" href="#P1"></use>
        <use x="395" y="2535" href="#P0"></use>
        <use x="34" y="3470" href="#P0"></use>
        <use x="241" y="3625" href="#P3"></use>
        <use x="88" y="4399" href="#P1"></use>
        <use x="391" y="5085" href="#P0"></use>
        <use x="498" y="5614" href="#P0"></use>
        <use x="441" y="5870" href="#P0"></use>
        <use x="831" y="6473" href="#P3"></use>
        <use x="1179" y="-1387" href="#P2"></use>
        <use x="907" y="-831" href="#P3"></use>
        <use x="764" y="-568" href="#P1"></use>
        <use x="622" y="-42" href="#P3"></use>
        <use x="555" y="697" href="#P3"></use>
        <use x="706" y="1077" href="#P1"></use>
        <use x="569" y="2151" href="#P0"></use>
        <use x="682" y="2777" href="#P2"></use>
        <use x="654" y="3622" href="#P3"></use>
        <use x="1092" y="4049" href="#P0"></use>
        <use x="625" y="4821" href="#P0"></use>
        <use x="1053" y="5106" href="#P3"></use>
        <use x="1013" y="5736" href="#P0"></use>
        <use x="1300" y="6229" href="#P3"></use>
        <use x="1215" y="6465" href="#P2"></use>
        <use x="1775" y="-1145" href="#P3"></use>
        <use x="1772" y="-832" href="#P2"></use>
        <use x="1500" y="-498" href="#P2"></use>
        <use x="1715" y="279" href="#P2"></use>
        <use x="1154" y="883" href="#P0"></use>
        <use x="1758" y="998" href="#P3"></use>
        <use x="1178" y="2282" href="#P1"></use>
        <use x="1376" y="2771" href="#P0"></use>
        <use x="1126" y="3344" href="#P3"></use>
        <use x="1752" y="3907" href="#P3"></use>
        <use x="1476" y="4754" href="#P2"></use>
        <use x="1398" y="5088" href="#P2"></use>
        <use x="1368" y="5594" href="#P2"></use>
        <use x="1484" y="5935" href="#P0"></use>
        <use x="1583" y="6322" href="#P0"></use>
        <use x="2173" y="-1237" href="#P2"></use>
        <use x="2040" y="-846" href="#P3"></use>
        <use x="1985" y="-583" href="#P1"></use>
        <use x="2270" y="111" href="#P0"></use>
        <use x="1995" y="869" href="#P1"></use>
        <use x="2042" y="1331" href="#P0"></use>
        <use x="2471" y="2090" href="#P0"></use>
        <use x="1987" y="2861" href="#P3"></use>
        <use x="2273" y="3304" href="#P3"></use>
        <use x="1827" y="4222" href="#P3"></use>
        <use x="1903" y="4892" href="#P2"></use>
        <use x="2294" y="5091" href="#P1"></use>
        <use x="1977" y="5861" href="#P1"></use>
        <use x="2390" y="6006" href="#P1"></use>
        <use x="2186" y="6629" href="#P1"></use>
        <use x="2850" y="-1351" href="#P1"></use>
        <use x="2533" y="-874" href="#P3"></use>
        <use x="2709" y="-539" href="#P3"></use>
        <use x="2524" y="-125" href="#P1"></use>
        <use x="2592" y="819" href="#P2"></use>
        <use x="2699" y="954" href="#P1"></use>
        <use x="3179" y="2305" href="#P1"></use>
        <use x="3185" y="2863" href="#P2"></use>
        <use x="3190" y="3119" href="#P1"></use>
        <use x="2850" y="3959" href="#P1"></use>
        <use x="2516" y="4463" href="#P1"></use>
        <use x="2794" y="5250" href="#P3"></use>
        <use x="2958" y="5684" href="#P1"></use>
        <use x="2887" y="6111" href="#P2"></use>
        <use x="3022" y="6341" href="#P1"></use>
        <use x="3204" y="-1280" href="#P3"></use>
        <use x="3463" y="-1059" href="#P2"></use>
        <use x="3573" y="-286" href="#P2"></use>
        <use x="3372" y="318" href="#P0"></use>
        <use x="3701" y="628" href="#P3"></use>
        <use x="3841" y="1585" href="#P2"></use>
        <use x="3534" y="1784" href="#P3"></use>
        <use x="3452" y="2584" href="#P0"></use>
        <use x="3710" y="3638" href="#P0"></use>
        <use x="3593" y="4129" href="#P2"></use>
        <use x="3736" y="4680" href="#P0"></use>
        <use x="3450" y="4908" href="#P1"></use>
        <use x="3724" y="5400" href="#P2"></use>
        <use x="3517" y="5927" href="#P3"></use>
        <use x="3328" y="6374" href="#P1"></use>
        <use x="3800" y="-1347" href="#P0"></use>
        <use x="3902" y="-662" href="#P0"></use>
        <use x="4156" y="-445" href="#P3"></use>
        <use x="4313" y="213" href="#P3"></use>
        <use x="4012" y="739" href="#P2"></use>
        <use x="4063" y="1458" href="#P0"></use>
        <use x="4463" y="1967" href="#P0"></use>
        <use x="4072" y="2775" href="#P2"></use>
        <use x="4357" y="3180" href="#P2"></use>
        <use x="4079" y="3723" href="#P0"></use>
        <use x="4361" y="4640" href="#P1"></use>
        <use x="4162" y="5210" href="#P1"></use>
        <use x="4016" y="5597" href="#P1"></use>
        <use x="3960" y="6019" href="#P2"></use>
        <use x="3977" y="6224" href="#P2"></use>
        <use x="4607" y="-1154" href="#P2"></use>
        <use x="4822" y="-531" href="#P3"></use>
        <use x="4669" y="-478" href="#P0"></use>
        <use x="4668" y="371" href="#P1"></use>
        <use x="4560" y="950" href="#P3"></use>
        <use x="4855" y="1149" href="#P2"></use>
        <use x="4815" y="1713" href="#P1"></use>
        <use x="4746" y="2352" href="#P0"></use>
        <use x="5058" y="3460" href="#P1"></use>
        <use x="4669" y="3812" href="#P3"></use>
        <use x="4699" y="4424" href="#P3"></use>
        <use x="4848" y="4789" href="#P1"></use>
        <use x="4431" y="5543" href="#P1"></use>
        <use x="4549" y="5808" href="#P1"></use>
        <use x="4320" y="6202" href="#P1"></use>
        <use x="4796" y="-989" href="#P0"></use>
        <use x="4875" y="-782" href="#P1"></use>
        <use x="5144" y="-82" href="#P3"></use>
        <use x="5311" y="573" href="#P0"></use>
        <use x="5541" y="1073" href="#P2"></use>
        <use x="5143" y="1276" href="#P2"></use>
        <use x="5189" y="1710" href="#P1"></use>
        <use x="5596" y="2555" href="#P3"></use>
        <use x="5609" y="3250" href="#P1"></use>
        <use x="5404" y="3627" href="#P1"></use>
        <use x="5116" y="4610" href="#P2"></use>
        <use x="5090" y="4910" href="#P1"></use>
        <use x="5267" y="5359" href="#P1"></use>
        <use x="5072" y="5931" href="#P1"></use>
        <use x="5108" y="6090" href="#P1"></use>
        <use x="5241" y="-990" href="#P1"></use>
        <use x="5677" y="-499" href="#P0"></use>
        <use x="5452" y="92" href="#P1"></use>
        <use x="5678" y="445" href="#P1"></use>
        <use x="5605" y="914" href="#P1"></use>
        <use x="5936" y="1734" href="#P1"></use>
        <use x="5725" y="1894" href="#P3"></use>
        <use x="5994" y="2791" href="#P3"></use>
        <use x="5848" y="3297" href="#P3"></use>
        <use x="5710" y="3814" href="#P1"></use>
        <use x="5820" y="4425" href="#P0"></use>
        <use x="5822" y="4991" href="#P0"></use>
        <use x="5779" y="5070" href="#P2"></use>
        <use x="5388" y="5616" href="#P1"></use>
        <use x="5457" y="6098" href="#P2"></use>
        <use x="5881" y="-711" href="#P3"></use>
        <use x="6000" y="-187" href="#P1"></use>
        <use x="6046" y="212" href="#P1"></use>
        <use x="6166" y="547" href="#P1"></use>
        <use x="6140" y="1208" href="#P1"></use>
        <use x="6390" y="1359" href="#P3"></use>
        <use x="6222" y="2239" href="#P2"></use>
        <use x="6433" y="2583" href="#P3"></use>
        <use x="6221" y="3373" href="#P1"></use>
        <use x="6131" y="4011" href="#P1"></use>
        <use x="6268" y="4013" href="#P2"></use>
        <use x="5842" y="5010" href="#P3"></use>
        <use x="5931" y="5092" href="#P3"></use>
        <use x="5979" y="5391" href="#P3"></use>
        <use x="5558" y="6015" href="#P3"></use>
    </g>
</svg>