<?xml version="1.0" encoding="UTF-8" standalone="no"?>
<svg
   xmlns:dc="http://purl.org/dc/elements/1.1/"
   xmlns:cc="http://creativecommons.org/ns#"
   xmlns:rdf="http://www.w3.org/1999/02/22-rdf-syntax-ns#"
   xmlns:svg="http://www.w3.org/2000/svg"
   xmlns="http://www.w3.org/2000/svg"
   width="300"
   height="300"
   viewBox="0 0 300 300.00001"
   id="svg4159"
   version="1.1"
   style="background-color:transparent;">
  <title
     id="title4163">Squiggles</title>
  <defs
     id="newID1" />
  <metadata
     id="metadata4164">
    <rdf:RDF>
      <cc:Work
         rdf:about="">
        <dc:format>image/svg+xml</dc:format>
        <dc:type
           rdf:resource="http://purl.org/dc/dcmitype/StillImage" />
        <dc:title>Squiggles</dc:title>
        <dc:subject>
          <rdf:Bag>
            <rdf:li>squiggles</rdf:li>
            <rdf:li>marks</rdf:li>
            <rdf:li>pattern</rdf:li>
            <rdf:li>texture</rdf:li>
            <rdf:li>seamless</rdf:li>
            <rdf:li>tileable</rdf:li>
            <rdf:li>black and white</rdf:li>
            <rdf:li>black &amp; white</rdf:li>
            <rdf:li>monochrome</rdf:li>
            <rdf:li>gray scale</rdf:li>
            <rdf:li>grey scale</rdf:li>
            <rdf:li />
          </rdf:Bag>
        </dc:subject>
        <dc:description>A seamless pattern based on a pattern from Memphis Group (Memphis-Milano) a circa 1980's architecture and design company.</dc:description>
        <dc:creator>
          <cc:Agent>
            <dc:title>Arvin61r58</dc:title>
          </cc:Agent>
        </dc:creator>
        <dc:publisher>
          <cc:Agent>
            <dc:title>Openclipart.org</dc:title>
          </cc:Agent>
        </dc:publisher>
        <dc:identifier>https://openclipart.org/</dc:identifier>
        <dc:source>https://openclipart.org/user-detail/Arvin61r58</dc:source>
        <cc:license
           rdf:resource="http://creativecommons.org/publicdomain/zero/1.0/" />
      </cc:Work>
      <cc:License
         rdf:about="http://creativecommons.org/publicdomain/zero/1.0/">
        <cc:permits
           rdf:resource="http://creativecommons.org/ns#Reproduction" />
        <cc:permits
           rdf:resource="http://creativecommons.org/ns#Distribution" />
        <cc:permits
           rdf:resource="http://creativecommons.org/ns#DerivativeWorks" />
      </cc:License>
    </rdf:RDF>
  </metadata>
  <g
     transform="translate(-222.04724,-376.18114)"
     id="layer1">
    <path
       style="fill:#ffff78;" stroke="#000000" stroke-width=".09"
       d="m 259.6859,376.18119 c -0.20571,2.25986 -0.0266,4.32909 0.63868,4.99415 1.09356,1.09328 2.76562,-0.22644 2.76562,-2.18358 0,-1.97049 1.10884,-2.09981 5.07619,-0.59181 2.0403,0.7755 3.50821,0.63852 5.01756,-0.46485 1.10233,-0.80583 1.50343,-1.24201 0.99025,-1.75391 l -14.4883,0 z m 21.34376,0 c 0.41004,0.2943 0.85818,0.58853 1.39454,0.89259 3.29435,1.86762 6.44531,1.71477 6.44531,-0.31445 0,-0.17958 -0.0491,-0.37665 -0.1211,-0.57814 l -7.71875,0 z m 15.16602,0 c -0.0233,0.0733 -0.0543,0.14606 -0.0684,0.21876 -0.27969,1.45204 0.725,2.04013 4.09571,2.39843 6.88581,0.73197 7.81671,0.45412 8.54687,-2.61719 l -12.57422,0 z m 42.18747,0 c 0.21013,0.135 0.42698,0.26298 0.6504,0.38086 4.54954,2.40048 9.8715,2.4179 9.39063,0.0312 -0.0251,-0.12481 -0.098,-0.26679 -0.17969,-0.41211 l -9.86134,0 z m 16.69337,0 c -1.00599,3.85186 -2.75736,6.76595 -4.88281,7.95508 -1.19927,0.67099 -1.63591,1.82696 -1.16017,3.0664 1.88018,4.89834 10.14453,-3.33109 10.14453,-10.10155 0,-0.33009 0.0153,-0.63399 0.043,-0.91993 l -4.14454,0 z m 42.74218,0 c -0.10577,2.01011 -0.57219,2.29651 -2.02344,1.69923 -1.12784,-0.4642 -2.97175,-1.1094 -4.09961,-1.43359 -3.00111,-0.86269 -2.60074,2.68241 0.55274,4.89062 5.13552,3.59611 10.15731,1.03495 10.27344,-5.15626 l -4.70313,0 z m 15.61719,0 c -0.22835,0.40263 -0.35547,0.85008 -0.35547,1.33789 0,1.9496 0.67664,2.24917 4.36327,1.93165 3.40788,-0.29354 4.62654,0.13427 5.56642,1.95898 0.66184,1.28489 1.62917,2.99537 2.15039,3.80078 1.24414,1.92246 4.24052,1.87705 4.99023,-0.0762 0.68288,-1.7791 -1.59109,-6.4888 -4.1621,-8.95313 l -12.55274,0 z m 47.30078,0 c 0.59609,0.72776 1.72728,1.09458 3.00781,0.91211 0.72529,-0.10335 1.32952,-0.38254 1.88671,-0.91211 l -4.89452,0 z m 43.88866,0 c 0.0576,0.74075 0.16894,1.42192 0.33984,1.86719 0.81301,2.11816 3.03125,1.002 3.03125,-1.52539 0,-0.12614 0.01,-0.23506 0.0215,-0.3418 l -3.39258,0 z m 7.03711,0 c 3.26471,1.04516 6.32204,0.97319 8.55664,0 l -8.55664,0 z m -195.24021,2.46679 c -2.11048,-0.0204 -3.77105,0.65229 -5.21875,2.09963 -1.32697,1.32663 -2.91515,2.41211 -3.52929,2.41211 -4.27503,0 -9.14522,4.64831 -7.55861,7.21483 0.38952,0.63011 1.57797,0.78605 2.64064,0.34571 1.06266,-0.44035 3.69805,-1.22387 5.85547,-1.74023 2.1574,-0.51638 4.66661,-2.00058 5.57616,-3.29883 0.90957,-1.29826 2.83486,-2.52923 4.2793,-2.73436 4.09514,-0.58167 3.24467,-3.82623 -1.11327,-4.24806 -0.32055,-0.031 -0.63017,-0.0479 -0.93165,-0.0508 z m -79.74999,1.22657 c -1.77749,-0.0995 -3.53885,0.89628 -3.79688,2.70118 -0.21266,1.48752 0.64124,2.82372 2.3418,3.66211 5.75449,2.83697 12.63867,1.6509 12.63867,-2.17774 0,-1.98623 -0.54446,-2.25503 -3.41211,-1.68164 -2.2881,0.4575 -3.89525,0.10053 -4.87696,-1.08202 -0.7548,-0.90927 -1.82803,-1.36218 -2.89452,-1.42189 z m 211.76951,0.51172 c -1.32946,-0.0663 -2.55079,0.79391 -2.55079,2.31447 0,0.89751 1.00858,2.63975 2.24219,3.87302 1.83882,1.83836 3.0255,2.06693 6.58788,1.2637 2.38989,-0.5389 4.86744,-1.50239 5.50588,-2.14062 2.09468,-2.09418 -0.28461,-3.81209 -4.25001,-3.06839 -2.64773,0.4966 -4.23752,0.17442 -5.26759,-1.0664 -0.63325,-0.76282 -1.4699,-1.136 -2.26756,-1.17578 z m 69.09178,0.3711 c -1.24951,-0.0559 -2.78487,0.73081 -3.67968,2.40235 -0.78019,1.4574 -2.45675,2.34464 -4.43555,2.34764 -3.31473,0.005 -10.79688,3.91364 -10.79688,5.64062 0,0.54642 0.35158,1.34587 0.78126,1.77541 1.16248,1.1622 3.6669,0.94438 4.49218,-0.39063 0.39831,-0.64432 2.19598,-1.17187 3.99609,-1.17187 4.31159,0 11.1389,-4.6725 11.61133,-7.94727 0.24533,-1.70057 -0.71923,-2.60037 -1.96875,-2.65625 z m -24.67382,0.43749 c -0.58521,0.0164 -1.23827,0.28267 -1.9004,0.83203 -0.93507,0.77577 -2.84362,1.11123 -4.24023,0.7461 -2.77193,-0.7247 -6.8457,0.94668 -6.8457,2.80859 0,0.64242 1.18469,1.64579 2.63476,2.22852 5.96196,2.39579 12.59768,0.57945 12.59768,-3.44922 0,-2.02841 -0.95863,-3.2021 -2.24611,-3.16602 z m -114.11523,0.0703 c -0.89938,-0.0489 -2.32806,0.0932 -4.55077,0.34179 -6.72608,0.75219 -10.32813,2.99229 -10.32813,6.42189 0,2.57702 2.66061,2.84489 4.63477,0.46679 0.77359,-0.93189 3.60605,-1.8551 6.29491,-2.05079 4.01857,-0.29245 4.95499,-0.8167 5.25781,-2.94531 0.21915,-1.54048 0.1904,-2.15284 -1.30859,-2.23437 z m -49.03319,5.9961 c -1.05778,0 -1.49286,1.22918 -1.30468,3.69337 l 0.2832,3.69531 -7.86134,-0.17971 c -6.53461,-0.14974 -7.93017,0.15442 -8.26562,1.80275 -0.3255,1.59954 0.68755,2.06748 5.23633,2.42381 13.99272,1.09618 16.82214,0.91881 17.59764,-1.10155 0.91638,-2.38738 -3.45554,-10.33398 -5.68553,-10.33398 z m 108.08592,1.33202 c -4.31677,0.0842 -4.25584,2.47362 0.38476,5.21096 2.80152,1.65249 4.19338,3.33485 4.19338,5.06639 0,1.42566 1.07457,3.74611 2.38866,5.15625 2.984,3.2021 6.98438,3.40978 6.98438,0.36327 0,-1.20975 -0.78912,-2.85608 -1.75586,-3.6582 -0.96673,-0.8021 -1.75781,-2.96157 -1.75781,-4.80078 0,-3.98909 -3.99197,-7.06272 -9.51564,-7.32421 -0.32663,-0.0155 -0.63408,-0.0193 -0.92187,-0.0137 z m -175.22262,0.90819 c -1.3393,-0.0643 -3.33247,1.14839 -5.44922,3.55861 -2.4735,2.81643 -4.56929,4.13679 -6.20898,3.91212 -3.63005,-0.49742 -4.00965,4.12034 -0.47852,5.8203 1.48025,0.71262 3.28763,1.33139 4.01562,1.375 1.80604,0.10818 9.80859,-9.81443 9.80859,-12.16211 0,-1.63132 -0.64582,-2.45393 -1.68749,-2.50392 z m 19.66796,0.68751 c -2.07044,0 -1.95014,3.50822 0.21876,6.37501 2.51176,3.32 2.1129,4.54859 -2.1133,6.51171 -3.99901,1.85759 -5.03041,4.22996 -3.86327,8.87891 0.93384,3.71976 3.93606,3.63838 4.88282,-0.13281 0.41004,-1.63329 2.25879,-3.75134 4.10742,-4.70704 5.54042,-2.86431 5.59143,-8.61873 0.13281,-14.875 -0.9838,-1.12757 -2.49839,-2.05078 -3.36524,-2.05078 z m 191.81442,0.33202 c -0.87265,-0.12412 -2.24801,0.41918 -4.93164,1.73829 -2.79007,1.37146 -5.99938,2.76958 -7.1328,3.10743 -3.10305,0.92498 -5.10088,6.01842 -3.24025,8.25977 2.03182,2.44755 4.41105,2.25207 5.26369,-0.4336 0.38876,-1.22458 2.13745,-2.58164 3.8867,-3.01563 2.98586,-0.74078 8.47515,-4.89579 8.43555,-6.38477 -0.01,-0.37091 -0.49452,-1.42955 -1.07812,-2.35154 -0.3368,-0.53208 -0.67954,-0.84545 -1.20313,-0.91995 z m -51.9414,0.10354 c -1.61268,0.0131 -4.40465,1.79686 -7.82031,5.1582 -6.40982,6.30785 -6.92085,7.74141 -3.93751,11.03711 2.41261,2.66521 4.35718,2.18287 4.85549,-1.20313 0.20611,-1.40067 1.38575,-3.08797 2.62304,-3.74999 2.24177,-1.19945 5.78907,-6.9056 5.78907,-9.31251 0,-1.30773 -0.54217,-1.93754 -1.50978,-1.92968 z m -190.11912,0.10547 c -0.37021,-0.004 -0.70045,0.0431 -0.96484,0.14453 -2.16619,0.83105 -2.50054,2.33531 -0.75781,3.4121 3.45972,2.13766 3.41776,5.03144 -0.15235,10.41993 -3.6703,5.53968 -3.8915,9.54649 -0.73437,13.34961 1.63477,1.96927 5.13101,1.20529 4.54101,-0.9922 -1.5079,-5.61622 -1.31134,-7.07208 1.50977,-11.22264 3.92951,-5.78126 4.04203,-11.42976 0.2793,-13.89453 -1.14031,-0.74699 -2.61007,-1.20545 -3.72071,-1.2168 z m 164.75584,1.00975 c -0.66087,-0.0386 -1.43088,0.25444 -2.57812,0.86331 -1.52528,0.80945 -3.41266,2.37317 -4.19531,3.47459 -0.91594,1.28908 -2.44093,1.80837 -4.2793,1.45702 -3.83224,-0.73237 -5.63385,3.98061 -2.41992,6.33008 3.08166,2.2528 5.09524,1.94058 10.17968,-1.58202 5.87615,-4.07115 7.55121,-7.09001 5.22462,-9.416 -0.71791,-0.71772 -1.27078,-1.08839 -1.93165,-1.12698 z m 89.38476,4.35938 c -0.98539,0.0905 -1.92384,0.6617 -2.3086,1.66406 -0.36217,0.9436 0.48001,3.31565 1.87306,5.27148 2.7935,3.9221 4.85579,4.45501 7.04297,1.82032 1.27285,-1.53328 1.73026,-1.53328 3.91992,0 3.21532,2.25156 6.26232,2.20831 7.55859,-0.10741 0.56752,-1.01382 2.30808,-2.47876 3.86718,-3.25587 3.47381,-1.73143 3.83618,-5.02369 0.49219,-4.47462 -1.28897,0.21168 -3.88108,1.13709 -5.75976,2.05665 -3.00199,1.4694 -3.66102,1.45176 -5.42968,-0.14844 -1.29572,-1.17221 -3.05864,-1.55884 -4.95117,-1.08397 -1.64958,0.4139 -3.28332,0.18334 -3.72266,-0.52736 -0.5657,-0.91508 -1.59664,-1.30531 -2.58204,-1.21484 z m -135.85351,0.45313 c -0.58185,0.0117 -1.00148,0.71383 -1.60351,2.29688 -0.6392,1.68083 -1.66489,3.05469 -2.27929,3.05469 -2.12026,0 -4.87776,3.76864 -4.23633,5.78906 0.50123,1.5788 -0.46127,2.35219 -4.35547,3.50389 -6.64304,1.9647 -8.12208,2.77463 -9.60547,5.25783 -0.98354,1.64646 -0.7855,2.37856 0.92774,3.43554 1.1977,0.73894 3.49752,2.35077 5.11132,3.58205 l 2.93359,2.23827 -2.6582,2.00586 c -1.68989,1.27436 -2.39113,2.69967 -1.92578,3.9121 0.96788,2.52157 1.87993,2.40716 5.125,-0.64064 3.24295,-3.04578 3.37291,-4.72581 0.68555,-8.82615 -1.42454,-2.17357 -1.61574,-3.22909 -0.64454,-3.55273 2.77354,-0.92429 7.35743,-5.20513 7.35743,-6.87111 0,-0.94119 1.84586,-3.55543 4.10156,-5.81054 4.47794,-4.47676 5.02399,-6.48577 2.36328,-8.69336 -0.54023,-0.44825 -0.94775,-0.68867 -1.29688,-0.68164 z m 20.64259,1.77539 c -1.1268,0.0794 -2.8423,1.86412 -3.97851,4.70312 -1.08729,2.71669 -3.20559,5.34292 -5.10743,6.33203 -4.4185,2.29798 -8.94246,7.3159 -7.98828,8.85938 0.89745,1.45177 4.06408,0.0849 6.44335,-2.78123 0.83153,-1.00168 2.44735,-1.82228 3.58986,-1.82228 2.12184,0 8.18163,-9.96103 8.18163,-13.44923 0,-1.32206 -0.46454,-1.88943 -1.14062,-1.84179 z m -76.3418,5.41993 c -0.17126,0.005 -0.31852,0.0298 -0.43944,0.0762 -3.62548,1.39087 -1.54357,4.14478 5.56443,7.35936 6.29146,2.8453 7.58464,3.08536 9.17385,1.70314 2.41048,-2.09654 5.11886,-2.0442 6.92773,0.13476 1.76329,2.12406 3.52539,1.24967 3.52539,-1.74804 0,-4.65421 -8.72432,-7.70479 -11.71876,-4.09766 -1.93461,2.33046 -2.46121,2.25065 -7.45115,-1.13477 -2.05177,-1.39199 -4.38309,-2.32886 -5.58205,-2.29297 z m 136.57226,1.79687 c -1.02166,-0.01 -2.15487,0.82358 -2.96874,2.60938 -1.078,2.36535 -0.88127,3.84077 1.06444,7.99023 1.31264,2.79931 2.67722,6.01305 3.03126,7.14063 0.95581,3.04422 4.08006,2.48005 4.92576,-0.88868 0.47888,-1.90746 -0.007,-4.06382 -1.3867,-6.15041 -1.16832,-1.76717 -2.1491,-4.78529 -2.17969,-6.70896 -0.0409,-2.5717 -1.17278,-3.97933 -2.48633,-3.99219 z m -185.61912,1.63476 c -1.39838,-0.005 -2.51027,0.21456 -3.125,0.72462 -3.1781,2.63692 -1.14531,8.22043 2.22266,6.10546 2.6095,-1.63866 9.36486,-1.49481 11.85936,0.25196 2.98232,2.08834 6.59841,2.21755 6.5879,0.23634 -0.0155,-3.0651 -11.48527,-7.29761 -17.54492,-7.31838 z m 131.78905,1.89258 c -1.66581,0.0847 -1.93168,0.79092 -2.38477,2.5957 -1.01979,4.06215 0.18061,5.79582 2.97851,4.29884 3.17181,-1.69706 9.7673,-1.44393 13.55665,0.52147 3.20847,1.66416 5.19726,1.48144 5.19726,-0.47851 0,-2.03339 -8.23879,-5.7399 -14.4961,-6.52148 -2.34897,-0.29342 -3.85206,-0.46684 -4.85155,-0.41602 z m 96.85545,1.66016 c -1.00492,-0.0339 -2.30303,0.26573 -3.81836,1.02149 -2.60233,1.29787 -5.4796,1.61143 -10.23828,1.11717 -5.70293,-0.59234 -6.91738,-0.35417 -8.78318,1.71486 -1.191,1.3207 -1.89419,2.8404 -1.56251,3.37694 0.33169,0.53657 5.08948,0.91851 10.57423,0.84961 7.21353,-0.0905 10.80722,-0.67091 12.98826,-2.09961 4.23969,-2.77723 3.85464,-5.87886 0.83984,-5.98046 z m 30.62695,0.59373 c -0.87537,0.0887 -1.67169,0.45105 -2.08593,1.12112 -0.39831,0.64431 -2.19737,1.17187 -3.99609,1.17187 -1.79874,0 -5.45817,1.58451 -8.13282,3.52148 -4.80167,3.47742 -5.61006,4.71458 -4.08202,6.2422 1.40389,1.40354 3.50371,0.82401 5.66405,-1.56251 1.16652,-1.28864 3.37901,-2.34376 4.91603,-2.34376 4.41048,0 12.11707,-4.38673 11.32616,-6.44725 -0.4743,-1.23569 -2.15042,-1.85098 -3.60938,-1.70315 z m -85.41599,2.66408 c -1.74643,-0.0477 -2.95722,3.46898 -1.8418,6.36523 0.68261,1.77246 1.57926,4.93128 1.99218,7.0215 0.4129,2.0902 1.63149,4.31479 2.70899,4.94334 1.07747,0.62858 2.37141,1.1601 2.87499,1.17969 1.62913,0.0634 2.3652,-3.59804 0.99806,-4.96482 -0.73007,-0.72991 -1.32812,-2.45692 -1.32812,-3.83985 0,-2.66401 -3.00303,-9.44975 -4.62698,-10.45314 -0.26611,-0.16443 -0.52785,-0.24513 -0.77732,-0.25195 z m 93.02928,1.97265 c -2.98649,0 -2.58354,1.38196 1.43164,4.9043 3.00205,2.63359 3.51562,3.91731 3.51562,8.78711 0,3.26519 0.77973,6.81584 1.82422,8.30664 0.9828,1.40277 2.00145,2.23665 2.85352,2.54297 l 0,-14.58397 c -1.55658,-5.89591 -5.30492,-9.95705 -9.625,-9.95705 z m -224.00583,5.98438 c -2.78692,0.0424 -5.73644,0.58729 -7.41602,1.68751 -2.10524,1.37906 -4.28284,1.74331 -7.42968,1.24021 -3.22185,-0.51503 -4.9622,-0.20345 -6.29492,1.12893 -1.93452,1.93402 -2.37717,4.26185 -1.06056,5.57813 1.13484,1.13453 3.65831,0.95739 4.44336,-0.31252 0.37209,-0.60189 2.53342,-0.79395 4.80275,-0.42577 3.17624,0.5153 4.72276,0.11155 6.71678,-1.75587 1.63083,-1.52729 4.54341,-2.56341 7.86329,-2.79686 3.74113,-0.26308 5.27342,-0.88024 5.27342,-2.12697 0,-1.49427 -3.31523,-2.27129 -6.89842,-2.21679 z m 112.50388,0.2129 c -0.92813,0.0111 -1.96659,0.41639 -2.91601,1.27539 -1.28818,1.16549 -4.15886,1.89842 -7.42968,1.89842 -3.45351,0 -5.87802,0.66029 -6.88477,1.87306 -1.11354,1.34136 -2.70987,1.68351 -5.63477,1.20899 -4.77623,-0.77488 -7.16016,0.78284 -7.16016,4.67772 0,2.81459 2.70346,3.87414 4.10353,1.60937 0.41072,-0.66438 2.65492,-0.86494 5.16992,-0.46289 3.44532,0.55079 4.60675,0.28907 5.16601,-1.16796 0.54539,-1.42087 2.35038,-1.88087 7.40234,-1.88087 7.19529,0 10.96876,-2.0884 10.96876,-6.07422 0,-1.89815 -1.2383,-2.97552 -2.78517,-2.95701 z m -83.85741,1.08007 c -0.4828,-0.0208 -0.95215,0.16321 -1.37892,0.58984 -0.889,0.8888 -0.8566,1.99017 0.10744,3.79102 0.76674,1.43227 1.02104,4.07119 0.58398,6.06056 -0.55994,2.54867 -0.19616,4.16321 1.31445,5.83201 2.32741,2.57108 6.03107,2.43581 5.23828,-0.19139 -0.2801,-0.92822 -0.72398,-4.15386 -0.98632,-7.16799 -0.42416,-4.87312 -2.78679,-8.82393 -4.87891,-8.91405 z m 165.34373,2.09374 c -2.43634,0 -5.40146,0.71135 -6.58984,1.58009 -2.36814,1.73119 -1.56753,4.27733 1.3457,4.27733 1.0117,0 3.88212,1.84645 6.37892,4.10158 4.78142,4.3186 10.85267,5.51377 13.67381,2.69335 2.69601,-2.69529 1.4847,-4.30977 -3.50586,-4.67577 -4.44563,-0.32604 -5.00505,-0.72205 -5.89257,-4.16798 -0.88882,-3.45113 -1.39487,-3.8086 -5.41016,-3.8086 z m -228.32223,0.12891 c -1.21959,6e-4 -2.4126,0.74308 -3.89648,2.22657 -1.89627,1.89575 -3.26565,2.20911 -7.02931,1.60741 -3.71361,-0.59368 -4.67579,-0.38363 -4.67579,1.01758 0,0.97025 1.18664,2.59029 2.63673,3.60156 3.5355,2.4657 10.11276,2.52035 11.04493,0.0918 0.51193,-1.33372 1.64556,-1.6848 3.95703,-1.22264 4.27369,0.85453 5.39072,-1.96149 2.02149,-5.09959 -1.59129,-1.48191 -2.839,-2.22328 -4.0586,-2.22268 z m -32.03711,0.375 0,14.6582 c 1.504,0.55333 2.49455,-0.5432 1.84179,-3.15428 -0.44296,-1.77189 -0.95133,-5.06521 -1.1289,-7.32032 -0.11579,-1.47044 -0.36127,-2.87239 -0.71289,-4.1836 z m 239.57809,3.01171 c -3.62442,0 -3.84061,3.49937 -0.35154,5.67776 2.19882,1.37282 2.40641,2.27762 1.77343,7.66209 -0.53694,4.56724 -0.25099,6.76901 1.13282,8.74413 2.9618,4.22749 4.52952,2.39664 4.91599,-5.74022 0.55472,-11.67961 -1.57783,-16.34376 -7.4707,-16.34376 z m -105.92968,1.57621 c -2.06115,0.14308 -2.92383,2.8551 -2.92383,8.76171 0,6.34612 -0.21007,6.84877 -3.53514,8.45509 -3.76795,1.82028 -4.76574,4.25512 -3.61719,8.83008 0.89554,3.56723 3.76993,3.68577 4.81444,0.19923 0.43432,-1.44971 1.83439,-3.46268 3.11133,-4.47461 1.57265,-1.24628 2.63116,-4.08203 3.2793,-8.78712 0.52629,-3.82046 1.31427,-8.05907 1.75,-9.41993 0.56519,-1.76515 0.20519,-2.69926 -1.25584,-3.25976 -0.60741,-0.23302 -1.1474,-0.33772 -1.62307,-0.30469 z m 57.48633,1.4922 c -0.98538,-0.0303 -2.14825,0.68927 -3.16602,2.24217 -1.26346,1.92779 -1.62667,3.96815 -1.08983,6.1133 0.44313,1.77066 1.08879,4.9333 1.43553,7.02734 0.69461,4.19447 3.66318,5.14665 6.26562,2.01172 1.16456,-1.40283 1.19497,-2.77356 0.14258,-6.28517 -0.74037,-2.47049 -1.3457,-5.82494 -1.3457,-7.4531 0,-2.33884 -0.97527,-3.61731 -2.24218,-3.65626 z m -115.17186,1.89648 c -0.74553,0.049 -1.64773,0.33093 -2.67187,0.87891 -3.51794,1.88223 -3.85886,5.73367 -0.94336,10.66796 1.89455,3.20638 4.83163,4.37297 6.58789,2.61719 0.43192,-0.4318 -0.006,-1.99146 -0.97267,-3.4668 -1.41297,-2.15591 -1.49024,-3.27236 -0.38866,-5.68946 1.45811,-3.19937 0.62525,-5.15482 -1.61133,-5.0078 z m 150.45703,2.26952 c -1.06752,0.0392 -3.33236,0.79872 -8.11916,2.32618 -9.14929,2.91954 -10.2625,3.66003 -9.29687,6.17579 0.86932,2.26483 2.1775,2.27471 9.43944,0.0723 6.81519,-2.06698 8.91603,-3.61735 8.91603,-6.58009 0,-1.35184 0.12805,-2.03329 -0.93944,-1.99415 z m -53.77737,1.17775 c -2.85859,0.55432 -2.9568,2.28316 -0.37107,6.52343 2.42267,3.97294 5.18273,4.94805 6.23632,2.20313 0.9267,-2.41428 -3.60977,-9.16393 -5.86525,-8.72656 z m -81.76366,3.88084 c -0.39341,0.019 -0.81676,0.27051 -1.35936,0.72071 -1.01403,0.84137 -1.49467,2.49607 -1.13672,3.92188 0.41436,1.65049 -0.1418,2.94289 -1.68163,3.90429 -1.26598,0.7904 -2.30274,2.22453 -2.30274,3.18555 0,2.22601 2.11882,2.2114 7.53905,-0.0527 4.64121,-1.93872 4.83429,-3.70999 1.0508,-9.70119 -0.88344,-1.3989 -1.4537,-2.01023 -2.1094,-1.97851 z m -37.22654,0.85548 c -1.66307,-0.0284 -2.76584,0.58869 -4.20118,2.12889 -2.21881,2.38102 -2.77757,2.48316 -6.07615,1.11722 -2.82321,-1.16919 -3.94579,-1.19041 -5.03321,-0.0996 -1.08564,1.08897 -0.74314,1.90315 1.52929,3.63085 1.61123,1.22501 3.98446,2.44182 5.27345,2.70508 1.28897,0.26328 2.65752,0.55097 3.041,0.63867 0.3835,0.0877 1.69577,-0.943 2.91603,-2.29102 1.68428,-1.86056 3.13247,-2.30205 6.01758,-1.83398 7.25065,1.17631 5.74626,-4.29605 -1.58399,-5.76172 -0.71236,-0.14244 -1.32846,-0.22489 -1.88282,-0.23437 z m 239.44723,1.5 c -1.41464,0.0513 -3.54326,0.75582 -6.2617,2.13087 -3.40843,1.72405 -7.37558,3.13474 -8.81642,3.13474 -2.9112,0 -3.33805,1.15665 -1.21288,3.28126 3.46228,3.46138 15.95962,-0.38737 17.94921,-5.52734 0.80136,-2.07023 0.16062,-3.08543 -1.65821,-3.01953 z m -32.90234,1.75196 c -2.9509,0 -4.0921,2.02672 -2.33398,4.14452 0.77587,0.93455 1.13835,3.11877 0.80664,4.85354 -0.33178,1.73472 -0.33848,3.8471 -0.0137,4.69334 l 0.002,0 c 0.86064,2.24223 2.30211,1.8895 4.37304,-1.06642 3.32937,-4.7521 1.5625,-12.62498 -2.83398,-12.62498 z m -101.19725,0.2324 c -1.40382,0.04 -2.57276,0.65438 -4.43555,2.03124 -3.09759,2.28955 -3.9926,2.45036 -6.91015,1.24219 -4.15688,-1.72138 -6.61588,-0.58469 -4.42969,2.04882 0.83666,1.00786 3.0766,2.4865 4.97657,3.28516 3.68958,1.55094 5.91794,1.18128 9.04883,-1.49999 1.07593,-0.92146 3.44723,-1.49915 5.27148,-1.28516 2.64672,0.31046 3.31835,-0.0755 3.31835,-1.91016 0,-1.59499 -1.18305,-2.63886 -3.85938,-3.40624 -1.21166,-0.34742 -2.13816,-0.52986 -2.98046,-0.50586 z m -41.92382,1.07226 c -0.17799,-0.005 -0.3814,0.0202 -0.61132,0.0645 -2.18659,0.42099 -5.50618,10.48785 -4.6543,14.11328 0.28642,1.21895 -0.40325,2.2869 -1.75195,2.71485 -2.50979,0.79636 -2.9796,3.56076 -0.75782,4.45701 2.41048,0.97241 2.86077,0.86335 5.31836,-1.27538 1.82501,-1.58821 2.52751,-4.11596 3.11717,-11.22461 0.60293,-7.26808 0.58579,-8.81394 -0.66014,-8.8496 z m -100.82031,1.36913 c -0.12383,-0.0119 -0.22969,-0.005 -0.3164,0.0234 -2.02667,0.66598 -2.12232,4.9876 -0.14649,6.62697 1.01662,0.8435 1.81446,3.34068 1.81446,5.6797 0,2.67335 0.91508,5.1502 2.54687,6.8867 3.11197,3.3117 6.82617,3.59007 6.82617,0.51172 0,-1.20975 -0.78912,-2.85609 -1.75586,-3.6582 -1.01613,-0.84308 -1.75781,-3.39829 -1.75781,-6.05664 0,-3.47983 -0.76209,-5.3054 -3.13281,-7.50196 -1.50768,-1.39691 -3.21131,-2.4283 -4.07813,-2.51172 z m 91.62304,3.19141 c -1.15701,0.025 -3.0364,1.60109 -4.82812,4.36915 -1.5583,2.40742 -3.88702,4.53746 -5.17579,4.73243 -6.23522,0.94319 -7.61718,1.59805 -7.61718,3.61717 0,1.1765 -1.05476,3.09356 -2.34375,4.25978 -1.28898,1.1662 -2.34376,2.59828 -2.34376,3.18163 0,0.5833 1.97773,0.89725 4.39454,0.69727 3.99462,-0.33052 4.39454,-0.67633 4.39454,-3.79492 0,-2.8623 0.61127,-3.58924 3.68944,-4.39454 3.90966,-1.02284 10.95898,-8.07209 10.95898,-10.95898 0,-1.1806 -0.4347,-1.72395 -1.1289,-1.70899 z m -70.70507,1.54297 c -0.30194,-0.006 -0.56245,0.0483 -0.76561,0.17383 -1.6818,1.03914 -1.54612,4.13281 0.18164,4.13281 1.09367,0 1.09367,0.31286 0,1.40625 -0.77339,0.7732 -1.40625,2.09013 -1.40625,2.92775 0,0.83762 1.01682,1.52344 2.25975,1.52344 2.64039,0 5.94337,-2.9607 5.94337,-5.32813 0,-1.82857 -4.09926,-4.79577 -6.2129,-4.83595 z m 163.29296,0.94141 c -0.35844,0.0366 -0.82565,0.15147 -1.42187,0.32616 -1.50671,0.44149 -3.91496,0.96918 -5.35158,1.1719 -1.43662,0.20272 -3.34356,0.97639 -4.23828,1.71874 -1.24731,1.03493 -1.95568,0.95156 -3.03906,-0.35352 -0.77711,-0.93612 -2.16633,-1.41334 -3.08594,-1.06055 -2.03476,0.78062 -2.19994,5.25171 -0.26562,7.18555 1.83327,1.8328 3.96357,1.77689 7.78711,-0.20702 1.71065,-0.88763 4.69347,-2.08509 6.62696,-2.66017 2.41485,-0.71827 3.6382,-1.91542 3.91014,-3.82226 0.25849,-1.81247 0.15342,-2.40855 -0.92186,-2.29883 z m 21.916,1.02149 c -6.36783,0 -11.42968,2.29268 -11.42968,5.17578 0,2.22091 15.81447,2.22097 17.65821,0 2.68563,-3.23518 0.35119,-5.17578 -6.22853,-5.17578 z m -80.45898,1.17188 c -4.03289,0 -5.58336,1.7359 -3.64061,4.07616 0.97902,1.17934 1.00568,2.28012 0.0996,3.97266 -1.89781,3.54516 -1.50974,6.92256 1.09179,9.52342 2.76115,2.76045 3.92691,2.91246 5.72851,0.7422 1.01141,-1.21837 0.90652,-1.95387 -0.4414,-3.07226 -2.24757,-1.86482 -2.22947,-3.42237 0.0937,-8.07813 2.40878,-4.82726 1.45257,-7.16405 -2.93164,-7.16405 z m 30.18947,2.45702 c -0.62886,0.0512 -1.42313,0.87848 -2.25977,2.52148 -0.73825,1.44973 -3.26166,4.30497 -5.60742,6.34375 l -4.26564,3.70704 -3.78711,-2.32617 c -3.62659,-2.2264 -6.17382,-2.11501 -6.17382,0.26951 0,0.61578 1.71401,2.16467 3.80859,3.44143 5.78726,3.52764 9.45876,2.99203 14.89063,-2.17384 3.58115,-3.40575 4.73631,-5.40687 4.73631,-8.20116 0,-2.4289 -0.53325,-3.6478 -1.34177,-3.58204 z m -169.20898,3.55273 c -1.21353,-0.0171 -2.29222,0.71846 -2.90429,1.77149 l 0,3.91016 c 0.74904,1.47934 0.77538,2.49257 0.0332,2.95118 -0.0112,0.007 -0.0221,0.0233 -0.0332,0.0312 l 0,8.51758 c 0.9733,0.35494 2.52782,-1.01885 4.51367,-4.12698 3.02898,-4.74072 2.7433,-11.58329 -0.53711,-12.84178 -0.36312,-0.1393 -0.72353,-0.20796 -1.07227,-0.21289 z m 69.58788,0.51368 c -0.7973,-0.0272 -1.82902,1.07231 -2.76366,3.30859 -1.98669,4.75361 -4.93244,6.7393 -8.58204,5.78517 -5.40642,-1.41344 -6.73273,2.36835 -4.09765,11.68749 0.98363,3.47863 4.55836,1.85906 4.16016,-1.88476 -0.23793,-2.23693 0.29065,-3.40159 1.75782,-3.87502 8.51702,-2.74813 10.88671,-5.26662 10.88671,-11.57227 0,-2.26812 -0.56401,-3.42202 -1.36134,-3.4492 z m 59.35741,0.96093 c -0.81826,-0.1157 -1.89395,0.62289 -3.47656,2.33008 -2.80695,3.028 -3.88117,7.61926 -2.17968,9.32031 1.1505,1.15021 1.08208,1.21993 4.49804,-4.60742 2.25173,-3.8413 2.79802,-5.74909 1.9004,-6.64648 -0.2244,-0.22435 -0.46943,-0.35792 -0.7422,-0.39649 z m 168.15039,0.26758 c -0.63438,1.06914 -0.78795,2.47368 -0.10157,3.75587 0.0444,0.0831 0.0615,0.1483 0.10157,0.22851 l 0,-3.98438 z m -16.80665,0.0586 c -0.64608,-0.0655 -1.28608,0.19695 -1.8457,0.87109 -1.03849,1.25097 -1.08368,2.34212 -0.16796,4.05273 0.68919,1.28747 1.2539,3.78337 1.2539,5.54688 0,1.76349 0.87282,4.17128 1.93945,5.34961 1.06661,1.17828 2.61651,2.14258 3.44531,2.14258 2.53721,0 3.1491,-2.37655 1.17383,-4.55861 -1.02986,-1.1377 -1.87109,-3.92385 -1.87109,-6.18945 0,-3.86754 -1.9895,-7.01838 -3.92774,-7.21483 z m -234.23238,1.71874 c -0.17677,-0.005 -0.37305,0.0187 -0.59375,0.0605 -1.39177,0.26356 -2.17345,1.70222 -2.42968,4.47852 -0.23006,2.4925 -1.44366,5.00594 -3.10938,6.43359 -2.21545,1.89881 -2.87951,3.9528 -3.50196,10.83593 -0.63501,7.02239 -0.47185,8.49414 0.94532,8.49414 1.97035,0 4.28711,-5.80626 4.28711,-10.74414 0,-2.45226 0.79466,-3.72669 2.92969,-4.69922 2.64399,-1.20437 2.92968,-2.00996 2.92968,-8.26171 0,-5.21844 -0.21966,-6.56618 -1.45703,-6.59767 z m 189.55271,0.0781 c -0.38225,-0.0286 -0.76532,0.0244 -1.14452,0.16991 -1.53035,0.58711 -1.85446,1.48083 -1.23438,3.41603 0.462,1.4419 0.93039,4.53449 1.041,6.8711 0.1106,2.33659 0.91283,5.10429 1.78127,6.15038 0.86839,1.0461 2.58414,1.90235 3.81445,1.90235 2.52384,0 4.51569,-3.70848 2.37498,-4.4219 -0.76044,-0.25339 -1.3828,-2.46572 -1.3828,-4.91796 0,-4.7538 -2.57421,-8.96989 -5.25,-9.16991 z m -49.90822,2.21483 c -1.45718,0.004 -2.64059,0.75655 -3.4453,2.25979 -1.48954,2.78249 -0.64333,4.64701 2.13281,4.6992 1.08982,0.0205 3.0372,0.83595 4.32618,1.81055 l 0,-0.002 c 1.42613,1.07831 4.17898,1.63763 7.03125,1.42774 3.84125,-0.28263 4.75368,-0.82033 5.06054,-2.98047 0.3206,-2.25665 -0.15809,-2.63671 -3.33008,-2.63671 -2.03776,0 -5.04688,-1.05315 -6.68553,-2.34181 -1.90179,-1.49551 -3.63266,-2.24047 -5.08987,-2.23633 z m 76.29494,0.92581 c -2.44809,-0.0697 -4.99129,0.78282 -6.04884,2.77539 -0.76943,1.44969 -2.40326,3.34815 -3.63085,4.21874 -2.13059,1.51094 -2.1374,1.68478 -0.17775,3.84961 2.60852,2.88163 5.24889,2.38276 7.11329,-1.34374 1.02645,-2.05166 2.4199,-2.91797 4.6914,-2.91797 2.22747,0 3.36507,-0.68469 3.66407,-2.20315 0.52701,-2.67645 -2.46381,-4.28932 -5.61132,-4.37888 z m 35.0996,1.9082 c -0.63974,0.42167 -1.16211,2.54138 -1.16211,4.74218 0,2.28696 0.41127,3.55253 1.16211,3.80469 l 0,-8.54687 z m -75.57227,0.83788 c -1.31258,0.0761 -2.24184,1.03891 -1.97459,2.70896 1.55011,9.68715 2.52532,12.84631 4.38671,14.20706 2.71592,1.98543 4.57266,1.98139 6.23046,-0.0156 1.00035,-1.20503 0.7556,-2.08044 -1.02929,-3.69531 -1.43048,-1.29422 -2.33984,-3.60821 -2.33984,-5.95315 0,-2.10923 -0.85349,-4.68967 -1.89843,-5.73436 -1.10047,-1.10017 -2.35411,-1.57677 -3.37502,-1.51757 z m -118.70897,2.42577 c -1.05524,-0.10181 -1.1115,1.45813 -0.59959,7.5625 0.61761,7.365 0.4389,8.33769 -1.94142,10.5547 -1.44226,1.34334 -2.27062,3.0114 -1.84179,3.70508 1.1104,1.79621 1.89385,1.59168 4.95897,-1.2871 2.35622,-2.21299 2.71289,-3.67299 2.71289,-11.12891 0,-4.72009 -0.22071,-8.58204 -0.49023,-8.58204 -0.26954,0 -1.29849,-0.30897 -2.28515,-0.6875 -0.19283,-0.074 -0.36293,-0.12218 -0.51368,-0.13673 z m 28.98243,1.44924 c -0.70982,-0.0104 -2.15477,0.94775 -3.46289,2.33983 -1.495,1.59096 -3.21603,2.89258 -3.82422,2.89258 -0.60819,0 -2.90728,1.58268 -5.10938,3.51563 -2.20211,1.93296 -4.51466,3.51367 -5.13672,3.51367 -0.62207,0 -1.13086,0.79133 -1.13086,1.75782 0,1.29009 1.34388,1.75584 5.0508,1.75584 5.3383,0 8.97285,-1.83585 9.40038,-4.74803 0.14173,-0.96541 1.42975,-2.9282 2.86328,-4.36133 2.68133,-2.68063 3.36992,-5.50938 1.60546,-6.59961 -0.0689,-0.0426 -0.15445,-0.0649 -0.25585,-0.0664 z m -108.85547,2.89062 c -1.69088,0 -9.47883,8.42834 -11.15819,12.07618 -0.94653,2.05597 -2.34157,4.5889 -3.10157,5.62889 -0.76002,1.03997 -1.05107,2.75257 -0.64648,3.80664 0.40459,1.05404 1.41048,1.91321 2.23633,1.90821 1.70302,-0.009 6.77539,-6.95388 6.77539,-9.27734 0,-0.83997 2.20231,-3.54168 4.89453,-6.00194 4.18308,-3.82274 4.67261,-4.73883 3.3711,-6.30666 -0.83766,-1.00905 -1.9044,-1.83398 -2.37111,-1.83398 z m 152.04686,1.14649 c -0.73342,0.0137 -1.74846,0.68318 -2.80468,2.07421 -2.27409,2.99498 -1.99202,4.87197 1.40625,9.32617 2.96452,3.88569 6.24489,4.71903 7.20703,1.83007 0.26339,-0.79087 -0.90204,-2.71745 -2.58985,-4.28124 -2.3848,-2.20961 -2.89985,-3.52187 -2.30664,-5.88477 0.50596,-2.0154 0.0309,-3.08205 -0.91211,-3.06444 z m 13.01563,4.71093 c -2.44321,0 -2.73227,0.88835 -1.11524,3.44337 0.69208,1.09351 0.4639,2.85941 -0.6504,5.01365 -0.94596,1.8289 -1.4042,3.8375 -1.01755,4.4629 1.12253,1.81586 2.6385,1.33231 4.5996,-1.4668 3.15791,-4.5074 2.05637,-11.45312 -1.81641,-11.45312 z m -116.45897,0.67578 c -0.64635,0.0251 -1.25626,0.22093 -1.92382,0.57813 -3.32832,1.78077 -2.2962,5.17598 1.59375,5.24219 1.73947,0.0296 3.56076,0.45346 4.04882,0.9414 1.91241,1.91192 12.87442,-2.87968 11.53711,-5.04297 -0.34559,-0.55899 -2.23533,-0.41102 -4.19922,0.33008 -2.95317,1.1144 -4.18251,0.99689 -7.11132,-0.68358 -1.6925,-0.9711 -2.86807,-1.40702 -3.94532,-1.36525 z m 76.16209,2.09571 c -3.01039,-0.23521 -4.32774,2.81412 -1.17772,5.42773 0.96672,0.80211 1.75781,3.33705 1.75781,5.63279 0,2.67338 0.91704,5.14828 2.54882,6.88478 2.69832,2.87148 6.17017,3.54743 7.46485,1.45313 0.4278,-0.69201 -0.40008,-2.51081 -1.83985,-4.04297 -1.72742,-1.83824 -2.39347,-3.64172 -1.95899,-5.30273 0.87245,-3.33538 -1.14558,-7.53914 -4.4746,-9.32031 -0.84102,-0.44999 -1.62561,-0.67815 -2.32032,-0.73242 z m 66.88281,0.76171 c -1.98895,-0.0553 -4.42111,0.58772 -5.11328,1.82422 -0.56752,1.01384 -2.30207,2.47575 -3.85547,3.25 -1.55338,0.77426 -2.9988,2.3183 -3.21288,3.42969 -0.667,3.46257 5.29859,2.43597 10.38671,-1.78711 2.52299,-2.09403 4.59573,-4.4661 4.60743,-5.2715 0.0136,-0.93659 -1.26554,-1.40227 -2.81251,-1.4453 z m 45.76954,0.57032 c -0.46676,-0.006 -0.88136,0.20323 -1.3379,0.58203 -2.33286,1.93556 -2.25232,2.45743 1.17188,7.50195 1.61121,2.37365 2.92968,5.76943 2.92968,7.54492 0,1.77548 0.64919,3.87596 1.44141,4.66796 3.05708,3.05632 4.82899,1.02112 4.92579,-5.65625 0.0857,-5.91786 -0.26396,-6.81186 -4.30861,-10.97851 -2.5178,-2.59375 -3.79543,-3.64965 -4.82225,-3.6621 z m 32.30858,3.08008 c -1.50951,0.0845 -3.00793,0.77472 -3.72656,2.11718 -0.71051,1.32724 -2.3294,2.41405 -3.5957,2.41405 -2.57486,0 -3.03798,2.3083 -0.89454,4.45119 3.73462,3.73364 13.43458,-1.2491 12.45704,-6.39845 -0.34175,-1.80026 -2.29944,-2.69261 -4.24024,-2.58397 z m -158.20311,0.0508 c -0.2546,-0.005 -0.51063,0.004 -0.76563,0.0293 -2.75247,0.26923 -3.66591,0.99524 -3.9707,3.15039 -0.32841,2.32238 0.0139,2.69119 2.00781,2.16992 1.33389,-0.34872 3.00785,0.0997 3.76172,1.00781 1.79653,2.1641 4.48951,2.0818 5.35157,-0.16406 1.05883,-2.75862 -2.56583,-6.11369 -6.38477,-6.19336 z m 111.16015,0.0957 c -0.95183,0.0303 -2.05449,0.91997 -2.94923,2.89648 -0.61262,1.35333 -2.60509,2.75703 -4.42577,3.12109 -3.80285,0.76035 -9.58542,6.02071 -8.51759,7.74805 1.05348,1.70408 3.59728,1.41638 5.26759,-0.59572 0.80232,-0.96648 2.42379,-1.75781 3.60351,-1.75781 3.82048,0 8.15422,-2.67544 8.85547,-5.46874 0.91857,-3.65894 -0.24759,-5.9939 -1.83398,-5.94335 z m -154.14647,4.38476 c -2.32038,0 -3.46421,2.29987 -1.91406,3.84961 1.58473,1.58433 1.74016,6.69335 0.20312,6.69335 -0.60646,0 -1.42979,-0.52755 -1.82812,-1.17188 -0.91889,-1.48636 -5.27345,-1.54123 -5.27345,-0.0664 0,0.60777 1.18663,1.94253 2.63674,2.96679 3.12573,2.20786 7.81153,1.91712 9.37499,-0.58203 1.51102,-2.41529 -1.02754,-11.68945 -3.19922,-11.68945 z m 78.61913,1.37695 c -2.27589,-0.0847 -4.7098,0.59549 -5.11719,1.83594 -0.2632,0.80142 0.94195,1.99842 2.67775,2.65819 2.56238,0.97396 3.00279,1.69129 2.34372,3.81446 -0.44641,1.43823 -1.09411,3.80029 -1.43943,5.25001 -0.87007,3.65233 2.33504,3.48342 4.78321,-0.25197 2.34752,-3.58185 2.46326,-10.41118 0.20701,-12.28318 -0.77996,-0.64716 -2.08953,-0.97265 -3.45507,-1.02345 z m -115.61131,0.96486 c -5.03699,0 -0.86466,6.80163 6.45703,10.52537 2.5531,1.29847 5.83092,2.36135 7.28319,2.36135 1.45226,0 3.20472,1.05511 3.89454,2.34374 1.33835,2.50006 2.96055,3.01446 4.03319,1.27928 1.03731,-1.67793 -5.46146,-10.80351 -7.21483,-10.13085 -1.83531,0.70408 -9.893,-2.82094 -11.23243,-4.91406 -0.51538,-0.8054 -1.96374,-1.46483 -3.22069,-1.46483 z m 165.31052,1.17186 c -2.02828,0 -6.79731,6.43497 -5.68163,7.66601 0.20864,0.23024 1.96105,2.27753 3.89452,4.55078 3.98049,4.68007 3.9507,4.66828 6.73829,2.55273 3.06498,-2.32605 2.48329,-4.93342 -1.46484,-6.56836 -3.62278,-1.5002 -4.38732,-2.83889 -2.34376,-4.10155 2.04976,-1.26651 1.25984,-4.09961 -1.14258,-4.09961 z m -175.69333,0.32813 c -0.39036,0.0264 -0.79705,0.10578 -1.22071,0.24022 -2.79661,0.88739 -3.19296,3.88682 -0.64257,4.86525 0.96673,0.37087 1.75781,2.09489 1.75781,3.83008 0,1.73514 0.63286,3.78736 1.40625,4.56054 1.82199,1.82151 2.6887,1.77149 4.36523,-0.24804 0.93803,-1.12999 0.98446,-1.89314 0.14452,-2.41211 -0.67579,-0.41755 -1.2285,-2.50831 -1.2285,-4.6465 0,-3.98164 -1.84955,-6.37402 -4.58203,-6.18944 z m 87.79881,3.21288 c -1.42111,-0.0652 -3.36114,0.57211 -5.4336,1.92969 -2.56276,1.67876 -3.56698,1.74767 -7.07225,0.48046 -3.43071,-1.24022 -4.40101,-1.1994 -6.05274,0.25391 -1.27379,1.12049 -3.35615,1.51699 -5.90625,1.12501 -4.08366,-0.62769 -5.96861,0.7919 -6.0039,4.52149 -0.0146,1.54596 1.24175,1.86945 6.83398,1.75781 3.76834,-0.0753 7.62341,-0.78004 8.56836,-1.56447 1.03351,-0.85795 3.36776,-1.15781 5.85743,-0.75389 5.20106,0.84378 11.53318,-2.15493 11.53318,-5.46288 0,-1.45274 -0.9031,-2.22188 -2.32421,-2.28713 z m -132.01366,2.70121 c -0.92217,0.0676 -1.89807,0.41817 -2.79296,0.93162 l 0,6.44923 c 0.14031,-0.10006 0.28104,-0.20686 0.41992,-0.34569 0.42969,-0.42957 4.07745,-0.68439 8.10546,-0.56446 8.00321,0.23825 10.98687,-0.91188 9.87501,-3.80859 -0.51984,-1.35432 -2.2764,-1.87893 -6.32227,-1.89063 -3.08154,-0.009 -6.6877,-0.30799 -8.01367,-0.66408 -0.40061,-0.10754 -0.83009,-0.13972 -1.27149,-0.1074 z m 297.20701,0.91991 c -2.11294,1.20489 -3.77226,3.34006 -3.15235,4.95509 0.69942,1.8222 1.93791,2.37173 3.15235,1.49021 l 0,-6.4453 z M 418.8226,507.523 c -3.33226,-0.0527 -4.57031,0.75681 -4.57031,2.66211 0,0.94846 2.13214,1.82236 5.56641,2.28127 3.06133,0.40904 7.14664,1.75647 9.08007,2.99413 4.44082,2.84263 4.85041,2.87019 5.80665,0.3789 1.20822,-3.14769 -4.61988,-7.08499 -11.82029,-7.98438 -1.60791,-0.20084 -2.95177,-0.31449 -4.06253,-0.33203 z m -160.50193,1.01171 c -0.48366,0.0235 -0.91852,0.54543 -1.6875,1.58205 -1.57659,2.12531 -3.75502,2.13938 -9.17383,0.0605 -1.19532,-0.45855 -2.4057,0.50994 -3.6543,2.92382 -1.43252,2.76949 -2.6571,3.60939 -5.2578,3.60939 -4.57324,0 -7.09571,1.08653 -7.09571,3.05468 0,1.19729 1.71892,1.63085 6.45313,1.63085 5.34551,0 6.8707,-0.48018 8.89061,-2.80272 1.98238,-2.27945 3.2417,-2.69516 6.73633,-2.22657 3.36519,0.45126 4.7882,0.0337 6.55665,-1.91992 2.14784,-2.37269 2.15837,-2.59502 0.21483,-4.50975 -0.96652,-0.95222 -1.49876,-1.42587 -1.98241,-1.40236 z m 124.34959,4.66213 c -2.80912,0 -3.1645,2.59308 -0.64258,4.68555 1.00939,0.83749 1.75783,3.39134 1.75783,6 0,3.52651 0.45881,4.55378 2.05077,4.59177 1.12786,0.027 3.89665,1.0603 6.15235,2.29494 8.2963,4.54084 9.91923,1.15603 2.17578,-4.53711 -2.71352,-1.99501 -5.78768,-5.65668 -6.97266,-8.30274 -1.47799,-3.3003 -2.84741,-4.73241 -4.52149,-4.73241 z m 87.23828,0.008 c -1.96569,0.008 -3.37545,1.7384 -1.95312,4.2793 0.77359,1.38197 0.44549,3.02954 -1.10547,5.57227 -2.68568,4.40308 -2.74929,5.83532 -0.36914,8.21483 2.20294,2.20238 3.10331,2.28682 4.92773,0.4629 1.02283,-1.02264 1.03717,-1.78644 0.0605,-2.96289 -1.00699,-1.21303 -0.72385,-2.21513 1.20118,-4.26368 2.85355,-3.03668 3.162,-6.26263 0.88478,-9.26172 -1.08679,-1.43129 -2.46709,-2.04581 -3.64649,-2.04101 z m 30.15039,2.37305 c -2.3546,0.0672 -4.11275,0.89072 -5.1543,2.45899 -1.61307,2.42875 -1.76694,2.44251 -5.55078,0.48632 -2.64,-1.36485 -4.27486,-1.62924 -5.08399,-0.82032 -1.84128,1.84081 -0.32791,4.27038 3.98438,6.39454 5.41601,2.66784 9.9955,2.52601 11.53907,-0.35741 0.87195,-1.62887 2.45403,-2.34378 5.18944,-2.34378 5.3516,0 6.36966,-2.93191 1.5957,-4.59568 -2.49514,-0.8696 -4.68816,-1.27495 -6.51952,-1.22266 z m 20.55859,0.19141 c -0.63102,-0.005 -1.25456,0.53434 -1.68946,1.72265 -0.43226,1.18113 -2.01409,3.63768 -3.51562,5.45899 -2.64388,3.20697 -3.57387,7.75469 -1.92383,9.40429 1.4034,1.40303 3.28183,0.0807 3.67383,-2.58593 0.20803,-1.41514 1.68523,-3.42983 3.2832,-4.47656 0.68638,-0.4496 1.20247,-0.88695 1.60157,-1.35156 l 0,-7.16603 c -0.42084,-0.64327 -0.92657,-1.0016 -1.42969,-1.00585 z m -201.45897,0.34369 c -4.45512,-0.0652 -12.00447,1.71402 -14.09962,3.80862 -1.32628,1.32593 -2.05371,2.9899 -1.61521,3.6992 1.077,1.74217 3.12484,1.5668 5.86328,-0.50389 1.25103,-0.94601 3.91838,-1.72072 5.92772,-1.72072 4.41302,0 8.74818,-2.80331 7.03126,-4.54686 -0.48037,-0.48783 -1.62238,-0.7146 -3.10743,-0.73635 z m -97.11131,0.63086 0,7.22071 c 0.90792,-1.04292 1.1589,-2.2346 0.9707,-4.11717 -0.13491,-1.34944 -0.50155,-2.40226 -0.9707,-3.10354 z m 140.70116,1.1387 c -6.1336,0 -8.20771,4.1303 -2.69141,5.35936 12.79704,2.85124 15.92255,9.46849 6.07226,12.85351 -2.98189,1.02472 -3.91262,1.95358 -3.59571,3.59181 0.23518,1.21559 0.55431,4.05543 0.70899,6.31053 0.1547,2.25513 0.35758,4.49528 0.45118,4.97852 0.31492,1.62731 3.4287,0.8954 4.14648,-0.97461 0.39121,-1.01916 0.71094,-3.60281 0.71094,-5.74219 0,-3.26874 0.5615,-4.08567 3.51562,-5.11523 2.41358,-0.84115 3.51562,-2.00173 3.51562,-3.70509 0,-1.36451 0.54897,-3.50884 1.2207,-4.76365 0.68493,-1.27947 0.7974,-3.03848 0.25586,-4.00588 -1.37568,-2.45755 -11.68368,-8.78708 -14.31053,-8.78708 z m 86.63085,0.0214 c -2.30164,-0.0521 -5.09048,1.34508 -7.82422,4.07813 -2.25572,2.25512 -4.70807,4.11013 -5.44922,4.11913 -2.58303,0.0344 -4.35162,1.93891 -3.60546,3.88282 1.28365,3.34428 9.875,1.6008 9.875,-2.0039 0,-2.83355 4.39302,-5.74003 7.49804,-4.96093 3.40741,0.85497 5.02817,-0.99556 3.00586,-3.43166 -0.91311,-1.09994 -2.11904,-1.65233 -3.5,-1.68359 z m -187.97069,1.18751 c -1.04178,0.0301 -1.83398,0.46754 -1.83398,1.35155 0,2.90354 5.08042,6.81056 8.85547,6.81056 2.8376,0 3.91941,0.60562 4.40624,2.46679 0.95499,3.65094 3.67199,2.04202 4.10937,-2.4336 0.45303,-4.63555 -1.33362,-6.10519 -6.31445,-5.19531 -2.46853,0.45095 -4.06905,0.0782 -5.12304,-1.1914 -1.00812,-1.2144 -2.76018,-1.84731 -4.09961,-1.80859 z m 145.72656,0.36328 c -0.48209,-0.0651 -0.87967,0.0966 -1.24416,0.46094 -1.53115,1.53076 2.21646,6.99778 6.40821,9.34765 1.39598,0.78258 3.9824,1.43999 5.74609,1.46289 2.59953,0.0337 3.54404,-0.76863 4.99414,-4.23828 2.2029,-5.27097 1.50846,-6.13932 -2.85156,-3.56443 -4.5384,2.68018 -5.83393,2.52301 -9.68751,-1.16799 -1.52195,-1.45776 -2.56174,-2.19237 -3.36521,-2.30078 z m -62.78711,0.76953 c -3.52655,0 -3.67837,3.4827 -0.28517,6.55273 2.01774,1.82551 2.35857,3.17174 1.87696,7.44336 -0.32338,2.86823 -0.12635,6.42758 0.4375,7.91016 0.62643,1.64724 1.99423,2.69531 3.51758,2.69531 2.37745,0 2.47218,-0.45373 2.07813,-9.83399 -0.45463,-10.8217 -2.4909,-14.76757 -7.625,-14.76757 z m -54.29883,1.166 c -1.52293,0.0514 -3.08484,1.25974 -4.75977,3.61133 -1.96804,2.76314 -2.24465,3.92526 -1.1875,4.97852 1.0558,1.05194 1.91714,0.68738 3.67384,-1.55469 2.24834,-2.86958 2.3218,-2.88161 3.66602,-0.58592 0.75455,1.28862 2.81805,3.79257 4.58397,5.56444 4.83732,4.85365 11.59179,3.86512 11.59179,-1.69727 0,-2.61503 -1.86909,-2.74815 -3.27734,-0.23243 -1.79684,3.20994 -5.3766,1.29586 -8.43945,-4.51366 -1.99803,-3.78981 -3.89352,-5.63649 -5.85156,-5.57032 z m -38.66991,3.99025 c -0.97615,-0.0185 -2.10114,0.37363 -3.99805,1.166 -2.31673,0.96774 -4.21094,2.55475 -4.21094,3.52735 0,1.39757 1.39177,1.71843 6.64062,1.52538 7.44153,-0.27365 9.0996,-2.01886 4.67384,-4.91796 -1.30206,-0.85289 -2.12934,-1.28231 -3.10547,-1.30077 z m 66.63474,0.25584 c -1.1609,0.0556 -2.19335,1.04259 -2.19335,2.75391 0,1.13185 1.39075,3.44783 3.08985,5.14649 3.6792,3.67825 6.17797,3.88715 9.72851,0.80859 1.44719,-1.25481 3.24227,-2.50613 3.98829,-2.77929 1.00389,-0.36754 1.01871,-1.06861 0.0586,-2.69726 -1.70751,-2.89638 -4.42756,-3.33942 -6.67969,-1.08789 -2.42679,2.42616 -3.99093,2.28909 -5.47461,-0.48243 -0.63377,-1.18391 -1.61465,-1.70533 -2.51758,-1.66212 z m 89.13086,6.30275 c -5.18394,0 -9.00391,4.59057 -6.17383,7.41992 1.12943,1.12914 1.43146,1.0346 5.18946,-1.64063 3.96166,-2.82022 4.46634,-5.77929 0.98437,-5.77929 z m 95.05859,2.39843 c -0.61401,-0.0426 -1.55049,0.0698 -2.92579,0.29298 -5.41734,0.87888 -12.375,5.13028 -12.375,7.56249 0,1.02428 0.89032,2.84668 1.97853,4.04883 2.61873,2.8929 5.63866,2.19511 5.63866,-1.30274 0,-1.52464 0.79109,-3.14381 1.75781,-3.59961 5.35026,-2.52259 6.483,-3.39934 6.85743,-5.30468 0.2213,-1.12615 0.0917,-1.62622 -0.93164,-1.69727 z m -51.50781,0.20117 c -0.58555,0.0499 -1.1073,0.26368 -1.51758,0.67383 -1.19495,1.19464 -0.83121,2.00091 1.875,4.1582 2.88934,2.30328 3.17214,3.02137 2.02929,5.15625 -1.05478,1.97037 -0.9513,2.85766 0.50978,4.31837 3.61959,3.61863 8.67918,1.67746 6.53711,-2.50781 -0.59051,-1.15379 -1.53779,-3.66118 -2.10547,-5.57422 -1.05475,-3.55432 -4.79071,-6.44067 -7.32813,-6.22462 z m -222.25584,0.32617 c -1.43269,0.0988 -4.16009,0.99861 -6.39257,1.98244 l 0,7.95897 c 1.11814,-0.66432 2.39778,-1.54299 3.61327,-2.51953 4.48283,-3.60157 5.68443,-6.03625 3.60938,-7.31836 -0.1614,-0.0997 -0.44902,-0.12979 -0.83008,-0.10352 z m 30.42774,0.58985 c -1.25592,0 -1.44304,1.50686 -0.86915,6.99609 0.70772,6.76923 0.63147,7.03433 -2.36132,8.17189 -1.93719,0.73632 -3.09375,2.06126 -3.09375,3.54686 0,1.30459 0.6107,2.37111 1.35546,2.37111 2.58182,0 9.19141,-5.98732 9.19141,-8.32619 0,-4.75064 -2.65059,-12.75976 -4.22265,-12.75976 z m 31.07813,1.26563 c -0.98304,-0.013 -2.39781,1.21399 -3.73049,3.55468 -1.88297,3.30727 -2.44359,3.56363 -6.24022,2.85156 -5.11181,-0.95873 -7.50977,0.75147 -7.50977,5.35743 0,3.64271 3.04287,4.79389 4.26369,1.61328 0.39003,-1.01617 2.14179,-1.75586 4.15428,-1.75586 4.1194,0 10.33009,-5.58202 10.33009,-9.28321 0,-1.56845 -0.50304,-2.32778 -1.26758,-2.33788 z m 133.16013,0.041 c -1.61845,-0.0865 -3.14872,0.396 -4.17383,1.63086 -1.23503,1.48774 -0.88959,1.96647 2.19921,3.04296 2.74299,0.95595 3.66604,1.99085 3.66604,4.10938 0,1.91624 1.18717,3.5511 3.66992,5.06055 3.85849,2.34589 6.87693,2.086 6.87693,-0.5918 0,-0.87488 -1.05477,-2.1541 -2.34374,-2.84375 -1.28898,-0.68968 -2.34375,-2.29066 -2.34375,-3.55663 0,-3.72113 -3.99018,-6.66118 -7.55078,-6.85157 z m 98.9414,0.0781 c -1.93299,0.85029 -3.50586,1.76281 -3.50586,2.29102 0,0.53794 -1.82582,1.74116 -4.0586,2.67382 -4.04868,1.69122 -6.43183,6.12637 -4.75195,8.84376 0.50428,0.81572 2.03849,0.2117 4.30078,-1.69141 1.93461,-1.62743 4.29884,-2.95899 5.25391,-2.95899 0.50055,0 1.53504,-0.47281 2.76172,-1.20313 l 0,-7.95507 z m -279.67966,0.10938 c -0.48867,0.0133 -0.82379,0.71862 -1.41211,2.26561 -1.22869,3.23085 -7.05061,7.95509 -9.80274,7.95509 -0.93167,0 -3.90082,1.59826 -6.59961,3.55274 -0.93045,0.67384 -1.76127,1.36191 -2.50585,2.05078 l 0,8.05664 c 2.32684,-3.47788 6.39515,-6.61517 10.39648,-7.91211 6.14985,-1.99334 10.19601,-5.15248 11.91797,-9.30859 1.28543,-3.1025 1.22872,-3.89278 -0.38477,-5.50586 -0.757,-0.75681 -1.2293,-1.16462 -1.60937,-1.1543 z m 231.97067,2.01952 c -2.09595,0 -1.87609,4.28922 0.26172,5.10938 2.44356,0.93745 2.19365,3.50472 -0.58594,6.01953 -1.28898,1.16622 -2.34374,3.09442 -2.34374,4.28321 0,3.09902 2.0137,2.67082 5.94921,-1.26368 4.2677,-4.26655 4.62627,-9.6591 0.82031,-12.32421 -1.43237,-1.003 -3.27822,-1.82423 -4.10156,-1.82423 z M 300.2816,540.3863 c -2.0306,-0.0918 -4.68814,1.63675 -6.0742,4.31641 -0.91718,1.77314 -2.49273,3.90873 -3.50196,4.7461 -1.00923,0.83737 -1.83593,2.51096 -1.83593,3.7207 0,4.66642 4.92501,1.62032 11.58007,-7.16211 1.91788,-2.53095 2.4125,-4.06037 1.58202,-4.89063 -0.46743,-0.46731 -1.07313,-0.69988 -1.75,-0.73047 z m 92.37304,1.26563 c -1.94048,-0.0915 -3.61037,1.77307 -4.6504,5.39844 -0.58955,2.05515 -2.57218,4.80317 -4.40429,6.10743 -3.19135,2.27183 -4.59666,7.58357 -2.54883,9.63086 1.49155,1.49115 2.51183,0.76264 3.69922,-2.64259 0.65658,-1.88306 2.42084,-4.05516 3.92189,-4.82812 3.74279,-1.9274 9.17381,-7.12033 9.17381,-8.77147 0,-0.74607 -1.0854,-2.33875 -2.4121,-3.53908 -0.95986,-0.86843 -1.89726,-1.31387 -2.7793,-1.35547 z m 17.28514,1.18947 c -0.41702,-0.0627 -0.79186,0.58514 -1.35742,2.07224 -0.61433,1.61546 -1.99148,3.66378 -3.06053,4.55079 -3.31069,2.7469 -4.48695,5.85769 -2.9258,7.73828 1.50526,1.81327 9.31251,2.35507 9.31251,0.64649 0,-0.56918 -1.16517,-1.33848 -2.58984,-1.71094 l -2.5918,-0.67773 2.5918,-2.75782 c 2.73779,-2.91349 3.26643,-6.16317 1.46679,-9.00781 -0.33007,-0.52177 -0.59547,-0.8159 -0.84571,-0.8535 z m -89.06638,1.08983 c -1.51643,-0.0717 -2.71287,0.42494 -3.9961,1.58594 -1.35352,1.22461 -3.80821,2.0297 -5.73633,1.8828 -4.1231,-0.31408 -5.34317,1.29615 -2.86328,3.77539 2.37862,2.37804 5.68951,2.35219 9.39062,-0.0723 2.36831,-1.55138 3.50446,-1.66489 5.87306,-0.58595 3.42617,1.56067 7.51366,1.76287 7.51366,0.3711 0,-1.77483 -5.23204,-5.87753 -8.54296,-6.69923 -0.59129,-0.14673 -1.1332,-0.23391 -1.63867,-0.25779 z m 33.68163,5.83008 c -0.67114,0.0726 -1.42355,0.80195 -2.54297,2.32812 -1.34187,1.82945 -3.02013,2.89577 -3.98046,2.52736 -3.90648,-1.49869 -10.78728,6.54937 -7.99023,9.34568 0.43106,0.43094 1.72711,-0.0694 2.88085,-1.11327 1.15378,-1.04388 3.81461,-2.24885 5.9121,-2.67774 4.6271,-0.94609 9.25011,-7.5476 6.9043,-9.85937 -0.40666,-0.40076 -0.7809,-0.59436 -1.18359,-0.55078 z m 167.49218,2.99414 c -3.80757,3.51466 -5.13827,7.0907 -3.26954,9.34179 1.28202,1.54434 1.60337,1.50144 2.66211,-0.35937 0.18007,-0.31648 0.39768,-0.62753 0.60743,-0.93945 l 0,-8.04297 z m -21.17774,1.02344 c -0.94343,0.0259 -1.72865,0.37795 -2.30664,1.07422 -1.45698,1.7551 -0.5753,4.00971 1.59181,4.07031 2.68884,0.0751 6.94568,4.57859 6.18944,6.54883 -0.4029,1.04964 -0.0863,2.6877 0.70313,3.63867 1.24304,1.49739 1.71627,1.38236 3.53515,-0.86328 2.98918,-3.69051 2.60672,-5.92632 -1.7207,-10.06055 -3.07614,-2.93883 -5.91663,-4.46522 -7.99219,-4.4082 z m -51.02538,2.76173 c -1.17433,0 -1.44311,0.83972 -0.92773,2.89256 0.48583,1.9352 -0.12652,4.27129 -1.84961,7.0586 -1.41654,2.29139 -2.2768,4.94442 -1.91211,5.89453 1.18427,3.08537 4.17643,1.82887 5.99217,-2.51563 2.7551,-6.59218 2.09719,-13.33006 -1.30272,-13.33006 z m -212.5449,1.18163 c -1.36548,0.0482 -2.46732,0.43359 -2.98047,1.26367 -1.17621,1.90266 1.15784,3.65794 6.1543,4.62501 6.57966,1.2735 7.38281,1.2563 7.38281,-0.14649 0,-2.99952 -6.46022,-5.8868 -10.55664,-5.74219 z m 222.16013,0.69139 c -0.43641,-0.008 -0.88903,0.15823 -1.34571,0.53712 -1.20722,1.00166 -1.3151,1.9357 -0.41601,3.61524 0.66665,1.24532 0.88381,3.2982 0.48244,4.56248 -0.40134,1.26433 -0.39546,3.35395 0.0137,4.6426 0.94018,2.96124 2.50065,2.99011 4.06057,0.0762 2.53049,-4.72705 0.25989,-13.37583 -2.79493,-13.43361 z m -154.98827,0.41603 c -3.42171,-0.2065 -8.5703,2.49877 -8.5703,5.5078 0,1.86266 3.69032,2.10414 5.43944,0.35548 0.84742,-0.84721 1.68007,-0.66959 2.72071,0.58397 1.85089,2.2296 4.76038,2.31484 7.625,0.22071 2.85032,-2.08367 1.58476,-5.90528 -1.61914,-4.88865 -1.2379,0.39276 -2.58939,0.16465 -3.00391,-0.50587 -0.50227,-0.81248 -1.45123,-1.20461 -2.5918,-1.27344 z m -17.38865,2.46289 c -0.98208,0.0823 -2.03865,0.65334 -2.9004,1.69141 -0.80231,0.96647 -2.60637,1.75781 -4.00975,1.75781 -4.76021,0 -7.27882,5.8158 -3.95704,9.13671 0.77339,0.7732 1.58446,1.40624 1.80273,1.40624 1.58723,0 12.16616,-11.70713 11.52148,-12.74997 -0.56768,-0.91833 -1.47495,-1.32447 -2.45702,-1.2422 z m 82.09567,0.0781 c -2.78306,-0.0584 -4.26115,0.65496 -6.65038,2.94336 -3.69934,3.54327 -6.24821,10.89101 -5.06835,14.60743 1.18309,3.72665 3.34838,1.91338 4.45311,-3.72852 1.34031,-6.84512 2.39271,-7.9156 8.19531,-8.33788 3.98907,-0.29028 4.88867,-0.78748 4.88867,-2.69922 0,-1.87578 -0.90424,-2.41679 -4.53906,-2.71484 -0.45736,-0.0375 -0.88171,-0.062 -1.2793,-0.0703 z m 117.2168,1.19142 c -0.32766,0.004 -0.67804,0.0276 -1.05665,0.0644 -4.72952,0.46017 -6.06778,4.45899 -1.49219,4.45899 3.0319,0 5.4004,2.83782 5.4004,6.47072 0,1.06631 -2.37325,4.2426 -5.27344,7.06053 -2.90019,2.81795 -5.27149,5.93527 -5.27149,6.92578 0,4.38717 5.12751,1.29107 12.23633,-7.38866 4.96649,-6.06399 5.17253,-8.60226 1.12892,-13.90237 -2.18375,-2.86224 -3.37832,-3.71797 -5.67188,-3.68943 z m -228.74997,1.08984 c -1.82535,-0.14647 -1.7624,0.66333 -1.04298,6.41993 0.96367,7.71093 -0.10185,9.13289 -5.35546,7.15039 -2.91016,-1.09818 -3.75053,-0.92667 -5.87891,1.20117 -3.0767,3.07589 -1.88283,5.42566 2.30859,4.54687 1.71098,-0.35874 3.90045,-0.13331 4.8672,0.5 2.69588,1.7661 4.37425,1.42543 7.03125,-1.42579 3.24991,-3.48748 4.02274,-7.09748 2.78319,-12.99413 -0.81822,-3.89242 -1.59694,-4.97394 -3.81053,-5.28711 -0.3414,-0.0483 -0.64158,-0.0904 -0.90235,-0.11133 z m 166.07224,0.0664 c -1.19205,-0.008 -2.66749,0.0272 -4.48439,0.0957 -8.9392,0.3368 -9.08813,0.39332 -9.45311,3.56445 -0.42242,3.67021 -1.17558,3.92669 -4.38477,1.50001 -2.94115,-2.22395 -5.20508,-2.25158 -5.20508,-0.0645 0,0.95107 1.9777,2.7856 4.39454,4.07616 6.1171,3.26648 10.14817,2.73067 10.625,-1.4121 0.33291,-2.89271 0.83007,-3.22266 4.88282,-3.22266 5.68652,0 8.2207,-0.95679 8.2207,-3.10352 0,-1.00876 -1.01957,-1.41072 -4.59571,-1.43359 z m -109.62303,4.53711 c -0.95019,0 -2.59719,1.71454 -3.6582,3.80859 -3.24792,6.41024 -5.16495,7.90625 -10.13086,7.90625 -4.04322,0 -4.7711,0.43149 -5.93555,3.51563 -0.7901,2.09262 -2.17159,3.51367 -3.41406,3.51367 -3.13143,0 -2.51122,2.70781 1.13672,4.9668 4.33039,2.68159 5.49886,2.09074 5.92967,-3.00586 0.34344,-4.06313 0.59068,-4.30275 4.44727,-4.30275 4.74521,0 9.03486,-3.65472 11.6582,-9.93163 2.13877,-5.11723 2.13269,-6.4707 -0.0332,-6.4707 z m 32.34179,0 c -1.93182,0 -9.36658,7.63882 -10.60548,10.89647 -1.0689,2.81075 -1.56417,3.08165 -3.61131,1.98634 -2.98858,-1.59903 -4.32359,0.9779 -2.38479,4.59961 1.46123,2.72962 6.87931,3.33497 9.1875,1.02734 0.77339,-0.77318 1.40626,-3.04569 1.40626,-5.05078 0,-2.69227 0.91953,-4.32525 3.51564,-6.24414 3.2302,-2.38758 4.89801,-7.21484 2.49218,-7.21484 z m 134.51951,2.29103 c -2.5047,0.0247 -6.60105,1.586 -10.63281,4.3496 -3.44831,2.36366 -8.37909,4.60577 -10.95702,4.98047 -5.4913,0.79813 -5.59471,2.45967 -0.2754,4.42383 4.26178,1.57362 8.74186,0.99161 11.5,-1.49219 1.01747,-0.9163 2.44921,-1.66602 3.18163,-1.66602 2.01496,0 9.61525,-7.0397 9.61525,-8.90626 0,-1.16531 -0.92883,-1.70429 -2.43165,-1.68943 z m -258.33591,2.39647 c -0.20384,0 -0.39093,0.0118 -0.57226,0.0293 l 0,8.67576 c 0.53513,-0.4168 1.06146,-0.91865 1.69531,-1.58005 3.58167,-3.7375 3.04779,-7.12502 -1.12305,-7.12502 z m 299.42771,0.0293 c -1.5493,0.14343 -2.30639,0.92631 -2.54493,2.60546 -0.35295,2.4845 -0.83195,2.61377 -8.32812,2.23633 -7.88023,-0.39679 -11.38085,0.77783 -11.38085,3.81836 0,0.93692 3.312,1.42022 10.416,1.51951 7.82379,0.10937 9.87627,0.0176 11.8379,-1.52147 l 0,-8.65819 z m -88.37305,3.71876 c -0.90447,-0.0633 -1.78387,0.57685 -2.16992,2.05271 -0.43414,1.65974 -1.58883,2.39844 -3.74412,2.39844 -5.02487,0 -7.64845,2.02359 -7.64845,5.89846 0,3.81252 1.26141,4.42988 3.51368,1.71677 0.8023,-0.96648 3.20321,-1.7578 5.33397,-1.7578 4.79022,0 7.79953,-2.82198 7.32812,-6.87305 -0.24577,-2.1123 -1.45038,-3.35422 -2.61328,-3.43553 z m -54.2578,2.28125 c -1.54201,0.0339 -2.97486,0.43131 -4.05663,1.29099 -2.69895,2.14488 -5.769,7.38553 -4.85939,8.29493 1.47836,1.47795 3.50271,0.78324 6.25391,-2.14454 3.32728,-3.54078 5.23642,-3.68274 7.88868,-0.58592 2.54557,2.97234 5.00193,3.01491 5.00193,0.0859 0,-3.86265 -5.60251,-7.0431 -10.2285,-6.9414 z m -145.61131,3.49608 c -0.73034,-0.0461 -1.76168,1.0816 -2.95703,3.39257 -1.00922,1.95109 -3.39522,4.93754 -5.30274,6.63672 -2.46302,2.19399 -3.46875,4.16517 -3.46875,6.80079 0,2.04122 0.33787,4.04891 0.75,4.46093 1.08357,1.08328 2.76563,-0.22145 2.76563,-2.14453 0,-0.90579 1.08278,-2.22549 2.40625,-2.9336 3.47388,-1.85868 6.95984,-8.14443 6.96484,-12.56055 0.003,-2.38631 -0.42787,-3.60618 -1.1582,-3.65233 z m 44.23436,5.79882 c -4.15627,0.096 -5.95144,2.76349 -1.67186,4.71289 1.82192,0.82991 3.67319,3.3126 4.93554,6.61719 1.11115,2.90873 3.00431,6.27219 4.20704,7.47461 2.52544,2.52478 4.64646,2.77488 6.63868,0.7832 1.09008,-1.0898 0.79159,-2.07023 -1.33204,-4.39256 -1.50377,-1.64453 -3.65478,-5.49492 -4.78125,-8.55666 -1.45454,-3.95345 -2.84188,-5.76582 -4.78711,-6.25391 -1.16515,-0.29233 -2.24984,-0.4069 -3.209,-0.38476 z m 73.31641,0.0742 c -2.34457,-0.01 -5.02201,0.78373 -7.1328,2.47265 -1.90211,1.52192 0.24555,4.38672 3.28905,4.38672 1.16048,0 3.72421,1.61144 5.69531,3.58201 3.05847,3.05772 4.31535,3.531 8.58398,3.22267 4.22929,-0.30547 5.0633,-0.78597 5.39257,-3.11133 0.35653,-2.51771 0.0791,-2.68298 -3.27148,-1.94725 -4.38172,0.96214 -7.07813,-0.86598 -7.07813,-4.79689 0,-2.45924 -2.46407,-3.79634 -5.4785,-3.80858 z m -90.13865,1.01757 c -2.91698,0.0518 -6.31308,2.1295 -7.60158,5.51757 -1.71637,4.51331 0.51135,6.13197 3.96875,2.88478 1.50017,-1.40897 2.95761,-2.55965 3.2383,-2.55665 0.2807,0.002 0.53796,2.17987 0.57225,4.83984 0.0464,3.58982 0.75866,5.40066 2.76564,7.02539 5.00235,4.04963 13.24264,1.72559 11.35156,-3.20116 -0.58074,-1.51301 -1.07895,-1.61653 -2.41992,-0.5039 -0.92818,0.77009 -2.76603,1.05943 -4.08595,0.64062 -1.89145,-0.60018 -2.40038,-1.75551 -2.40038,-5.44729 0,-2.5762 -0.54574,-5.70293 -1.21289,-6.94921 -0.84751,-1.58315 -2.4256,-2.28105 -4.17578,-2.24999 z m 203.23434,2.26758 c -1.71931,0.0405 -3.55217,0.30817 -5.43556,0.8125 -4.69072,1.25609 -2.60791,4.40108 3.49221,5.27342 3.00244,0.42938 6.42428,1.34187 7.6035,2.02735 5.94953,3.4585 8.33737,-0.2108 3.36914,-5.17772 -2.0134,-2.01289 -5.2468,-3.02463 -9.02929,-2.93555 z m -142.34374,0.0586 c -1.05395,0 -3.15696,1.33846 -4.67187,2.97267 -2.43093,2.62231 -3.40902,2.89203 -8.33594,2.30076 -6.52714,-0.78331 -11.84077,2.18903 -10.43944,5.83987 0.5755,1.49935 1.47894,1.81602 3.40625,1.19723 1.44225,-0.46304 5.41293,-0.75465 8.8242,-0.64841 5.57184,0.17358 6.55523,-0.18431 9.66796,-3.51563 3.80608,-4.07336 4.58052,-8.14649 1.54884,-8.14649 z m 179.5117,0 c -1.03176,0 -2.4768,1.31889 -3.21093,2.92968 -0.73413,1.61081 -2.00307,2.92774 -2.82032,2.92774 -2.26324,0 -5.16991,3.39484 -5.16991,6.03907 0,1.29631 0.39553,2.15501 0.87892,1.90624 0.48335,-0.24872 2.82056,-1.34001 5.19334,-2.42382 4.93951,-2.25627 5.0857,-2.43463 6.18749,-7.57032 0.65433,-3.04999 0.44417,-3.80859 -1.05859,-3.80859 z m -60.04102,0.0801 c -4.88622,-0.0878 -11.74395,1.25946 -14.55859,3.33986 -1.82871,1.3517 -5.08481,2.4375 -7.30468,2.4375 -2.20291,0 -4.65615,0.78605 -5.45312,1.74609 -1.19841,1.44361 -0.97086,1.93835 1.32031,2.85547 4.49387,1.7989 7.50526,1.43052 13.68359,-1.67185 4.14632,-2.08207 7.73142,-2.92971 12.4004,-2.92971 6.86543,0 8.5105,-1.61539 4.78906,-4.70314 -0.84183,-0.69847 -2.65595,-1.03429 -4.87697,-1.07422 z m -41.66795,0.47659 c -0.45933,-0.058 -0.84406,0.10001 -1.20117,0.457 -0.95226,0.95201 -0.55848,2.09039 1.47461,4.25392 l 2.77734,2.95311 -2.61133,3.52932 c -1.43579,1.94149 -2.29212,4.0472 -1.90233,4.67773 1.19377,1.93107 2.64621,1.29837 5.17772,-2.25586 3.22526,-4.5283 3.05622,-7.78848 -0.5957,-11.43944 -1.38252,-1.38217 -2.35362,-2.07907 -3.11914,-2.17578 z m -64.18555,1.83789 c -0.72732,-0.0216 -1.05724,0.75591 -0.58788,2.23436 0.39887,1.25644 -0.0938,3.86567 -1.09375,5.79883 -2.17941,4.21341 -2.37317,10.80703 -0.37695,12.80274 0.79218,0.79199 2.21432,1.29148 3.16015,1.10937 2.1995,-0.42347 3.16548,-17.94046 1.12501,-20.39845 -0.85529,-1.03025 -1.66089,-1.53005 -2.22658,-1.54685 z m -96.44529,1.21093 c -0.7938,0.0799 -0.85918,0.72013 -0.44727,2.29492 0.4765,1.82165 -0.0642,3.22998 -1.77539,4.61524 -1.45899,1.18111 -2.1029,2.57417 -1.58009,3.41991 1.26073,2.03933 7.80225,1.09165 9.33204,-1.35157 1.6218,-2.59019 -1.24039,-8.26018 -4.48437,-8.88474 -0.43617,-0.084 -0.78033,-0.12039 -1.04492,-0.0937 z m 208.9492,6.68945 c -2.73151,-0.1071 -2.151,2.90157 1.17773,4.64062 1.88929,0.98702 4.80042,1.27048 8.20117,0.79884 6.23163,-0.86426 7.03124,-1.26308 7.03124,-3.50978 0,-1.29831 -1.58327,-1.66876 -6.73826,-1.58006 -3.70581,0.0638 -7.79112,-0.0652 -9.08009,-0.28517 -0.21169,-0.0361 -0.4097,-0.0573 -0.59179,-0.0644 z m -64.06835,0.25 c -0.79989,0.0507 -1.65308,0.83266 -2.15822,2.42384 -0.99082,3.12093 -7.25836,6.93735 -11.40038,6.94335 -3.69414,0.005 -4.38739,2.72332 -1.17188,4.5957 2.7754,1.61608 4.37359,1.55147 8.9668,-0.3672 4.751,-1.98457 7.73242,-5.97171 7.73242,-10.34178 0,-2.1764 -0.94034,-3.31914 -1.96874,-3.25391 z m -33.02149,6.28126 c -0.64816,-0.0151 -1.2478,0.19126 -1.7246,0.66797 -0.96492,0.96469 -0.94769,1.89103 0.0684,3.51756 0.79048,1.26556 1.08871,4.00059 0.69727,6.41213 -0.54606,3.36403 -0.30698,4.20702 1.19726,4.20702 2.64565,0 5.67194,-6.34509 4.75977,-9.97852 -0.68792,-2.7402 -3.05358,-4.78099 -4.99805,-4.82616 z m 71.09764,0.74803 c -1.51079,0 -0.25762,5.46186 2.08204,9.07814 3.12837,4.83533 13.36915,2.83817 13.36915,-2.60743 0,-3.62404 -2.2912,-5.04462 -4.11525,-2.55077 -1.87333,2.56129 -2.53802,2.4623 -6.64453,-0.99219 -1.91481,-1.6108 -4.02652,-2.92775 -4.69141,-2.92775 z m 92.97656,0.13476 c -0.67013,-0.0998 -1.6964,0.6375 -3.11719,2.20704 -1.1665,1.28864 -3.03612,2.34375 -4.15624,2.34375 -2.15697,0 -3.45899,2.24094 -3.45899,5.95312 0,2.81068 1.73243,2.89229 3.74219,0.17774 0.84214,-1.13747 2.97962,-2.70662 4.75196,-3.48828 2.2875,-1.00887 3.22265,-2.27817 3.22265,-4.37499 0,-1.78117 -0.31425,-2.71856 -0.98438,-2.81838 z m -16.7207,0.74611 c -2.72932,0.28859 -16.53006,10.64609 -15.68946,12.00585 0.9314,1.50666 7.69272,-0.29963 8.78907,-2.34765 0.60962,-1.13878 2.40497,-2.39519 3.99023,-2.79298 3.12487,-0.78407 5.14653,-4.93793 3.30078,-6.7832 -0.0759,-0.0759 -0.20867,-0.10126 -0.39062,-0.082 z m -257.19724,1.66209 c -1.91819,-0.0129 -3.15431,0.79092 -5.53515,3.07032 -2.04731,1.96006 -5.03175,3.73859 -6.63282,3.95312 -1.74482,0.23383 -3.85769,1.89737 -5.27343,4.15236 -0.69455,1.10626 -1.27613,1.94403 -1.80664,2.53906 l 0,5.1543 c 1.25395,-0.60014 2.49434,-1.54342 3.71484,-2.84961 2.61,-2.79329 3.78212,-3.36605 4.80468,-2.34375 2.30288,2.30227 3.97292,1.52821 7.19141,-3.33399 3.2988,-4.98352 5.39348,-5.7735 7.75586,-2.92772 1.88531,2.27109 4.57097,2.24825 5.45117,-0.0449 1.00242,-2.61161 -2.79895,-6.2338 -7.45703,-7.10745 -0.85843,-0.161 -1.57349,-0.2574 -2.21289,-0.26172 z m 222.56444,0.97071 c -3.87912,0 -13.9529,9.45108 -12.92579,12.12696 1.07655,2.80469 2.1764,2.41763 6.0996,-2.14454 1.92733,-2.24118 4.58507,-4.08561 5.90626,-4.09961 1.32121,-0.0139 2.99377,-0.617 3.71679,-1.33983 1.99763,-1.99709 0.43032,-4.54298 -2.79686,-4.54298 z M 290.0316,614.0308 c -1.22055,-0.0938 -1.30918,0.63837 -0.75584,3.4043 0.4103,2.05098 0.1827,4.78212 -0.50587,6.06838 -0.68855,1.28623 -0.91576,3.21603 -0.50391,4.28904 0.64589,1.68269 1.06177,1.55074 3.02344,-0.96874 4.51615,-5.80029 4.20573,-11.74857 -0.66405,-12.70508 -0.22203,-0.0436 -0.41938,-0.0745 -0.59377,-0.0879 z m 109.30468,1.12696 c -1.55762,0.0906 -3.78716,1.04337 -5.79296,2.70899 -1.82179,1.51278 -4.7628,3.10467 -6.53517,3.53711 -3.03925,0.74155 -4.1786,2.90975 -2.4414,4.64649 1.67718,1.67674 4.84961,0.60074 10.66406,-3.61328 3.33384,-2.41621 6.07876,-5.05201 6.09765,-5.85743 0.0246,-1.04179 -0.78071,-1.49232 -1.99218,-1.42188 z m 18.12499,1.95703 c -0.91292,-0.0257 -2.18262,0.4567 -3.59373,1.5664 -3.87854,3.05004 -3.88447,3.80346 -0.0703,8.80275 1.68292,2.20584 3.52681,3.72108 4.0996,3.36717 1.40615,-0.86883 1.32762,-6.04813 -0.10546,-6.93359 -0.72409,-0.4474 -0.62673,-1.54336 0.26367,-2.96874 1.45763,-2.33345 0.92779,-3.79115 -0.59376,-3.83399 z m -95.26366,0.4004 c -2.61272,0.0854 -5.20508,1.74588 -5.20508,4.27733 0,0.83761 1.18665,1.54007 2.63673,1.56057 1.4501,0.0205 3.66107,0.81181 4.91211,1.7578 4.57776,3.46154 14.18056,1.21015 11.02928,-2.58593 -0.70806,-0.85295 -2.73997,-1.55079 -4.51562,-1.55079 -1.77562,0 -3.88518,-0.79133 -4.68749,-1.7578 -1.0266,-1.23666 -2.60229,-1.75246 -4.16993,-1.70118 z m 150.72069,1.11522 c -3.04002,0 -3.29984,4.0579 -0.36914,5.75977 1.85933,1.07973 1.73183,1.44994 -1.36133,3.96484 -1.99527,1.6223 -3.06009,3.3401 -2.56641,4.13868 1.11014,1.79578 2.47479,1.72323 6.48047,-0.34767 7.62965,-3.94442 6.08308,-13.51562 -2.18359,-13.51562 z m -210.69724,0.24806 c -1.18259,-0.0484 -2.28592,0.42501 -4.30077,1.38086 -4.37741,2.07667 -5.50555,4.97356 -2.40235,6.16405 0.99073,0.38009 2.85226,-0.25975 4.13673,-1.42188 2.25532,-2.0405 2.50415,-2.02572 7.27929,0.39846 5.04069,2.55895 9.97803,2.50444 11.65234,-0.12696 1.66977,-2.62428 0.88661,-3.39045 -2.89844,-2.83399 -2.42069,0.35588 -5.58621,-0.30209 -8.68555,-1.80663 -2.33614,-1.13408 -3.59863,-1.70549 -4.78125,-1.75391 z m 252.35349,4.82616 c -0.25396,-0.003 -0.47521,0.0465 -0.64649,0.15235 -1.94857,1.20398 -1.46156,5.07491 0.80469,6.39453 2.46821,1.43723 4.91744,1.56488 7.31446,0.41015 l 0,-5.16406 c -1.54106,1.74171 -2.64661,1.41347 -4.80469,-0.53906 -0.85348,-0.77223 -1.90608,-1.24473 -2.66797,-1.25391 z m -203.31054,1.32424 c -0.88956,-0.073 -2.06402,1.17883 -2.95508,3.80076 -2.012,5.92039 -3.53893,6.91367 -8.09763,5.26564 -2.13993,-0.77363 -4.7661,-1.40628 -5.83594,-1.40628 -2.10041,0 -3.89895,4.88733 -2.58205,7.0176 0.57898,0.93652 1.25815,0.91728 2.45313,-0.0742 1.26566,-1.05016 2.48667,-1.02669 5.22071,0.10548 6.37187,2.63864 12.25172,-2.12415 13.04101,-10.56445 0.25011,-2.67452 -0.35457,-4.07154 -1.24415,-4.14453 z m 62.84181,1.04492 c -0.92506,-0.11513 -0.90036,1.24341 -0.42384,4.22265 0.5058,3.16227 0.30744,5.58774 -0.53905,6.6074 -0.73559,0.88613 -1.00416,2.93555 -0.59767,4.5547 1.0603,4.2235 2.48585,3.65369 5.27736,-2.11133 2.98275,-6.15993 3.0565,-8.11657 0.39648,-10.40039 -2.10008,-1.80304 -3.3938,-2.7835 -4.11328,-2.87303 z m 118.90038,0.0684 c -0.74795,-0.0394 -1.43228,0.21574 -2.07618,0.75 -2.5588,2.12307 -2.05839,4.63863 0.85938,4.31835 1.91352,-0.21002 3.74665,1.42159 7.41016,6.59766 2.6771,3.78238 6.14708,7.58509 7.71093,8.45117 3.37248,1.86778 10.45898,2.17203 10.45898,0.44922 0,-0.66456 -0.92292,-1.50486 -2.05078,-1.86718 -7.16441,-2.30166 -9.0339,-3.70224 -13.28125,-9.95509 -3.97657,-5.85424 -6.78738,-8.62585 -9.03124,-8.74413 z m -137.0996,0.81443 c -0.83206,-0.0581 -1.41602,1.48099 -1.41602,4.49026 0,2.53924 -0.52738,4.94356 -1.17187,5.34176 -1.52679,0.94339 -1.49751,4.81778 0.0586,7.72464 1.483,2.77027 3.45703,1.87906 3.45703,-1.56054 0,-1.36596 0.57453,-4.10334 1.27736,-6.08205 0.90987,-2.56138 0.91842,-4.5247 0.0293,-6.81836 -0.79025,-2.0385 -1.58724,-3.05047 -2.23439,-3.09571 z m 91.64062,2.09378 c -0.77316,-0.0504 -1.62346,1.00551 -2.20899,3.33788 -1.16391,4.6362 -2.80114,6.15819 -6.62306,6.15819 -3.62302,0 -4.22279,1.02196 -1.93943,3.30468 0.78745,0.78727 2.23776,1.0766 3.22265,0.64259 0.98486,-0.43402 2.87183,-0.8774 4.19335,-0.98437 4.15967,-0.33649 5.21485,-1.77789 5.21485,-7.13281 0,-3.36653 -0.86534,-5.26137 -1.85937,-5.32616 z m -167.88281,3.98436 c -1.04904,-0.0222 -2.28201,1.14578 -5.00974,4.21875 -3.02495,3.40779 -4.53322,6.22824 -4.53322,8.47266 0,1.85007 0.39555,3.3434 0.87892,3.32033 1.74481,-0.0836 6.97932,-5.31887 9.47264,-9.47462 2.34026,-3.90061 2.39086,-4.37566 0.63088,-5.83594 -0.52394,-0.43472 -0.96261,-0.6911 -1.43948,-0.70118 z m -24.62302,0.9668 c -2.51682,-0.0232 -4.0676,0.91606 -7.3047,4.07617 -4.28876,4.18678 -4.64747,4.31494 -7.75392,2.75975 -1.79143,-0.89683 -3.65334,-1.82312 -4.13671,-2.05858 -2.1344,-1.03967 -0.61833,3.33202 1.72461,4.97264 4.05329,2.8383 8.27001,2.2457 12.04297,-1.6914 2.44385,-2.55016 4.45671,-3.51367 7.33595,-3.51367 3.1458,0 3.88806,-0.42545 3.58008,-2.05077 -0.25982,-1.37123 -1.6969,-2.17638 -4.3418,-2.42969 -0.40667,-0.0389 -0.78695,-0.0611 -1.14648,-0.0646 z m 228.63278,1.02931 c -4.14235,0 -3.87963,1.5899 1.1035,6.666 5.43009,5.53142 7.98439,6.367 7.98439,2.61523 0,-3.05223 -6.0991,-9.28123 -9.08789,-9.28123 z M 334.1898,638.5289 c -1.79142,0.0454 -3.24722,0.42159 -3.72069,1.1875 -0.39833,0.64433 -1.90728,1.17188 -3.35158,1.17188 -4.69525,0 -7.17746,4.82136 -4.07812,7.91992 1.75918,1.75872 3.32813,0.75435 3.32813,-2.13087 0,-2.67143 0.40256,-2.76312 3.60156,-0.81054 2.04387,1.24755 2.65274,1.12533 4.10547,-0.83398 1.50738,-2.03304 2.1387,-2.13648 5.44531,-0.88867 5.13015,1.9359 7.28944,-0.17372 3.41602,-3.3379 -1.84405,-1.5064 -5.76039,-2.35304 -8.7461,-2.27734 z m 129.53319,0.19335 c -0.66113,0.0125 -1.40668,0.18707 -2.33008,0.51174 -4.06442,1.42899 -5.33526,5.84725 -1.38476,4.81445 1.917,-0.50117 3.25152,0.0931 4.88867,2.17382 1.91471,2.43355 2.62446,2.66056 4.74609,1.52538 2.10119,-1.12422 2.7585,-0.9376 4.16211,1.1758 2.12038,3.1926 4.89648,3.24179 4.89648,0.0879 0,-4.44676 -2.19916,-6.95116 -6.10155,-6.95116 -2.02116,0 -4.65542,-0.88671 -5.85352,-1.97072 -1.05572,-0.95514 -1.92153,-1.38802 -3.02344,-1.36717 z m -65.68358,0.91992 c -2.76647,0.0423 -2.48628,2.82456 1.89063,6.88477 2.5891,2.40178 5.00276,5.92201 5.4375,7.92969 0.58533,2.70322 2.01951,4.24528 5.71092,6.13477 5.93595,3.03841 5.99822,3.04325 7.9668,0.67186 1.32883,-1.60071 1.22705,-2.1303 -0.66797,-3.51561 -1.2267,-0.89675 -2.9274,-1.6289 -3.7793,-1.6289 -0.85188,0 -2.93255,-2.92455 -4.625,-6.49806 -1.93596,-4.08777 -4.2984,-7.12964 -6.37109,-8.20116 -2.41773,-1.24995 -4.30501,-1.79659 -5.56249,-1.77736 z m 24.17577,2.04101 c -3.60551,0.0417 -4.01157,2.49963 -0.28514,3.91604 3.07501,1.16882 3.15759,1.4263 2.42382,7.66798 -0.44729,3.80467 -0.25501,7.40383 0.46874,8.75585 1.42066,2.6538 7.00586,3.18329 7.00586,0.66405 0,-0.89754 -0.73261,-1.91396 -1.6289,-2.25781 -1.24626,-0.4781 -1.49011,-2.37579 -1.03321,-8.06641 0.6647,-8.2783 -0.4702,-10.23475 -6.18748,-10.6543 -0.26856,-0.0197 -0.52332,-0.0282 -0.76369,-0.0254 z m -36,0.37696 c -0.65076,0 -0.75853,5.82137 -0.20312,11.04688 0.0637,0.59929 2.56306,3.367 5.55273,6.1504 5.95577,5.54484 7.16443,6.0068 8.25783,3.15821 0.49398,-1.287 -0.83015,-3.34274 -4.09376,-6.35548 -2.65309,-2.44913 -5.1797,-5.94143 -5.61523,-7.76171 -0.83356,-3.48374 -2.55501,-6.2383 -3.89845,-6.2383 z m -90.63866,5.9297 c -1.8025,0.0318 -3.59939,0.55457 -5.01758,1.59375 -1.33646,0.97934 -3.60464,1.40242 -5.49803,1.02539 -2.43545,-0.48495 -3.22266,-0.18587 -3.22266,1.2246 0,1.02646 1.45032,2.65398 3.22266,3.61525 4.12409,2.23675 5.524,2.25253 7.32422,0.084 1.88891,-2.27535 4.56377,-2.23205 7.15818,0.11523 4.19944,3.79945 6.29994,-1.30464 2.2168,-5.38671 -1.53951,-1.53912 -3.86609,-2.31234 -6.18359,-2.27148 z m 14.25195,0.29687 c -1.10041,-0.085 -1.30527,1.32675 -0.33985,4.04689 0.92831,2.61543 0.72181,3.53744 -1.13865,5.05859 -1.25927,1.02956 -1.90126,2.46932 -1.43556,3.22265 1.22209,1.97687 8.36394,1.66937 10.11132,-0.43555 1.76899,-2.13094 0.16783,-5.87776 -4.30857,-10.08203 -1.24601,-1.17025 -2.22845,-1.75952 -2.88869,-1.81055 z m -53.81052,0.80274 c -2.39374,0 -3.17613,2.8359 -1.13087,4.0996 1.83289,1.13249 1.37282,5.2715 -0.58594,5.2715 -0.96675,0 -1.75781,0.79132 -1.75781,1.7578 0,2.12565 4.77523,2.37269 6.79686,0.35156 3.14796,-3.14713 0.73641,-11.48046 -3.32224,-11.48046 z m -31.56837,0.70704 c -0.58182,-0.0298 -1.40309,0.3147 -2.40234,0.94725 l 0,5.58008 c 1.95484,-1.9678 3.54492,-4.08497 3.54492,-4.73242 0,-1.1612 -0.39139,-1.75643 -1.14258,-1.79491 z m 17.77539,0.74804 c -0.79453,-0.0866 -1.39844,1.12713 -1.39844,3.68946 0,2.29323 -1.05328,5.89624 -2.33984,8.00585 -2.62164,4.29875 -2.91983,7.02091 -1.13477,10.35546 1.90564,3.5598 3.47461,2.66244 3.47461,-1.98828 0,-2.34015 1.11896,-6.06623 2.48828,-8.28126 1.98213,-3.20635 2.27721,-4.769 1.44726,-7.66211 -0.75875,-2.64494 -1.74257,-4.03256 -2.5371,-4.11912 z m 279.82224,0.18553 c -1.15449,0.72777 -2.55559,1.85833 -4.22852,3.46095 -4.58205,4.38953 -5.32591,5.69934 -4.68359,8.25781 0.94862,3.77868 2.78967,3.91352 4.16211,0.30469 0.57239,-1.50509 2.66859,-4.36443 4.6582,-6.35351 0.0326,-0.0326 0.0596,-0.0651 0.0918,-0.0977 l 0,-5.57227 z m -176.22459,2.15223 c -3.36962,0.11531 -6.97191,0.70036 -8.46094,1.67576 -3.41537,2.23726 -3.46145,3.18769 -0.35937,7.54298 2.79583,3.92541 4.59764,3.49356 4.59764,-1.10351 0,-2.9804 0.28577,-3.15785 4.46095,-2.75978 4.43899,0.42322 8.24273,-1.92264 6.82812,-4.21092 -0.55966,-0.90529 -3.69678,-1.25984 -7.0664,-1.14453 z m 151.11326,0.40625 c -0.66031,0.0286 -1.53665,0.73687 -2.51171,2.2246 -1.13936,1.73845 -3.2896,3.62395 -4.77735,4.18944 -1.9973,0.7592 -2.90586,2.28781 -3.47461,5.84377 -0.5876,3.67369 -1.21767,4.68851 -2.65625,4.27929 -1.03725,-0.29509 -2.64577,-0.73109 -3.57422,-0.9707 -3.24923,-0.83862 -2.64983,3.46259 0.73828,5.29882 6.44588,3.49346 9.73829,1.71178 9.73829,-5.26952 0,-3.71658 0.47941,-4.50303 3.3457,-5.50196 2.46959,-0.86068 3.5459,-2.17556 4.11524,-5.02148 0.65587,-3.27845 0.15714,-5.11996 -0.94337,-5.07226 z m -34.625,1.0078 c -0.95885,-0.0456 -1.87029,0.25949 -3.16407,0.89455 -4.17758,2.05057 -6.01732,5.1179 -4.17578,6.95897 1.09976,1.09948 1.92833,0.94218 3.75978,-0.71483 1.9235,-1.74031 2.67179,-1.85743 4.1289,-0.64846 2.41012,1.99972 2.239,4.27015 -0.67774,8.98829 -1.35164,2.18645 -2.14572,4.78984 -1.76367,5.78515 0.0894,0.23325 0.23139,0.43735 0.40235,0.6211 l 4.69142,0 c 1.06071,-0.92737 1.93652,-2.74203 3.08787,-6.15819 2.71845,-8.06599 1.94001,-12.04648 -2.83984,-14.51759 -1.48361,-0.76702 -2.49038,-1.16343 -3.44922,-1.20899 z m -191.6406,0.67383 c -1.0977,-0.088 -1.72069,0.39174 -1.72069,1.48632 0,0.83004 2.40233,3.51588 5.33984,5.97072 4.49857,3.75934 5.23833,4.95366 4.68945,7.57032 -0.6299,3.00282 -0.13723,4.57282 2.17968,6.18358 l 7.625,0 c -0.26922,-0.87916 -1.19569,-1.92345 -2.29883,-2.51367 -1.91289,-1.02349 -2.24445,-2.02089 -1.67772,-5.04103 0.64765,-3.4514 0.19747,-4.17813 -5.39062,-8.72265 -3.7707,-3.06651 -6.91661,-4.78695 -8.74611,-4.93359 z m 105.27928,2.38868 c -1.57165,0.0529 -2.80965,0.73817 -3.22265,2.03906 -1.08408,3.41475 0.0574,9.50564 2.23046,11.90625 1.10956,1.22571 2.75787,1.94333 3.66406,1.5957 2.1688,-0.83204 2.1066,-4.39965 -0.10937,-6.2383 -2.72198,-2.25843 -2.09369,-3.5156 1.75781,-3.5156 4.16767,0 4.5087,-1.51336 0.91015,-4.03321 -1.75359,-1.22793 -3.65879,-1.80682 -5.23046,-1.7539 z m -10.25976,4.61719 c -1.03177,0 -2.42491,1.20747 -3.09766,2.68359 -0.67274,1.47613 -2.37102,3.18872 -3.77342,3.80663 -1.66557,0.73388 -2.78364,2.54632 -3.22268,5.22461 -0.14293,0.87204 -0.33341,1.69401 -0.54492,2.49024 l 4.16017,0 c 0.16188,-1.92694 0.95332,-2.92435 2.78124,-3.61916 3.3227,-1.26294 3.68454,-1.77654 4.75781,-6.77928 0.65433,-3.05002 0.44222,-3.80663 -1.06054,-3.80663 z m 82.55272,0.50976 c -0.74747,0.0448 -1.63486,0.39604 -2.58985,1.09179 -1.48032,1.07847 -5.19647,3.57593 -8.25781,5.55078 -5.44231,3.51087 -6.31021,4.59839 -4.84179,6.0664 2.46411,2.46349 17.0414,-4.88586 17.83204,-8.99022 0.4693,-2.43633 -0.49813,-3.81729 -2.14259,-3.71875 z m -45.63867,4.23827 c -1.37051,-0.007 -2.7244,0.67038 -3.54492,2.20313 -0.66716,1.24626 -1.21289,3.93818 -1.21289,5.98244 0,0.49633 -0.0127,0.90368 -0.0351,1.27147 l 4.70704,0 c 0.003,-0.10537 0.0156,-0.20304 0.0156,-0.31054 0,-2.97663 0.35614,-3.39631 2.34375,-2.76563 1.77247,0.56241 2.34374,0.20919 2.34374,-1.44531 0,-3.01255 -2.33299,-4.92371 -4.61718,-4.93556 z m 119.40234,0.29101 c -0.76909,0.0195 -1.64044,0.85957 -2.30664,2.61134 -1.03047,2.70961 -1.65442,3.04188 -4.40233,2.33984 -1.7606,-0.44976 -4.78139,-0.90533 -6.71486,-1.0117 -2.85609,-0.15704 -3.58905,0.3166 -3.90234,2.52731 -0.11831,0.83479 -0.12102,1.81616 -0.0449,2.69924 l 3.37696,0 c 0.08,-1.05904 0.68754,-1.26869 2.03319,-0.69336 0.65606,0.2805 1.30566,0.50143 1.94922,0.69336 l 7.98438,0 c 0.79089,-0.31373 1.49561,-0.72446 2.06836,-1.24609 l 0,-7.91407 c -0.0139,-1.9e-4 -0.027,-0.006 -0.041,-0.006 z m -299.95895,0.002 0,7.93359 c 1.1256,-1.01641 1.7871,-2.41315 1.7871,-4.12693 0,-2.48304 -0.80807,-3.81161 -1.7871,-3.80666 z m 41.66795,0.92578 c -0.94135,0.0982 -1.95709,1.06469 -2.78123,2.87307 -0.67344,1.47762 -1.09648,3.4927 -1.25781,5.36521 l 14.59766,0 c -0.33646,-0.42982 -1.32918,-0.89463 -3.19923,-1.67578 -2.33382,-0.97489 -4.59369,-2.8752 -5.02149,-4.22265 -0.52926,-1.66719 -1.39651,-2.43804 -2.3379,-2.33985 z m 52.08203,0.36524 c -3.82614,-0.0558 -8.73501,0.81198 -11.18945,2.47265 -1.88868,1.27787 -4.48588,2.61052 -5.77147,2.96095 -1.23678,0.33711 -2.40298,1.41588 -2.67189,2.43944 l 12.57812,0 c 0.0137,-0.0558 0.0295,-0.0965 0.043,-0.1543 0.58967,-2.51989 1.48465,-3.00277 6.49608,-3.5078 4.12495,-0.4157 5.81249,-1.09667 5.81249,-2.34376 0,-1.22153 -2.32098,-1.82376 -5.29685,-1.86718 z m 20.18555,0.46875 c -0.4181,-0.0335 -0.71045,0.0384 -0.83398,0.23828 -1.21515,1.96561 0.44128,5.35531 3.39453,7.16601 l 9.74413,0 c -1.12103,-2.29279 -9.50886,-7.18006 -12.30468,-7.40429 z m 83.55273,4.85546 c -2.73,-0.0433 -5.28416,0.89332 -6.14257,2.54883 l 12.69725,0 c -0.28548,-0.281 -0.57516,-0.54208 -0.86524,-0.76172 -1.57635,-1.19361 -3.67769,-1.75516 -5.68944,-1.78711 z"
       id="use4153" />
  </g>
</svg>
