<?xml version="1.0" standalone="no"?>
<svg xmlns:xlink="http://www.w3.org/1999/xlink" id="wave" style="transform:rotate(180deg); transition: 0.3s" viewBox="0 0 1440 490" version="1.1" xmlns="http://www.w3.org/2000/svg"><defs><linearGradient id="sw-gradient-0" x1="0" x2="0" y1="1" y2="0"><stop stop-color="rgba(30, 19, 42, 0.64)" offset="0%"/><stop stop-color="rgba(128, 188, 216, 1)" offset="100%"/></linearGradient></defs><path style="transform:translate(0, 0px); opacity:1" fill="url(#sw-gradient-0)" d="M0,196L26.7,228.7C53.3,261,107,327,160,343C213.3,359,267,327,320,285.8C373.3,245,427,196,480,163.3C533.3,131,587,114,640,147C693.3,180,747,261,800,261.3C853.3,261,907,180,960,122.5C1013.3,65,1067,33,1120,40.8C1173.3,49,1227,98,1280,130.7C1333.3,163,1387,180,1440,187.8C1493.3,196,1547,196,1600,163.3C1653.3,131,1707,65,1760,32.7C1813.3,0,1867,0,1920,65.3C1973.3,131,2027,261,2080,334.8C2133.3,408,2187,425,2240,424.7C2293.3,425,2347,408,2400,383.8C2453.3,359,2507,327,2560,294C2613.3,261,2667,229,2720,220.5C2773.3,212,2827,229,2880,196C2933.3,163,2987,82,3040,65.3C3093.3,49,3147,98,3200,171.5C3253.3,245,3307,343,3360,375.7C3413.3,408,3467,376,3520,318.5C3573.3,261,3627,180,3680,196C3733.3,212,3787,327,3813,383.8L3840,441L3840,490L3813.3,490C3786.7,490,3733,490,3680,490C3626.7,490,3573,490,3520,490C3466.7,490,3413,490,3360,490C3306.7,490,3253,490,3200,490C3146.7,490,3093,490,3040,490C2986.7,490,2933,490,2880,490C2826.7,490,2773,490,2720,490C2666.7,490,2613,490,2560,490C2506.7,490,2453,490,2400,490C2346.7,490,2293,490,2240,490C2186.7,490,2133,490,2080,490C2026.7,490,1973,490,1920,490C1866.7,490,1813,490,1760,490C1706.7,490,1653,490,1600,490C1546.7,490,1493,490,1440,490C1386.7,490,1333,490,1280,490C1226.7,490,1173,490,1120,490C1066.7,490,1013,490,960,490C906.7,490,853,490,800,490C746.7,490,693,490,640,490C586.7,490,533,490,480,490C426.7,490,373,490,320,490C266.7,490,213,490,160,490C106.7,490,53,490,27,490L0,490Z"/><defs><linearGradient id="sw-gradient-1" x1="0" x2="0" y1="1" y2="0"><stop stop-color="rgba(11, 114, 182, 0.77)" offset="0%"/><stop stop-color="rgba(238, 174, 202, 1)" offset="100%"/></linearGradient></defs><path style="transform:translate(0, 50px); opacity:0.9" fill="url(#sw-gradient-1)" d="M0,392L26.7,351.2C53.3,310,107,229,160,196C213.3,163,267,180,320,196C373.3,212,427,229,480,212.3C533.3,196,587,147,640,147C693.3,147,747,196,800,220.5C853.3,245,907,245,960,204.2C1013.3,163,1067,82,1120,81.7C1173.3,82,1227,163,1280,187.8C1333.3,212,1387,180,1440,179.7C1493.3,180,1547,212,1600,220.5C1653.3,229,1707,212,1760,212.3C1813.3,212,1867,229,1920,228.7C1973.3,229,2027,212,2080,179.7C2133.3,147,2187,98,2240,73.5C2293.3,49,2347,49,2400,49C2453.3,49,2507,49,2560,40.8C2613.3,33,2667,16,2720,40.8C2773.3,65,2827,131,2880,147C2933.3,163,2987,131,3040,122.5C3093.3,114,3147,131,3200,147C3253.3,163,3307,180,3360,171.5C3413.3,163,3467,131,3520,163.3C3573.3,196,3627,294,3680,277.7C3733.3,261,3787,131,3813,65.3L3840,0L3840,490L3813.3,490C3786.7,490,3733,490,3680,490C3626.7,490,3573,490,3520,490C3466.7,490,3413,490,3360,490C3306.7,490,3253,490,3200,490C3146.7,490,3093,490,3040,490C2986.7,490,2933,490,2880,490C2826.7,490,2773,490,2720,490C2666.7,490,2613,490,2560,490C2506.7,490,2453,490,2400,490C2346.7,490,2293,490,2240,490C2186.7,490,2133,490,2080,490C2026.7,490,1973,490,1920,490C1866.7,490,1813,490,1760,490C1706.7,490,1653,490,1600,490C1546.7,490,1493,490,1440,490C1386.7,490,1333,490,1280,490C1226.7,490,1173,490,1120,490C1066.7,490,1013,490,960,490C906.7,490,853,490,800,490C746.7,490,693,490,640,490C586.7,490,533,490,480,490C426.7,490,373,490,320,490C266.7,490,213,490,160,490C106.7,490,53,490,27,490L0,490Z"/></svg>