<svg width="480" height="1440" xmlns="http://www.w3.org/2000/svg" xmlns:svg="http://www.w3.org/2000/svg">
    <defs>
     <linearGradient y2="0" y1="1" x2="0" x1="0" id="sw-gradient-0">
      <stop offset="0%" stop-color="#1D6187"/>
      <stop offset="100%" stop-color="#3C3C60"/>
     </linearGradient>
    </defs>
    <defs>
     <linearGradient y2="0" y1="1" x2="0" x1="0" id="sw-gradient-1">
      <stop offset="0%" stop-color="#EEAECA"/>
      <stop offset="100%" stop-color="rgba(11, 114, 182, 1)"/>
     </linearGradient>
    </defs>
    <g stroke="null">
     <title>Layer 1</title>
     <g stroke="null" id="svg_3">
      <path id="svg_1" d="m258.009231,-131.470041l-28.679697,12.242127c-28.328875,12.196276 -86.214501,36.818082 -100.247381,61.118933c-14.032879,24.438403 14.032879,49.060208 50.167543,73.361059c35.783842,24.438403 78.759534,49.060208 107.439231,73.361059c28.328875,24.438403 43.238809,49.060208 14.295996,73.361059c-28.942813,24.438403 -99.984264,49.060208 -100.247381,73.361059c0.263116,24.438403 71.304567,49.060208 121.735227,73.361059c50.43066,24.438403 78.496418,49.060208 71.655389,73.361059c-7.191851,24.438403 -50.167543,49.060208 -78.84724,73.361059c-28.328875,24.438403 -43.238809,49.060208 -50.079838,73.361059c-7.191851,24.438403 -7.191851,49.060208 21.487846,73.361059c28.328875,24.438403 86.214501,49.060208 114.543376,73.361059c28.679697,24.438403 28.679697,49.060208 -28.591991,73.361059c-57.62251,24.438403 -171.639653,49.060208 -236.366309,73.361059c-64.200422,24.438403 -79.110356,49.060208 -78.84724,73.361059c-0.263116,24.438403 14.646818,49.060208 35.871547,73.361059c21.750963,24.438403 49.816721,49.060208 78.759534,73.361059c28.942813,24.438403 57.008572,49.060208 64.463539,73.361059c7.454967,24.438403 -7.454967,49.060208 21.487846,73.361059c28.942813,24.438403 99.984264,49.060208 114.631082,73.361059c14.295996,24.438403 -28.679697,49.060208 -93.143235,73.361059c-64.463539,24.438403 -150.414924,49.060208 -179.09462,73.361059c-28.328875,24.438403 -0.263116,49.060208 50.167543,73.361059c50.43066,24.438403 121.47211,49.060208 107.439231,73.361059c-14.032879,24.438403 -114.894198,49.060208 -164.710919,60.981381l-50.167543,12.379679l-42.975692,0l0,-12.242127c0,-12.196276 0,-36.818082 0,-61.118933c0,-24.438403 0,-49.060208 0,-73.361059c0,-24.438403 0,-49.060208 0,-73.361059c0,-24.438403 0,-49.060208 0,-73.361059c0,-24.438403 0,-49.060208 0,-73.361059c0,-24.438403 0,-49.060208 0,-73.361059c0,-24.438403 0,-49.060208 0,-73.361059c0,-24.438403 0,-49.060208 0,-73.361059c0,-24.438403 0,-49.060208 0,-73.361059c0,-24.438403 0,-49.060208 0,-73.361059c0,-24.438403 0,-49.060208 0,-73.361059c0,-24.438403 0,-49.060208 0,-73.361059c0,-24.438403 0,-49.060208 0,-73.361059c0,-24.438403 0,-49.060208 0,-73.361059c0,-24.438403 0,-49.060208 0,-73.361059c0,-24.438403 0,-49.060208 0,-73.361059c0,-24.438403 0,-49.060208 0,-73.361059c0,-24.438403 0,-49.060208 0,-73.361059c0,-24.438403 0,-49.060208 0,-73.361059c0,-24.438403 0,-49.060208 0,-73.361059c0,-24.438403 0,-49.060208 0,-73.361059c0,-24.438403 0,-49.060208 0,-73.361059c0,-24.438403 0,-49.060208 0,-73.361059c0,-24.438403 0,-49.060208 0,-60.981381l0,-12.379679l257.854155,0l0.000001,0z" fill="url(#sw-gradient-0)"/>
      <path id="svg_2" opacity="0.9" d="m53.78366,-91.365292l22.402115,11.729754c22.621744,11.685823 67.096531,35.277127 85.215889,58.560909c18.119358,23.415577 8.785143,47.006881 0,70.290663c-8.785143,23.415577 -18.119358,47.006881 -8.949865,70.290663c8.949865,23.415577 35.854366,47.006881 35.854366,70.290663c0,23.415577 -26.904501,47.006881 -40.356752,70.290663c-13.452251,23.415577 -13.452251,47.006881 8.949865,70.290663c22.621744,23.415577 67.096531,47.006881 67.261253,70.290663c-0.164721,23.415577 -44.639509,47.006881 -58.256481,70.290663c-13.287529,23.415577 4.282757,47.006881 4.447479,70.290663c-0.164721,23.415577 -17.735008,47.006881 -22.402115,70.290663c-4.667107,23.415577 4.667107,47.006881 4.502386,70.290663c0.164721,23.415577 -9.169493,47.006881 -9.004772,70.290663c-0.164721,23.415577 9.169493,47.006881 26.904501,70.290663c17.954636,23.415577 44.859138,47.006881 58.311388,70.290663c13.452251,23.415577 13.452251,47.006881 13.452251,70.290663c0,23.415577 0,47.006881 4.502386,70.290663c4.282757,23.415577 13.616972,47.006881 0,70.290663c-13.287529,23.415577 -49.526245,47.006881 -58.311388,70.290663c-8.785143,23.415577 8.785143,47.006881 13.452251,70.290663c4.667107,23.415577 -4.667107,47.006881 -13.452251,70.290663c-8.785143,23.415577 -18.119358,47.006881 -13.452251,70.290663c4.667107,23.415577 22.237394,47.006881 4.502386,70.290663c-17.954636,23.415577 -71.763639,47.006881 -62.813774,70.290663c9.169493,23.415577 80.548782,47.006881 116.622776,58.429114l35.854366,11.861549l-269.045011,0l0,-11.729754c0,-11.685823 0,-35.277127 0,-58.560909c0,-23.415577 0,-47.006881 0,-70.290663c0,-23.415577 0,-47.006881 0,-70.290663c0,-23.415577 0,-47.006881 0,-70.290663c0,-23.415577 0,-47.006881 0,-70.290663c0,-23.415577 0,-47.006881 0,-70.290663c0,-23.415577 0,-47.006881 0,-70.290663c0,-23.415577 0,-47.006881 0,-70.290663c0,-23.415577 0,-47.006881 0,-70.290663c0,-23.415577 0,-47.006881 0,-70.290663c0,-23.415577 0,-47.006881 0,-70.290663c0,-23.415577 0,-47.006881 0,-70.290663c0,-23.415577 0,-47.006881 0,-70.290663c0,-23.415577 0,-47.006881 0,-70.290663c0,-23.415577 0,-47.006881 0,-70.290663c0,-23.415577 0,-47.006881 0,-70.290663c0,-23.415577 0,-47.006881 0,-70.290663c0,-23.415577 0,-47.006881 0,-70.290663c0,-23.415577 0,-47.006881 0,-70.290663c0,-23.415577 0,-47.006881 0,-70.290663c0,-23.415577 0,-47.006881 0,-70.290663c0,-23.415577 0,-47.006881 0,-70.290663c0,-23.415577 0,-47.006881 0,-70.290663c0,-23.415577 0,-47.006881 0,-58.429114l0,-11.861549l53.809002,0z" fill="url(#sw-gradient-1)"/>
     </g>
    </g>
   </svg>