<?xml version="1.0" standalone="no"?>
<!DOCTYPE svg PUBLIC "-//W3C//DTD SVG 20010904//EN"
 "http://www.w3.org/TR/2001/REC-SVG-20010904/DTD/svg10.dtd">
<svg version="1.0" xmlns="http://www.w3.org/2000/svg"
 width="96.000000pt" height="10.094637pt" viewBox="0 0 96.000000 10.094637"
 preserveAspectRatio="xMidYMid meet">
<metadata>
Created by potrace 1.16, written by Peter Selinger 2001-2019
</metadata>
<g transform="translate(0.000000,10.094637) scale(0.010095,-0.010095)"
fill="#FFFFFF" stroke="none">
<path d="M2021 974 c-76 -63 -49 -187 46 -213 93 -26 182 65 153 154 -27 83
-134 114 -199 59z"/>
<path d="M300 930 c-96 -14 -169 -71 -212 -165 -22 -48 -23 -63 -26 -327 l-3
-278 115 0 116 0 0 260 c0 247 1 261 20 280 47 47 104 7 98 -67 -3 -35 -6 -38
-35 -41 -23 -2 -33 -9 -33 -20 -1 -9 -2 -52 -3 -94 l-2 -77 35 -3 35 -3 3
-117 3 -118 115 0 115 0 -3 283 -3 282 -28 57 c-55 113 -170 168 -307 148z"/>
<path d="M1690 670 c0 -165 -4 -257 -11 -274 -32 -69 -149 -43 -149 33 0 57
35 86 98 82 l32 -2 0 106 0 105 -48 0 c-169 0 -282 -112 -282 -280 0 -93 27
-157 92 -216 57 -53 105 -69 198 -68 123 2 203 53 254 163 19 43 21 66 24 324
l3 277 -105 0 -106 0 0 -250z"/>
<path d="M3380 902 c-105 -39 -163 -93 -211 -197 -73 -154 -36 -334 92 -449
67 -60 139 -86 261 -93 l98 -6 0 111 0 112 -58 0 c-83 0 -140 31 -171 93 -31
62 -23 122 22 174 40 46 82 63 152 63 l55 0 0 105 0 105 -97 -1 c-65 0 -113
-6 -143 -17z"/>
<path d="M4930 601 c0 -297 4 -325 49 -375 38 -42 83 -57 188 -63 l93 -6 0 92
0 91 -40 0 c-62 0 -80 24 -80 110 l0 70 60 0 60 0 0 90 0 89 -57 3 -58 3 -3
88 -3 87 -104 0 -105 0 0 -279z"/>
<path d="M6930 608 c0 -157 5 -289 10 -310 14 -49 55 -97 99 -115 19 -8 77
-17 128 -20 l93 -6 0 92 0 91 -40 0 c-62 0 -80 24 -80 110 l0 70 60 0 60 0 0
90 0 89 -57 3 -58 3 -3 88 -3 87 -104 0 -105 0 0 -272z"/>
<path d="M2465 697 c-63 -30 -109 -75 -141 -140 -23 -44 -26 -60 -22 -133 3
-77 6 -86 43 -140 57 -83 114 -116 210 -122 126 -8 217 41 273 145 58 109 40
237 -46 326 -56 58 -105 80 -192 84 -64 3 -83 0 -125 -20z m165 -207 c44 -44
11 -120 -52 -120 -41 0 -68 25 -68 65 0 65 76 99 120 55z"/>
<path d="M3892 701 c-74 -25 -122 -67 -159 -140 -52 -100 -43 -207 25 -296 73
-96 195 -135 308 -99 87 27 164 106 188 193 12 44 16 78 11 110 -16 109 -100
206 -203 235 -74 20 -104 20 -170 -3z m122 -202 c34 -16 51 -58 35 -91 -11
-26 -46 -48 -75 -48 -24 0 -64 47 -64 75 0 28 40 75 64 75 8 0 26 -5 40 -11z"/>
<path d="M4508 706 c-63 -17 -111 -56 -139 -113 -23 -45 -24 -59 -24 -238 l0
-190 107 -3 108 -3 2 172 c3 151 5 173 21 183 12 8 22 8 35 0 15 -10 17 -32
20 -183 l2 -172 108 3 107 3 -1 190 c-1 151 -5 198 -18 227 -47 109 -187 162
-328 124z"/>
<path d="M5615 700 c-22 -11 -43 -27 -48 -35 -13 -23 -27 -18 -27 10 l0 25
-100 0 -100 0 0 -270 0 -270 105 0 105 0 0 133 c0 106 3 139 18 167 22 44 64
68 127 72 l50 3 3 93 3 92 -49 0 c-28 0 -64 -8 -87 -20z"/>
<path d="M5981 699 c-174 -69 -239 -308 -122 -450 48 -58 121 -91 205 -93 l71
-1 3 101 3 101 -41 -1 c-52 -1 -83 28 -83 78 0 87 106 113 145 35 15 -27 18
-60 18 -171 l0 -138 106 0 106 0 -4 163 c-3 149 -5 166 -29 217 -14 30 -38 69
-53 87 -67 79 -221 113 -325 72z"/>
<path d="M7531 701 c-65 -23 -97 -46 -138 -100 -39 -50 -53 -97 -53 -176 1
-248 325 -366 490 -179 48 56 72 118 73 188 1 193 -192 331 -372 267z m133
-212 c19 -15 26 -30 26 -54 0 -36 -36 -75 -70 -75 -34 0 -70 39 -70 75 0 36
36 75 70 75 10 0 29 -9 44 -21z"/>
<path d="M8275 705 c-22 -8 -50 -27 -62 -42 l-23 -28 0 33 0 32 -100 0 -100 0
0 -270 0 -270 105 0 105 0 0 130 c0 91 4 141 14 165 20 48 68 75 134 75 l52 0
0 95 0 95 -42 0 c-24 -1 -61 -7 -83 -15z"/>
<path d="M732 508 c3 -176 5 -197 25 -235 83 -156 352 -164 454 -14 23 35 24
44 27 239 l3 202 -105 0 -106 0 0 -164 c0 -176 -4 -191 -52 -184 -23 3 -23 4
-26 176 l-2 172 -111 0 -111 0 4 -192z"/>
<path d="M1992 433 l3 -268 105 0 105 0 3 268 3 267 -111 0 -110 0 2 -267z"/>
<path d="M6612 674 c-157 -78 -194 -289 -74 -426 49 -56 120 -81 227 -82 l90
-1 0 90 0 90 -68 5 c-79 6 -107 28 -107 85 0 58 27 79 109 83 l71 4 0 89 0 89
-98 0 c-85 0 -105 -3 -150 -26z"/>
<path d="M8524 681 c-52 -31 -74 -68 -74 -121 0 -64 30 -105 108 -148 94 -51
83 -72 -38 -72 l-68 0 -4 -74 c-5 -118 -18 -109 147 -104 161 6 204 19 242 76
17 26 21 44 18 83 -4 65 -33 107 -107 153 -32 20 -58 40 -58 46 0 5 33 10 73
12 l72 3 3 83 3 82 -143 0 c-122 0 -147 -3 -174 -19z"/>
</g>
</svg>
