<?xml version="1.0" standalone="no"?>
<!DOCTYPE svg PUBLIC "-//W3C//DTD SVG 20010904//EN"
 "http://www.w3.org/TR/2001/REC-SVG-20010904/DTD/svg10.dtd">
<svg version="1.0" xmlns="http://www.w3.org/2000/svg"
 width="900.000000pt" height="897.000000pt" viewBox="0 0 900.000000 897.000000"
 preserveAspectRatio="xMidYMid meet">
<metadata>
Created by potrace 1.10, written by Peter Selinger 2001-2011
</metadata>
<g transform="translate(0.000000,897.000000) scale(0.100000,-0.100000)"
fill="#ffffff" stroke="none">
<path d="M4050 8955 c0 -15 -9 -17 -155 -34 -49 -6 -128 -17 -175 -25 -47 -9
-110 -20 -141 -26 -50 -9 -252 -59 -364 -90 -61 -17 -218 -70 -235 -79 -9 -5
-30 -12 -48 -15 -17 -4 -34 -12 -37 -17 -4 -5 -13 -9 -21 -9 -8 0 -36 -9 -62
-21 -47 -20 -99 -43 -137 -59 -40 -16 -312 -151 -371 -184 -56 -30 -142 -82
-279 -168 -160 -101 -485 -360 -654 -522 -78 -76 -237 -246 -311 -335 -25 -30
-50 -59 -55 -65 -6 -6 -51 -65 -101 -131 -216 -288 -392 -590 -534 -920 -37
-85 -51 -121 -80 -200 -17 -49 -35 -97 -40 -105 -4 -9 -11 -31 -15 -50 -4 -19
-11 -41 -16 -50 -7 -13 -18 -51 -64 -215 -8 -27 -21 -84 -30 -125 -9 -41 -21
-91 -26 -110 -21 -80 -56 -317 -69 -470 -6 -69 -15 -168 -20 -220 -13 -122
-13 -329 0 -450 5 -52 14 -151 20 -220 12 -148 45 -376 70 -475 5 -22 19 -80
30 -130 12 -49 25 -103 30 -120 5 -16 19 -64 31 -105 45 -157 113 -348 179
-495 5 -11 19 -42 31 -70 56 -131 165 -338 251 -480 94 -155 307 -458 348
-495 3 -3 23 -27 45 -55 118 -149 454 -482 590 -586 17 -13 32 -26 35 -29 3
-4 50 -40 105 -82 163 -123 354 -250 485 -321 30 -16 80 -43 110 -60 81 -44
248 -125 345 -167 85 -37 121 -51 200 -80 50 -18 99 -36 110 -40 35 -14 208
-68 255 -80 25 -6 72 -18 105 -26 213 -54 396 -87 640 -116 133 -16 797 -16
930 0 244 29 427 62 640 116 33 8 80 20 105 26 47 12 221 66 255 80 11 4 49
18 85 31 36 12 69 26 75 31 5 4 15 8 23 8 7 0 34 9 60 21 26 11 56 24 67 29
98 42 264 123 348 169 31 17 81 44 110 60 150 81 506 324 579 394 7 7 27 23
43 35 138 107 472 439 590 587 22 28 42 52 45 55 41 37 254 340 348 495 86
142 195 349 251 480 12 28 26 59 31 70 66 147 134 338 179 495 12 41 26 89 31
105 5 17 18 71 29 120 12 50 25 106 31 125 14 52 52 293 71 455 16 132 17 808
1 935 -22 179 -56 393 -71 450 -5 19 -17 69 -26 110 -9 41 -22 98 -30 125 -46
164 -57 202 -64 215 -5 9 -12 31 -16 50 -4 19 -11 41 -15 50 -5 8 -23 56 -40
105 -18 50 -40 108 -50 130 -9 22 -23 55 -31 74 -27 68 -189 388 -240 476 -92
160 -330 506 -394 571 -5 6 -30 35 -55 65 -74 89 -233 259 -311 335 -169 162
-494 421 -654 522 -137 86 -223 138 -279 168 -58 32 -329 167 -371 184 -61 26
-124 53 -150 64 -16 8 -52 21 -80 31 -27 9 -59 21 -70 25 -79 33 -355 115
-473 141 -188 42 -326 66 -447 80 -146 17 -155 19 -155 34 0 13 -62 15 -440
15 -378 0 -440 -2 -440 -15z m499 -1201 c36 -30 38 -44 14 -81 -19 -29 -24
-119 -10 -184 8 -38 65 -104 125 -144 20 -14 48 -34 62 -44 24 -19 255 -188
295 -215 37 -26 149 -109 159 -118 11 -9 167 -121 206 -148 50 -34 193 -143
209 -159 14 -15 110 -131 129 -156 18 -26 72 -138 72 -152 0 -8 7 -27 14 -41
40 -73 54 -333 24 -447 -29 -111 -83 -236 -127 -293 -20 -26 -100 -137 -131
-182 -8 -12 -55 -78 -105 -146 -49 -68 -130 -180 -180 -249 -49 -69 -98 -135
-108 -147 -10 -12 -27 -36 -38 -54 -26 -43 -52 -48 -83 -15 -33 35 -33 47 6
123 29 59 32 71 32 169 1 70 -4 116 -13 135 -7 16 -20 45 -29 64 -40 88 -77
120 -447 385 -69 50 -143 104 -165 120 -21 17 -87 64 -146 105 -153 107 -287
243 -342 347 -78 150 -104 252 -106 418 -1 128 23 242 71 335 7 14 13 28 13
32 0 15 67 116 165 250 144 198 258 355 319 443 34 50 59 74 78 75 3 0 20 -12
37 -26z m-502 -1922 l43 -37 -12 -42 c-23 -80 -7 -108 112 -196 58 -43 110
-82 116 -86 6 -5 36 -27 66 -48 30 -21 68 -48 84 -60 16 -13 92 -69 169 -126
77 -57 159 -125 181 -151 49 -57 95 -146 121 -231 24 -79 23 -230 -1 -300 -20
-59 -73 -171 -92 -194 -7 -9 -58 -79 -114 -156 -56 -77 -108 -149 -116 -160
-87 -121 -83 -119 -139 -82 -42 27 -50 47 -35 92 16 47 -2 107 -40 137 -56 44
-345 255 -517 378 -214 153 -307 312 -307 525 0 114 8 152 53 245 28 59 138
226 189 285 5 6 26 35 47 65 82 118 130 180 140 180 6 0 29 -17 52 -38z m1681
-2039 c11 -16 23 -44 26 -63 4 -19 11 -44 16 -55 19 -44 42 -134 38 -151 -3
-18 -19 -19 -321 -22 -242 -2 -319 -5 -322 -15 -2 -6 -13 -46 -25 -87 -12 -41
-28 -93 -35 -115 -7 -22 -21 -67 -31 -100 -10 -33 -22 -66 -27 -72 -14 -19
-1056 -19 -1080 0 -9 6 -28 53 -43 102 -69 238 -76 257 -87 273 -7 9 -84 12
-323 12 l-314 0 0 43 c0 24 4 47 9 52 6 6 14 28 20 50 26 102 38 135 55 154
l19 21 1203 0 1203 0 19 -27z m-2384 -919 c32 -4 71 -13 85 -20 14 -8 32 -14
39 -14 21 0 95 -51 135 -94 51 -55 73 -99 87 -176 23 -129 -13 -247 -100 -329
l-51 -48 63 -40 c35 -22 80 -60 100 -84 53 -64 68 -116 68 -237 0 -91 -3 -110
-27 -160 -34 -72 -98 -140 -160 -171 -26 -13 -56 -28 -66 -33 -17 -8 -63 -19
-157 -38 -56 -11 -790 -13 -808 -2 -10 7 -12 159 -10 728 l3 719 345 5 c190 3
356 4 370 3 14 -1 52 -5 84 -9z m1441 -18 c93 -44 108 -52 140 -78 18 -15 49
-52 69 -82 99 -149 70 -354 -66 -471 l-39 -32 25 -17 c14 -9 29 -16 34 -16 23
0 131 -113 150 -157 42 -98 37 -264 -10 -357 -27 -52 -93 -114 -155 -145 -26
-13 -56 -28 -66 -33 -19 -9 -82 -24 -162 -38 -57 -10 -775 -13 -799 -4 -14 6
-16 79 -16 723 0 395 3 721 7 725 4 4 197 6 428 4 388 -3 423 -4 460 -22z
m1350 1 c17 -9 37 -17 45 -17 30 -1 125 -77 162 -131 21 -30 41 -71 44 -92 4
-20 11 -40 15 -43 15 -9 10 -122 -8 -177 -22 -70 -52 -116 -107 -164 l-46 -41
25 -16 c13 -9 30 -16 36 -16 27 0 121 -94 144 -144 24 -55 45 -140 45 -185 0
-27 3 -28 57 -34 39 -4 61 -12 70 -24 7 -10 17 -23 23 -30 16 -20 11 -45 -18
-88 -24 -35 -33 -40 -71 -43 -36 -3 -47 1 -68 25 -25 26 -27 26 -37 9 -54 -93
-210 -196 -296 -196 -15 0 -32 -6 -38 -12 -10 -10 -111 -14 -419 -16 -223 -2
-416 -1 -429 2 l-24 6 0 719 c0 395 3 721 7 725 4 4 199 6 433 4 382 -3 428
-5 455 -21z"/>
<path d="M2879 2574 c-5 -7 -8 -70 -7 -140 l3 -129 160 0 c247 0 315 30 315
139 0 61 -18 92 -69 114 -46 21 -387 34 -402 16z"/>
<path d="M2874 2007 c-2 -7 -3 -71 -2 -143 l3 -129 225 0 225 0 42 27 c53 34
63 54 63 117 0 41 -5 54 -29 79 -52 52 -106 62 -326 62 -151 0 -197 -3 -201
-13z"/>
<path d="M4229 2574 c-5 -7 -8 -70 -7 -140 l3 -129 134 -3 c208 -4 300 21 334
90 32 65 -5 155 -70 173 -52 14 -384 21 -394 9z"/>
<path d="M4224 2007 c-2 -7 -3 -71 -2 -143 l3 -129 220 0 c193 0 225 2 260 18
58 27 79 61 79 124 0 67 -30 101 -109 126 -72 22 -442 25 -451 4z"/>
<path d="M5579 2574 c-5 -7 -8 -70 -7 -140 l3 -129 150 0 c157 0 254 15 289
44 10 9 27 33 38 54 18 37 18 40 2 82 -13 36 -25 49 -63 67 -41 21 -65 24
-224 28 -127 4 -181 2 -188 -6z"/>
<path d="M5575 1998 c-3 -13 -4 -77 -3 -143 l3 -120 213 -3 c194 -2 216 -1
255 18 74 35 87 50 94 111 5 51 3 58 -25 90 -50 57 -109 69 -337 69 -193 0
-195 0 -200 -22z"/>
</g>
</svg>
