<?xml version="1.0" standalone="no"?>
<!DOCTYPE svg PUBLIC "-//W3C//DTD SVG 20010904//EN"
 "http://www.w3.org/TR/2001/REC-SVG-20010904/DTD/svg10.dtd">
<svg version="1.0" xmlns="http://www.w3.org/2000/svg"
 width="309.000000pt" height="310.000000pt" viewBox="0 0 309.000000 310.000000"
 preserveAspectRatio="xMidYMid meet">
<metadata>
Created by potrace 1.16, written by Peter Selinger 2001-2019
</metadata>
<g transform="translate(0.000000,310.000000) scale(0.100000,-0.100000)"
fill="#FFFFFF" stroke="none">
<path d="M1285 3034 c-489 -91 -889 -395 -1100 -837 -267 -558 -161 -1232 265
-1681 228 -239 481 -376 838 -452 l22 -4 0 525 0 525 -195 0 -195 0 0 220 0
220 194 0 194 0 5 233 c5 254 12 299 69 415 57 116 169 205 313 248 73 23 293
25 428 5 l87 -13 0 -183 0 -183 -137 -4 c-116 -3 -145 -7 -178 -25 -99 -52
-117 -99 -123 -320 l-5 -173 212 0 212 0 -7 -47 c-4 -27 -19 -124 -33 -218
l-26 -170 -178 -3 -177 -2 0 -525 0 -524 33 5 c17 4 67 15 110 26 489 120 897
497 1056 975 58 173 75 279 75 483 0 204 -17 310 -75 483 -167 501 -587 874
-1119 992 -107 24 -456 30 -565 9z"/>
</g>
</svg>
