<svg version="1.1" id="svg2" xmlns:cc="http://creativecommons.org/ns#" xmlns:dc="http://purl.org/dc/elements/1.1/" xmlns:inkscape="http://www.inkscape.org/namespaces/inkscape" xmlns:rdf="http://www.w3.org/1999/02/22-rdf-syntax-ns#" xmlns:sodipodi="http://sodipodi.sourceforge.net/DTD/sodipodi-0.dtd" xmlns:svg="http://www.w3.org/2000/svg" xmlns="http://www.w3.org/2000/svg" xmlns:xlink="http://www.w3.org/1999/xlink" x="0px" y="0px" viewBox="0 0 245.6 356.7" style="enable-background:new 0 0 245.6 356.7;" xml:space="preserve">
 <style type="text/css">
  .st0{fill:#FFFFFF;}
 </style>
 <g id="g10" transform="matrix(1.3333333,0,0,-1.3333333,0,356.70667)" inkscape:groupmode="layer" inkscape:label="ink_ext_XXXXXX">
  <g id="g12" transform="scale(0.1)">
   <path id="path20" class="st0" d="M872.8,271.9v976.4c28.5-2.5,55.7-3.8,84.2-3.8c135.8,0,263.7,35.8,372.3,99.5v-1072
			c0-91.5-21.8-159.2-63.8-204.4c-42-45-97.9-67.5-165.8-67.5c-66.6,0-119.6,22.5-163.1,68.8C894.6,114,872.8,181.8,872.8,271.9">
   </path>
   <path id="path26" class="st0" d="M875.4,2612.2c282.6,99.6,604.6,94.3,846.4-110c45-41.1,96.5-92.9,116.9-153.9
			c24.5-76.9-85.5,8.1-100.6,18.5c-78.8,50.5-157.6,92.9-245.8,122.2c-475.5,143.2-925.4-115.5-1205.1-517.5
			c-116.8-177.8-193-364.7-255.5-570.4c-6.7-22.7-12.2-51.9-24.6-71.6c-12.2-22.8-5.4,60.8-5.4,63.6c9.4,84.8,27.2,167.1,49,249.4
			C179.9,2080.3,465.1,2445.1,875.4,2612.2">
   </path>
   <path id="path28" class="st0" d="M1243.7,1525.7c-169.8-84.9-377.8-18.7-463.4,147.2c-87,165.9-18.9,368.8,150.8,452.4
			c169.9,84.9,377.9,18.6,463.4-147.3C1481.5,1812.2,1413.6,1609.2,1243.7,1525.7">
   </path>
  </g>
 </g>
</svg>