<svg xmlns="http://www.w3.org/2000/svg" width="178.1" height="55" viewBox="0 0 178.1 55"><path fill="#C0D541" d="M35.5 0l-35.5 15.5v27.8l9.3 4.1v-25.8l26.2-11.5 26.3 11.5v25.8l9.3-4.1v-27.8z"/><path fill="#A1B644" d="M43.3 41.9v13.1l9.2-4v-13.2"/><path fill="#A1B644" d="M18.5 37.8v13.1l9.3 4.1v-13.1z"/><path fill="#C0D541" d="M35.5 35.1l-17-7.4v10.1l17 7.4 17-7.4v-10.1z"/><g fill="#A1B644"><path d="M0 43.4l9.3 4.1v-25.8l-9.3-6.1zM61.8 21.7v25.8l9.3-4.1v-27.8z"/></g><g fill="#DEE0DE"><path d="M92.3 20.1v-7.4l-3.3 5.7h-.5l-3.3-5.7v7.4h-.9v-9h.9l3.5 6.1 3.5-6.1h.9v9h-.8zM94.5 20.1l3.8-9h.7l3.8 9h-.9l-1.2-2.8h-4l-1.2 2.8h-1zm4.1-7.9l-1.8 4.4h3.6l-1.8-4.4zM104 20.1v-9h3c.7 0 1.3.1 1.9.4.5.2 1 .6 1.3 1 .4.4.6.9.8 1.4.2.5.3 1.1.3 1.7 0 .7-.1 1.3-.3 1.9-.2.6-.5 1-.9 1.4s-.8.7-1.4.9c-.5.2-1.1.3-1.8.3h-2.9zm6.5-4.5c0-.5-.1-1-.2-1.5-.2-.5-.4-.8-.7-1.2-.3-.3-.6-.6-1.1-.8-.4-.2-.9-.3-1.5-.3h-2.2v7.4h2.2c.6 0 1-.1 1.5-.3.4-.2.8-.5 1.1-.8.3-.3.5-.7.7-1.2.1-.3.2-.8.2-1.3zM113.1 20.1v-9h.9v9h-.9zM121.5 12.8c-.3-.3-.6-.5-1-.7-.4-.2-.9-.3-1.4-.3-.8 0-1.4.1-1.7.4-.4.3-.5.7-.5 1.2 0 .3 0 .5.1.7.1.2.2.3.5.4.2.1.5.2.8.3.3.1.7.2 1.1.3.5.1.9.2 1.3.3s.7.3 1 .5c.3.2.5.4.6.7.1.3.2.6.2 1s-.1.8-.2 1.1c-.2.3-.4.6-.7.8-.3.2-.6.4-1 .4-.4.1-.8.1-1.3.1-1.4 0-2.6-.4-3.6-1.3l.4-.7c.3.3.8.6 1.3.9.6.2 1.2.4 1.9.4s1.3-.1 1.7-.4c.4-.3.6-.6.6-1.2 0-.3-.1-.5-.2-.7-.1-.2-.3-.4-.5-.5-.2-.1-.5-.3-.9-.4-.3-.1-.7-.2-1.2-.3-.5-.1-.9-.2-1.2-.3-.4-.1-.7-.3-.9-.4-.2-.2-.4-.4-.5-.6-.1-.2-.2-.6-.2-.9 0-.4.1-.8.2-1.1.2-.3.4-.6.7-.8.3-.2.6-.4 1-.5.4-.1.8-.2 1.3-.2.6 0 1.1.1 1.6.3.5.2.9.4 1.3.8l-.6.7zM127.6 20.2c-.6 0-1.2-.1-1.7-.4-.5-.3-1-.6-1.3-1-.4-.4-.7-.9-.9-1.5-.2-.5-.3-1.1-.3-1.7 0-.6.1-1.2.3-1.7.2-.5.5-1 .9-1.5s.8-.8 1.3-1c.5-.2 1.1-.4 1.7-.4.6 0 1.2.1 1.7.4.5.3 1 .6 1.3 1 .4.4.7.9.9 1.5.2.5.3 1.1.3 1.7 0 .6-.1 1.2-.3 1.7-.2.5-.5 1-.9 1.4-.4.4-.8.8-1.3 1-.5.3-1.1.5-1.7.5zm-3.3-4.6c0 .5.1 1 .2 1.4.2.5.4.9.7 1.2.3.3.6.6 1 .8.4.2.9.3 1.4.3.5 0 1-.1 1.4-.3.4-.2.8-.5 1-.9.3-.4.5-.8.7-1.2.2-.4.2-.9.2-1.4 0-.5-.1-1-.2-1.4-.2-.5-.4-.8-.7-1.2-.3-.3-.6-.6-1-.8-.4-.2-.9-.3-1.3-.3-.5 0-1 .1-1.4.3-.4.2-.8.5-1 .9-.3.4-.5.8-.7 1.2-.2.5-.3.9-.3 1.4zM134.4 12.8v7.3h-.9v-9h.7l5.9 7.5v-7.5h.9v9h-.8l-5.8-7.3zM145.2 20.1l3.8-9h.7l3.8 9h-.9l-1.2-2.8h-4l-1.2 2.8h-1zm4.1-7.9l-1.8 4.4h3.6l-1.8-4.4zM154.7 20.1v-9h3.8c.4 0 .7.1 1.1.2.3.2.6.4.8.6l.6.9c.1.3.2.7.2 1 0 .3 0 .6-.1.9-.1.3-.2.6-.4.8l-.6.6c-.2.2-.5.3-.8.3l2.2 3.5h-1l-2.1-3.3h-2.7v3.3h-1zm.9-4.1h2.9c.3 0 .5-.1.7-.2s.4-.3.6-.5c.2-.2.3-.4.4-.7.1-.2.1-.5.1-.8 0-.3 0-.5-.1-.8-.1-.2-.2-.5-.4-.7-.2-.2-.4-.3-.6-.4-.2-.1-.5-.2-.7-.2h-2.9v4.3zM169.1 19.3v.8h-6v-9h5.9v.8h-5v3.2h4.4v.7h-4.4v3.4h5.1zM169.9 20.1l3.8-9h.7l3.8 9h-.9l-1.2-2.8h-4l-1.2 2.8h-1zm4.1-7.9l-1.8 4.4h3.6l-1.8-4.4zM91.1 30.9c0 .3-.1.6-.2.9-.1.3-.3.5-.5.7-.2.2-.5.4-.8.5-.3.1-.6.2-1 .2h-4.2v-9h4.3c.3 0 .6.1.8.2.3.1.5.3.6.5.2.2.3.5.4.7.1.3.1.5.1.8 0 .5-.1.9-.3 1.2-.2.4-.5.7-.9.8.5.2.9.4 1.2.8.3.7.5 1.2.5 1.7zm-5.9-5.9v3.3h3.1c.2 0 .4 0 .6-.1.2-.1.4-.2.5-.4l.3-.5c.1-.2.1-.4.1-.6 0-.2 0-.4-.1-.6-.1-.2-.2-.4-.3-.5-.1-.1-.3-.3-.5-.4-.2-.1-.4-.1-.6-.1h-3.1zm5 5.8c0-.2 0-.4-.1-.6-.1-.2-.2-.4-.3-.5-.1-.2-.3-.3-.5-.4-.2-.1-.4-.1-.6-.1h-3.4v3.4h3.4c.2 0 .4 0 .6-.1.2-.1.4-.2.5-.4.1-.2.3-.3.3-.5 0-.4.1-.6.1-.8zM96.4 32.5c.6 0 1-.1 1.4-.3.4-.2.7-.5.9-.8.2-.3.4-.7.5-1.2.1-.4.1-.9.1-1.4v-4.5h.9v4.5c0 .6-.1 1.2-.2 1.7s-.4 1-.7 1.4c-.3.4-.7.7-1.2 1-.5.2-1.1.4-1.8.4s-1.3-.1-1.8-.4c-.5-.3-.9-.6-1.2-1-.3-.4-.5-.9-.6-1.4s-.2-1.1-.2-1.7v-4.5h.9v4.5c0 .5 0 .9.1 1.4.1.4.3.8.5 1.2.2.3.5.6.9.8.5.2 1 .3 1.5.3zM102.3 33.2v-9h.9v9h-.9zM105.5 33.2v-9h.9v8.2h5.2v.8h-6.1zM112.9 33.2v-9h3c.7 0 1.3.1 1.9.4.5.2 1 .6 1.3 1s.6.9.8 1.4c.2.5.3 1.1.3 1.7 0 .7-.1 1.3-.3 1.9-.2.6-.5 1-.9 1.4-.4.4-.8.7-1.4.9s-1.1.3-1.8.3h-2.9zm6.5-4.5c0-.5-.1-1-.2-1.5-.2-.5-.4-.8-.7-1.2-.3-.3-.6-.6-1.1-.8-.4-.2-.9-.3-1.5-.3h-2.2v7.4h2.2c.6 0 1-.1 1.5-.3.4-.2.8-.5 1.1-.8.3-.3.5-.7.7-1.2.1-.2.2-.7.2-1.3zM128 32.5v.8h-6v-9h5.9v.7h-5v3.2h4.4v.8h-4.4v3.4h5.1zM129.8 33.2v-9h3.8c.4 0 .7.1 1.1.2.3.2.6.4.8.6l.6.9c.1.3.2.7.2 1 0 .3 0 .6-.1.9-.1.3-.2.6-.4.8l-.6.6c-.2.2-.5.3-.8.3l2.2 3.5h-1l-2.1-3.3h-2.7v3.3h-1zm.8-4.1h2.9c.3 0 .5-.1.7-.2.2-.1.4-.3.6-.5.2-.2.3-.4.4-.7.1-.2.1-.5.1-.8s0-.5-.1-.8c-.1-.2-.2-.5-.4-.7-.2-.2-.4-.3-.6-.4-.2-.1-.5-.2-.7-.2h-2.9v4.3zM143.4 25.9c-.3-.3-.6-.5-1-.7-.4-.2-.9-.3-1.4-.3-.8 0-1.4.1-1.7.4-.4.3-.5.7-.5 1.2 0 .3 0 .5.1.7.1.2.2.3.5.4.2.1.5.2.8.3s.7.2 1.1.3c.5.1.9.2 1.3.3.4.1.7.3 1 .5.3.2.5.4.6.7.1.3.2.6.2 1s-.1.8-.2 1.1c-.2.3-.4.6-.7.8-.3.2-.6.4-1 .4-.4.1-.8.1-1.3.1-1.4 0-2.6-.4-3.6-1.3l.4-.7c.3.3.8.6 1.3.9.6.2 1.2.4 1.9.4s1.3-.1 1.7-.4c.4-.3.6-.6.6-1.2 0-.3-.1-.5-.2-.7-.1-.2-.3-.4-.5-.5-.2-.1-.5-.3-.9-.4-.3-.1-.7-.2-1.2-.3-.5-.1-.9-.2-1.2-.3-.4-.1-.7-.3-.9-.4-.2-.2-.4-.4-.5-.6-.1-.2-.2-.6-.2-.9 0-.4.1-.8.2-1.1.2-.3.4-.6.7-.8.3-.2.6-.4 1-.5.4-.1.8-.2 1.3-.2.6 0 1.1.1 1.6.3.5.2.9.4 1.3.8l-.6.7zM83.4 46.4l3.8-9h.7l3.8 9h-.9l-1.2-2.8h-4l-1.2 2.8h-1zm4.1-8l-1.8 4.4h3.6l-1.8-4.4zM98.1 39.1c-.3-.3-.6-.5-1-.7-.4-.2-.9-.3-1.4-.3-.8 0-1.4.1-1.7.4-.4.3-.5.7-.5 1.2 0 .3 0 .5.1.7.1.2.2.3.5.4.2.1.5.2.8.3.3.1.7.2 1.1.3.5.1.9.2 1.3.3.4.1.7.3 1 .5.3.2.5.4.6.7.1.3.2.6.2 1s-.1.8-.2 1.1c-.2.3-.4.6-.7.8-.3.2-.6.4-1 .4-.4.1-.8.1-1.3.1-1.4 0-2.6-.4-3.6-1.3l.4-.7c.3.3.8.6 1.3.9.6.2 1.2.4 1.9.4s1.3-.1 1.7-.4c.4-.3.6-.6.6-1.2 0-.3-.1-.5-.2-.7-.1-.2-.3-.4-.5-.5-.2-.1-.5-.3-.9-.4-.3-.1-.7-.2-1.2-.3-.5-.1-.9-.2-1.2-.3s-.7-.3-.9-.4c-.2-.2-.4-.4-.5-.6-.1-.2-.2-.6-.2-.9 0-.4.1-.8.2-1.1.2-.3.4-.6.7-.8.3-.2.6-.4 1-.5.4-.1.8-.2 1.3-.2.6 0 1.1.1 1.6.3.5.2.9.4 1.3.8l-.6.7zM105.8 39.1c-.3-.3-.6-.5-1-.7-.4-.2-.9-.3-1.4-.3-.8 0-1.4.1-1.7.4-.4.3-.5.7-.5 1.2 0 .3 0 .5.1.7.1.2.2.3.5.4.2.1.5.2.8.3s.7.2 1.1.3c.5.1.9.2 1.3.3.4.1.7.3 1 .5s.5.4.6.7c.1.3.2.6.2 1s-.1.8-.2 1.1c-.2.3-.4.6-.7.8-.3.2-.6.4-1 .4-.4.1-.8.1-1.3.1-1.4 0-2.6-.4-3.6-1.3l.4-.7c.3.3.8.6 1.3.9.6.2 1.2.4 1.9.4s1.3-.1 1.7-.4c.4-.3.6-.6.6-1.2 0-.3-.1-.5-.2-.7-.1-.2-.3-.4-.5-.5-.2-.1-.5-.3-.9-.4-.3-.1-.7-.2-1.2-.3-.5-.1-.9-.2-1.2-.3s-.7-.3-.9-.4c-.2-.2-.4-.4-.5-.6-.1-.2-.2-.6-.2-.9 0-.4.1-.8.2-1.1.2-.3.4-.6.7-.8s.6-.4 1-.5c.4-.1.8-.2 1.3-.2.6 0 1.1.1 1.6.3.5.2.9.4 1.3.8l-.6.7zM111.9 46.5c-.6 0-1.2-.1-1.7-.4-.5-.3-1-.6-1.3-1-.4-.4-.7-.9-.9-1.5-.2-.5-.3-1.1-.3-1.7 0-.6.1-1.2.3-1.7.2-.5.5-1 .9-1.5.4-.4.8-.8 1.3-1 .5-.2 1.1-.4 1.7-.4.6 0 1.2.1 1.7.4.5.3 1 .6 1.3 1 .4.4.7.9.9 1.5.2.5.3 1.1.3 1.7 0 .6-.1 1.2-.3 1.7-.2.5-.5 1-.9 1.4-.4.4-.8.8-1.3 1-.5.3-1.1.5-1.7.5zm-3.3-4.6c0 .5.1 1 .2 1.4.2.5.4.9.7 1.2.3.4.6.6 1 .8.4.2.9.3 1.4.3.5 0 1-.1 1.4-.3.4-.2.8-.5 1-.9s.5-.8.7-1.2c.2-.4.2-.9.2-1.4 0-.5-.1-1-.2-1.4-.2-.5-.4-.8-.7-1.2-.3-.3-.6-.6-1-.8-.4-.2-.9-.3-1.3-.3-.5 0-1 .1-1.4.3-.4.2-.8.5-1 .9-.3.4-.5.8-.7 1.2-.3.5-.3.9-.3 1.4zM117.2 41.8c0-.5.1-1.1.3-1.6s.5-1 .8-1.4c.4-.4.8-.8 1.3-1 .5-.3 1.1-.4 1.8-.4.8 0 1.5.2 2 .5.6.4 1 .8 1.3 1.4l-.7.4c-.1-.3-.3-.5-.5-.7-.2-.2-.4-.4-.7-.5l-.7-.3c-.3-.1-.5-.1-.7-.1-.5 0-1 .1-1.4.3-.4.2-.8.5-1 .9-.3.4-.5.8-.6 1.2-.1.4-.2.9-.2 1.3 0 .5.1 1 .3 1.4.2.5.4.9.7 1.2.3.3.7.6 1.1.8.4.2.9.3 1.3.3.3 0 .5 0 .8-.1l.8-.3c.2-.1.5-.3.7-.5.2-.2.4-.5.5-.8l.7.4c-.1.3-.3.6-.6.9-.3.3-.6.5-.9.7-.3.2-.7.3-1 .4-.4.1-.7.1-1.1.1-.6 0-1.2-.1-1.7-.4-.5-.3-1-.6-1.3-1.1-.4-.4-.7-.9-.9-1.5-.3-.3-.4-.9-.4-1.5zM126.5 46.4v-9h.9v9h-.9zM128.7 46.4l3.8-9h.7l3.8 9h-1l-1.2-2.8h-4l-1.2 2.8h-.9zm4.1-8l-1.8 4.4h3.6l-1.8-4.4zM143.7 38.2h-3.2v8.2h-.9v-8.2h-3.2v-.8h7.3v.8zM145.1 46.4v-9h.9v9h-.9zM151.9 46.5c-.6 0-1.2-.1-1.7-.4-.5-.3-1-.6-1.3-1s-.7-.9-.9-1.5c-.2-.5-.3-1.1-.3-1.7 0-.6.1-1.2.3-1.7.2-.5.5-1 .9-1.5.4-.4.8-.8 1.3-1 .5-.2 1.1-.4 1.7-.4.6 0 1.2.1 1.7.4.5.3 1 .6 1.3 1 .4.4.7.9.9 1.5.2.5.3 1.1.3 1.7 0 .6-.1 1.2-.3 1.7-.2.5-.5 1-.9 1.4-.4.4-.8.8-1.3 1-.5.3-1.1.5-1.7.5zm-3.3-4.6c0 .5.1 1 .2 1.4.2.5.4.9.7 1.2.3.4.6.6 1 .8.4.2.9.3 1.4.3.5 0 1-.1 1.4-.3.4-.2.8-.5 1-.9s.5-.8.7-1.2c.2-.4.2-.9.2-1.4 0-.5-.1-1-.2-1.4-.2-.5-.4-.8-.7-1.2-.3-.3-.6-.6-1-.8-.4-.2-.9-.3-1.3-.3-.5 0-1 .1-1.4.3s-.8.5-1 .9c-.3.4-.5.8-.7 1.2-.2.5-.3.9-.3 1.4zM158.7 39.1v7.3h-.9v-9h.7l5.9 7.5v-7.5h.9v9h-.8l-5.8-7.3z"/></g></svg>