<?xml version="1.0" encoding="iso-8859-1"?>
<svg version="1.1" id="Capa_1" xmlns="http://www.w3.org/2000/svg" xmlns:xlink="http://www.w3.org/1999/xlink" x="0px" y="0px"
	 viewBox="0 0 60 60" style="enable-background:new 0 0 60 60;" xml:space="preserve">
<g>
	<path d="M56,41.833c-0.43-4.107-3.853-7.333-7.954-7.333c-2.564,0-4.984,1.287-6.479,3.402c-0.292-0.051-0.587-0.076-0.884-0.076
		c-2.32,0-4.381,1.577-5.066,3.813c-1.907,1.132-3.116,3.242-3.116,5.502c0,3.506,2.785,6.359,6.208,6.359h10.774
		c0.059,0,0.116-0.003,0.185-0.007c0.058,0.004,0.116,0.007,0.175,0.007h4.31c3.225,0,5.849-2.687,5.849-5.989
		C60,44.911,58.358,42.638,56,41.833z M54.151,51.5l-4.344-0.002l-0.178-0.006L38.708,51.5c-2.32,0-4.208-1.956-4.208-4.359
		c0-1.665,0.949-3.209,2.417-3.935l0.435-0.214l0.102-0.474c0.331-1.56,1.689-2.692,3.229-2.692c0.345,0,0.688,0.057,1.019,0.168
		l0.777,0.262l0.409-0.711c1.096-1.907,3.024-3.045,5.158-3.045c3.265,0,5.955,2.747,5.999,6.124l0.011,0.814l0.799,0.155
		C56.677,43.946,58,45.594,58,47.511C58,49.71,56.273,51.5,54.151,51.5z" fill="#FFFFFF"/>
	<path d="M0,7.732v37.962c5.233-4.049,16.986-13.204,22.449-17.944L0,7.732z" fill="#FFFFFF"/>
	<path d="M42.331,33.157c1.712-1.064,3.685-1.657,5.714-1.657c4.286,0,8.164,2.614,9.954,6.468V7.732L35.587,27.717L42.331,33.157z" fill="#FFFFFF"
		/>
	<path d="M31.299,28.861L56.376,6.5H1.624l25.076,22.36C27.968,29.993,30.031,29.993,31.299,28.861z" fill="#FFFFFF"/>
	<path d="M33.158,39.689c1.305-2.821,4.02-4.679,7.064-4.851c0.149-0.154,0.311-0.292,0.468-0.436l-6.616-5.337l-1.444,1.287
		c-1,0.893-2.315,1.34-3.63,1.34s-2.63-0.447-3.631-1.34l-1.414-1.261c-5.521,4.814-17.851,14.41-23.007,18.398
		C0.966,47.49,0.981,47.5,1,47.5h28.518c-0.005-0.12-0.018-0.238-0.018-0.359C29.5,44.228,30.862,41.463,33.158,39.689z" fill="#FFFFFF"/>
</g>
<g>
</g>
<g>
</g>
<g>
</g>
<g>
</g>
<g>
</g>
<g>
</g>
<g>
</g>
<g>
</g>
<g>
</g>
<g>
</g>
<g>
</g>
<g>
</g>
<g>
</g>
<g>
</g>
<g>
</g>
</svg>
