<?xml version="1.0" standalone="no"?>
<svg version="1.0" xmlns="http://www.w3.org/2000/svg"
 width="900.000000pt" height="900.000000pt" viewBox="0 0 900.000000 900.000000"
 preserveAspectRatio="xMidYMid meet">
<g transform="translate(0.000000,900.000000) scale(0.100000,-0.100000)"
fill="#FFFFFF" stroke="none">
<path d="M590 8986 c0 -14 -29 -26 -63 -26 -37 0 -209 -93 -271 -146 -115 -97
-211 -252 -245 -397 -16 -68 -16 -7786 0 -7854 35 -147 132 -304 248 -400 69
-57 217 -134 286 -149 64 -14 7709 -11 7770 3 320 74 598 358 650 666 3 21 13
41 21 44 12 4 14 265 14 1960 0 1739 -2 1957 -15 1967 -9 6 -19 34 -24 61 -47
263 -284 528 -556 621 -150 51 -44 48 -1735 54 l-1575 5 -5 1490 c-7 1662 0
1527 -78 1687 -50 103 -129 199 -218 266 -73 54 -203 117 -266 127 -24 4 -38
11 -38 20 0 13 -250 15 -1950 15 -1654 0 -1950 -2 -1950 -14z m3860 -312 c96
-29 182 -86 240 -162 42 -54 56 -81 81 -153 17 -50 19 -80 17 -310 l-3 -254
-2245 0 -2245 0 -3 249 c-3 305 6 348 98 469 57 73 132 125 230 157 53 18 138
19 1916 19 1672 1 1866 -1 1914 -15z m335 -4184 l0 -2995 -2245 0 -2245 0 -3
2985 c-1 1642 0 2991 3 2998 3 10 458 12 2247 10 l2243 -3 0 -2995z m2700
-1800 l0 -2395 -1262 -3 c-695 -1 -1263 1 -1263 5 0 4 20 48 45 98 25 50 54
129 65 174 20 81 20 129 20 2295 0 1217 3 2216 7 2219 3 4 542 6 1197 5 l1191
-3 0 -2395z m750 2380 c224 -64 380 -222 439 -446 14 -54 16 -246 16 -1935 0
-1836 0 -1875 -20 -1944 -48 -172 -165 -317 -310 -387 -125 -60 -180 -69 -385
-66 l-180 3 -3 2385 c-1 1312 0 2391 3 2398 3 9 50 12 187 12 153 0 195 -3
253 -20z m-3447 -4135 c2 -212 0 -258 -15 -305 -49 -162 -164 -277 -323 -324
-48 -14 -243 -16 -1911 -16 -1797 0 -1858 1 -1915 19 -72 23 -99 37 -156 81
-75 58 -126 133 -159 234 -17 51 -19 90 -19 306 0 136 3 250 7 253 3 4 1015 6
2247 5 l2241 -3 3 -250z"/>
<path d="M2163 8369 c-97 -62 -97 -198 1 -258 31 -19 49 -21 226 -21 215 0
237 6 279 74 42 68 18 161 -53 205 -31 19 -49 21 -227 21 -179 0 -197 -2 -226
-21z"/>
<path d="M3663 8369 c-97 -62 -97 -198 1 -258 96 -60 226 15 226 129 0 115
-132 190 -227 129z"/>
<path d="M8163 2969 c-67 -43 -73 -64 -73 -279 0 -177 2 -195 21 -226 60 -98
198 -98 258 0 19 31 21 49 21 226 0 177 -2 195 -21 226 -44 71 -139 96 -206
53z"/>
<path d="M8163 1469 c-97 -62 -97 -198 1 -258 96 -60 226 15 226 129 0 115
-132 190 -227 129z"/>
<path d="M663 869 c-97 -62 -97 -198 1 -258 32 -20 48 -21 376 -21 328 0 344
1 376 21 98 60 98 198 0 258 -32 20 -48 21 -377 21 -330 0 -345 -1 -376 -21z"/>
<path d="M3663 869 c-97 -62 -97 -198 1 -258 32 -20 48 -21 376 -21 328 0 344
1 376 21 46 28 74 77 74 129 0 52 -28 101 -74 129 -32 20 -48 21 -377 21 -330
0 -345 -1 -376 -21z"/>
<path d="M5763 8669 c-97 -62 -97 -198 1 -258 27 -17 50 -21 122 -21 90 0 312
-28 394 -50 232 -60 434 -146 600 -255 293 -193 527 -463 684 -790 67 -139 71
-149 104 -250 65 -197 94 -343 118 -587 5 -57 4 -68 -9 -68 -8 0 -75 58 -148
128 -214 206 -202 197 -276 197 -59 0 -65 -2 -98 -35 -39 -39 -52 -85 -41
-143 5 -25 24 -51 68 -93 179 -170 511 -499 575 -569 37 -41 75 -45 156 -17
46 15 85 51 364 329 335 334 334 333 320 421 -8 48 -61 101 -109 109 -83 13
-95 5 -294 -193 -102 -101 -190 -182 -195 -179 -5 4 -9 30 -9 58 0 63 -25 281
-46 397 -14 83 -31 149 -60 241 -7 26 -14 54 -14 63 0 8 -6 30 -14 48 -8 18
-21 51 -29 73 -91 243 -198 434 -360 645 -76 98 -280 297 -392 381 -189 142
-433 272 -600 319 -16 4 -43 13 -60 18 -165 57 -441 102 -617 102 -87 0 -108
-4 -135 -21z"/>
</g>
</svg>
