<?xml version="1.0" standalone="no"?>
<svg version="1.0" xmlns="http://www.w3.org/2000/svg"
 width="600.000000pt" height="600.000000pt" viewBox="0 0 600.000000 600.000000"
 preserveAspectRatio="xMidYMid meet">
<g transform="translate(0.000000,600.000000) scale(0.100000,-0.100000)"
fill="#FFFFFF" stroke="none">
<path d="M2933 5555 c-29 -20 -328 -319 -348 -348 -8 -12 -15 -39 -15 -61 0
-33 7 -45 40 -78 34 -31 48 -38 81 -38 39 0 48 7 163 120 68 66 129 120 137
120 8 0 53 -39 100 -87 122 -128 156 -153 201 -153 31 0 45 7 78 40 49 49 54
95 16 145 -27 35 -261 271 -320 323 -41 36 -96 43 -133 17z"/>
<path d="M2785 4590 c-84 -18 -140 -34 -190 -56 -70 -29 -167 -80 -177 -91 -6
-7 -15 -13 -20 -13 -38 0 -308 -270 -308 -308 0 -5 -6 -14 -13 -20 -11 -10
-62 -107 -91 -177 -23 -52 -38 -105 -57 -198 -18 -83 -19 -141 -19 -737 0
-596 1 -654 19 -737 34 -164 70 -251 160 -393 126 -197 346 -366 575 -440 164
-53 365 -64 529 -30 53 11 107 24 119 29 88 34 118 46 153 63 207 101 392 286
493 493 17 35 29 65 63 153 5 12 18 66 29 119 19 91 20 133 20 743 0 596 -1
654 -19 737 -26 124 -39 165 -91 273 -53 110 -110 190 -207 288 -111 113 -207
177 -368 246 -166 72 -420 96 -600 56z m365 -236 c339 -73 591 -325 664 -664
24 -111 24 -1296 0 -1404 -38 -171 -112 -306 -233 -427 -161 -161 -369 -249
-591 -249 -323 0 -621 192 -762 490 -77 164 -78 176 -78 890 0 543 2 642 16
704 75 336 318 581 654 659 88 21 238 21 330 1z"/>
<path d="M2929 3933 c-55 -34 -59 -52 -59 -283 0 -178 3 -216 16 -240 22 -37
64 -60 109 -60 30 0 45 8 76 39 l39 39 0 217 c0 183 -3 221 -16 245 -34 56
-111 77 -165 43z"/>
<path d="M2609 911 c-33 -32 -39 -45 -39 -79 0 -49 7 -58 194 -245 163 -162
183 -177 231 -177 37 0 48 9 227 188 184 184 188 189 188 230 0 34 -7 48 -38
82 -33 33 -45 40 -78 40 -50 0 -63 -9 -188 -136 -57 -57 -109 -104 -116 -104
-7 0 -59 47 -116 104 -125 127 -138 136 -187 136 -32 0 -46 -7 -78 -39z"/>
</g>
</svg>
