<?xml version="1.0" standalone="no"?>
<svg version="1.0" xmlns="http://www.w3.org/2000/svg"
 width="900.000000pt" height="900.000000pt" viewBox="0 0 900.000000 900.000000"
 preserveAspectRatio="xMidYMid meet">
<g transform="translate(0.000000,900.000000) scale(0.100000,-0.100000)"
fill="#FFFFFF" stroke="none">
<path d="M2318 7993 c-84 -71 -353 -317 -440 -404 -95 -93 -105 -118 -72 -169
27 -40 45 -50 90 -50 45 0 65 14 177 118 163 153 199 183 210 179 9 -3 13
-167 15 -708 1 -387 0 -714 -3 -727 -5 -21 -7 -21 -25 -9 -11 8 -37 30 -58 48
-266 245 -271 249 -322 249 -42 0 -100 -56 -100 -96 0 -39 23 -71 105 -145 39
-34 93 -84 120 -109 172 -161 321 -292 346 -305 50 -27 82 -9 224 124 28 26
102 94 165 151 63 57 144 132 180 166 63 62 65 65 65 115 0 44 -4 54 -29 74
-38 30 -69 36 -103 18 -28 -15 -116 -91 -253 -221 -50 -47 -89 -77 -94 -72 -5
6 -10 309 -10 726 -1 753 -1 755 42 706 9 -11 82 -79 161 -151 142 -129 145
-131 191 -131 65 0 95 32 95 102 0 45 -4 53 -40 86 -22 20 -70 64 -105 96 -36
32 -112 103 -170 156 -220 204 -241 220 -281 220 -28 0 -48 -9 -81 -37z"/>
<path d="M3889 7530 c-166 -45 -292 -139 -352 -263 -51 -105 -56 -169 -67
-842 -6 -341 -15 -732 -20 -870 -5 -137 -9 -365 -10 -506 0 -141 -3 -310 -6
-377 -8 -136 -6 -134 -100 -148 -207 -30 -339 -214 -389 -539 -22 -148 -22
-1012 1 -1135 22 -125 42 -195 81 -289 69 -165 144 -268 353 -481 211 -216
259 -304 271 -500 8 -137 20 -193 63 -279 32 -67 129 -176 178 -202 147 -77
219 -102 392 -134 76 -14 176 -17 640 -20 985 -5 1169 10 1383 116 84 42 200
137 227 187 60 112 86 204 86 311 0 86 20 196 48 266 26 64 69 130 177 275
103 138 195 281 195 303 0 7 4 17 9 22 20 20 71 184 94 300 32 160 39 338 33
912 -3 307 -9 612 -12 677 -16 303 -117 434 -394 512 -89 26 -180 45 -250 53
-36 5 -90 13 -120 19 -30 6 -109 18 -175 27 -66 9 -154 23 -195 31 -42 8 -91
14 -110 14 -19 0 -68 7 -110 14 -41 8 -129 22 -195 31 -66 9 -153 23 -193 31
-40 8 -87 14 -105 14 -17 0 -65 6 -107 14 -41 8 -129 22 -195 31 -66 9 -158
23 -205 31 -47 7 -100 15 -119 16 -19 2 -37 10 -42 18 -4 8 -15 213 -23 455
-9 242 -23 618 -31 835 -9 217 -15 445 -15 505 0 192 -45 318 -152 423 -134
133 -357 192 -539 142z m267 -212 c57 -18 79 -31 124 -77 74 -74 90 -126 90
-287 0 -65 7 -245 15 -399 8 -154 15 -356 15 -450 0 -93 5 -237 10 -320 5 -82
12 -276 16 -430 6 -289 11 -330 44 -360 20 -18 170 -54 230 -55 19 0 68 -6
110 -14 41 -8 129 -22 195 -31 66 -9 161 -23 210 -30 50 -8 136 -21 193 -30
56 -8 146 -22 200 -30 53 -8 113 -16 132 -18 36 -4 116 -16 275 -42 50 -8 142
-22 205 -30 63 -9 151 -23 195 -31 44 -8 93 -14 108 -14 32 0 135 -23 217 -47
112 -34 160 -72 194 -154 26 -63 36 -295 36 -873 0 -677 -10 -813 -74 -999
-30 -87 -79 -183 -128 -248 -16 -20 -28 -41 -28 -46 0 -4 -19 -31 -43 -58 -24
-28 -54 -66 -67 -85 -13 -19 -27 -37 -30 -40 -9 -7 -74 -108 -100 -154 -53
-96 -90 -250 -90 -375 0 -84 -18 -152 -58 -215 -61 -99 -163 -153 -367 -199
-98 -21 -113 -22 -840 -22 -684 0 -748 1 -840 19 -237 45 -352 111 -411 235
-23 46 -29 77 -35 176 -17 259 -83 388 -328 639 -64 65 -123 126 -132 135 -62
64 -142 190 -179 283 -41 99 -48 123 -65 213 -26 137 -27 988 -2 1120 25 129
46 193 83 250 36 54 55 69 117 91 70 25 68 35 61 -346 -7 -335 -7 -338 15
-373 39 -64 134 -59 172 8 15 26 18 73 22 350 3 176 10 502 16 725 17 636 31
1279 41 1857 10 576 12 596 66 671 83 116 250 160 410 110z"/>
</g>
</svg>
